<?xml version="1.0" standalone="no"?>
<!DOCTYPE svg PUBLIC "-//W3C//DTD SVG 20010904//EN"
 "http://www.w3.org/TR/2001/REC-SVG-20010904/DTD/svg10.dtd">
<svg version="1.0" xmlns="http://www.w3.org/2000/svg"
 width="400.000000pt" height="400.000000pt" viewBox="0 0 400.000000 400.000000"
 preserveAspectRatio="xMidYMid meet">

<g transform="translate(0.000000,400.000000) scale(0.100000,-0.100000)"
fill="#000000" stroke="none">
<path d="M1797 3504 c-280 -51 -543 -195 -742 -406 -297 -316 -457 -786 -415
-1219 6 -68 15 -130 20 -139 31 -58 104 -83 161 -56 61 29 63 37 64 291 0 251
8 303 66 480 115 346 364 621 674 746 151 60 215 72 385 72 185 0 260 -16 415
-92 164 -81 305 -202 356 -308 33 -67 37 -157 11 -216 -39 -88 -158 -143 -259
-118 -55 14 -153 69 -153 87 0 7 23 72 51 145 60 156 60 185 4 237 -28 26 -43
32 -80 32 -68 0 -103 -39 -150 -167 -21 -57 -42 -103 -47 -103 -5 0 -23 7 -40
16 -81 42 -200 60 -289 44 -140 -26 -252 -111 -312 -237 -30 -64 -32 -75 -32
-178 0 -104 2 -114 32 -176 52 -105 146 -198 276 -273 26 -15 47 -33 47 -39 0
-10 -108 -305 -116 -315 -1 -2 -30 13 -65 32 -151 83 -320 86 -471 10 -59 -30
-140 -103 -174 -156 -83 -130 -89 -328 -14 -478 83 -166 253 -318 475 -425
167 -80 323 -115 515 -115 639 0 1189 478 1340 1165 33 150 44 327 31 473 -7
69 -16 133 -21 141 -31 59 -104 84 -161 57 -61 -29 -63 -37 -64 -291 0 -251
-8 -303 -66 -480 -115 -347 -363 -621 -674 -746 -148 -59 -216 -72 -380 -73
-126 -1 -163 3 -235 22 -227 61 -469 230 -541 379 -33 67 -37 157 -11 216 39
88 154 141 257 118 48 -11 165 -74 165 -89 0 -4 -23 -68 -52 -142 -53 -139
-62 -190 -39 -232 28 -53 111 -74 170 -43 31 16 44 39 96 176 20 51 37 95 39
96 2 2 27 -8 57 -21 223 -102 480 -13 582 201 30 64 32 75 32 178 0 105 -2
114 -34 180 -43 88 -138 183 -244 245 -64 38 -76 48 -71 65 13 40 113 298 118
303 3 3 32 -9 64 -26 147 -79 316 -81 464 -6 59 30 140 103 174 156 61 95 83
247 54 368 -67 285 -433 566 -824 635 -109 19 -312 18 -419 -1z m208 -935 c31
-12 59 -27 62 -34 6 -17 -127 -365 -140 -365 -14 0 -97 64 -139 107 -99 102
-88 223 27 294 40 25 120 24 190 -2z m120 -775 c157 -104 198 -231 107 -327
-40 -42 -75 -57 -134 -57 -63 1 -165 39 -160 61 3 16 122 330 129 342 7 12 16
9 58 -19z"/>
</g>
</svg>
