<?xml version="1.0" standalone="no"?>
<!DOCTYPE svg PUBLIC "-//W3C//DTD SVG 20010904//EN"
 "http://www.w3.org/TR/2001/REC-SVG-20010904/DTD/svg10.dtd">
<svg version="1.0" xmlns="http://www.w3.org/2000/svg"
 width="300.000000pt" height="300.000000pt" viewBox="0 0 300.000000 300.000000"
 preserveAspectRatio="xMidYMid meet">

<g transform="translate(0.000000,300.000000) scale(0.100000,-0.100000)"
fill="#000000" stroke="none">
<path d="M1230 2264 c-74 -32 -110 -86 -110 -164 0 -65 28 -121 77 -155 47
-32 81 -33 92 -2 10 25 -3 57 -23 57 -7 0 -25 12 -40 26 -19 20 -26 37 -26 66
0 50 13 74 52 94 55 28 113 3 147 -64 9 -17 19 -22 39 -20 64 7 22 117 -60
157 -52 25 -99 26 -148 5z"/>
<path d="M1704 2261 c-64 -29 -114 -105 -94 -142 17 -31 55 -24 78 15 30 50
64 70 110 63 78 -13 109 -103 56 -166 -14 -17 -32 -31 -40 -31 -23 0 -40 -46
-24 -65 19 -23 53 -18 97 14 50 36 73 84 73 151 0 79 -37 133 -112 165 -49 20
-94 19 -144 -4z"/>
<path d="M1312 2078 c-23 -23 -11 -44 78 -133 l90 -89 -90 -92 c-50 -50 -90
-96 -90 -102 0 -26 14 -42 38 -42 20 0 49 22 114 87 l88 87 93 -91 c75 -74 98
-91 115 -86 13 3 25 16 28 30 6 21 -6 38 -85 117 l-91 91 85 85 c90 90 104
112 85 135 -25 31 -55 16 -140 -70 -47 -47 -88 -84 -92 -83 -4 2 -45 40 -92
86 -83 80 -110 94 -134 70z"/>
<path d="M1214 1776 c-89 -39 -124 -170 -69 -263 45 -76 162 -106 240 -61 80
47 115 149 53 156 -21 3 -30 -3 -42 -27 -34 -64 -89 -86 -146 -56 -36 19 -50
43 -50 89 0 37 40 96 66 96 22 0 37 37 24 60 -12 23 -32 25 -76 6z"/>
<path d="M1788 1764 c-11 -24 -10 -28 11 -43 13 -9 36 -28 52 -43 64 -59 15
-168 -77 -168 -24 0 -57 27 -102 84 -18 22 -49 20 -62 -4 -8 -15 -6 -29 9 -59
28 -54 73 -89 126 -97 60 -9 101 1 143 32 51 39 72 81 72 141 0 80 -22 121
-87 165 -40 26 -71 23 -85 -8z"/>
<path d="M1305 1184 c-92 -23 -151 -67 -187 -138 -32 -63 -37 -181 -9 -238 40
-84 141 -113 215 -63 37 25 38 25 43 5 4 -16 14 -20 48 -20 48 0 47 -1 64 90
5 31 13 68 16 83 l7 28 -93 -3 c-80 -3 -94 -6 -97 -20 -3 -14 3 -18 22 -18 31
0 34 -25 11 -70 -20 -40 -49 -54 -76 -39 -20 10 -21 17 -16 92 8 143 39 230
90 261 30 18 50 -18 42 -76 l-6 -48 60 0 c65 0 63 -2 76 70 4 19 9 42 11 51 3
12 -7 21 -35 32 -42 17 -152 29 -186 21z"/>
<path d="M475 1168 c-2 -7 -23 -101 -45 -208 -22 -107 -43 -203 -46 -212 -5
-16 3 -18 74 -18 l80 0 6 33 c3 17 13 65 22 105 l16 72 64 0 c64 0 64 0 64 29
l0 29 -54 -5 c-29 -3 -56 -1 -58 3 -3 5 1 37 9 72 l14 62 75 0 c41 0 74 4 74
9 0 5 3 16 6 25 5 14 -11 16 -145 16 -112 0 -153 -3 -156 -12z"/>
<path d="M875 1168 c-2 -7 -23 -101 -45 -208 -22 -107 -43 -203 -46 -212 -5
-16 3 -18 73 -18 l79 0 43 203 c24 111 46 212 48 225 5 21 3 22 -71 22 -52 0
-78 -4 -81 -12z"/>
<path d="M1665 1168 c-10 -30 -93 -433 -90 -439 2 -3 17 -4 33 -1 28 4 29 5
57 143 15 77 31 142 35 144 4 2 13 -61 20 -140 l13 -145 52 0 51 0 57 108 c76
143 109 195 102 162 -3 -14 -16 -78 -30 -142 -14 -65 -25 -120 -25 -123 0 -3
36 -5 79 -5 79 0 79 0 85 28 3 15 23 112 46 216 22 105 40 194 40 198 0 4 -42
8 -92 8 l-93 -1 -35 -70 c-19 -39 -49 -96 -66 -127 l-32 -55 -6 59 c-3 32 -8
89 -12 127 l-6 67 -89 0 c-63 0 -91 -4 -94 -12z"/>
<path d="M2370 1118 c-15 -35 -62 -136 -103 -225 -41 -90 -73 -163 -71 -164 2
-1 13 -1 24 -1 11 0 25 0 30 1 6 1 21 26 35 56 l24 55 64 0 c71 0 77 -5 77
-77 l0 -33 86 0 86 0 -6 38 c-3 20 -13 102 -21 182 -8 80 -18 164 -21 188 l-6
42 -85 0 -84 0 -29 -62z m63 -160 l5 -68 -49 0 c-27 0 -49 3 -49 7 0 3 17 46
37 95 43 100 46 97 56 -34z"/>
</g>
</svg>
