<?xml version="1.0" standalone="no"?>
<!DOCTYPE svg PUBLIC "-//W3C//DTD SVG 20010904//EN"
 "http://www.w3.org/TR/2001/REC-SVG-20010904/DTD/svg10.dtd">
<svg version="1.0" xmlns="http://www.w3.org/2000/svg"
 width="300.000000pt" height="336.000000pt" viewBox="0 0 300.000000 336.000000"
 preserveAspectRatio="xMidYMid meet">
<metadata>
Created by potrace 1.10, written by Peter Selinger 2001-2011
</metadata>
<g transform="translate(0.000000,336.000000) scale(0.100000,-0.100000)"
fill="#000000" stroke="none">
<path d="M1310 3164 c-265 -48 -412 -99 -584 -204 -304 -184 -548 -494 -654
-830 -30 -95 -62 -257 -62 -314 l0 -31 103 0 102 1 3 29 c34 379 268 749 606
960 583 363 1357 195 1746 -380 114 -168 209 -428 210 -572 l0 -43 106 0 107
0 -7 76 c-10 105 -56 281 -104 397 -77 183 -181 337 -328 482 -204 202 -451
337 -744 407 -66 15 -128 21 -280 23 -107 2 -206 1 -220 -1z m380 -35 c169
-29 329 -78 454 -140 85 -43 230 -136 280 -179 224 -194 347 -363 445 -613 36
-91 79 -261 83 -332 l3 -50 -58 -1 c-61 -1 -86 12 -88 44 -1 34 -10 79 -30
152 -110 406 -394 732 -774 887 -112 46 -165 64 -165 57 0 -3 -9 0 -20 6 -12
6 -69 18 -128 25 -224 30 -425 11 -630 -61 -237 -83 -452 -239 -607 -439 -124
-161 -184 -287 -241 -503 -13 -52 -24 -104 -24 -116 0 -12 -5 -27 -12 -34 -14
-14 -124 -16 -133 -2 -15 25 46 274 103 415 27 69 119 228 172 300 94 127 256
279 393 369 72 47 240 126 327 154 67 22 228 58 290 65 67 8 306 5 360 -4z"/>
<path d="M2347 1987 c-3 -7 -11 -54 -18 -105 l-13 -92 -144 0 -144 0 6 -37 c8
-46 32 -81 76 -110 29 -20 45 -23 139 -23 81 0 114 4 141 18 44 22 80 75 80
118 0 33 -1 34 -40 34 -22 0 -40 2 -40 4 0 2 18 42 41 90 22 48 38 92 36 99
-4 10 -68 -116 -90 -175 -4 -10 -16 -18 -27 -18 -16 0 -20 5 -16 18 3 9 10 46
16 82 6 36 13 75 15 88 6 23 -9 31 -18 9z m76 -238 c12 -20 -26 -77 -61 -90
-13 -5 -65 -9 -115 -9 -94 0 -122 9 -154 50 -18 23 -16 58 5 62 9 2 84 4 166
3 125 0 150 -3 159 -16z"/>
<path d="M763 1934 c-3 -8 2 -23 11 -32 15 -15 17 -15 32 0 21 21 11 48 -16
48 -11 0 -23 -7 -27 -16z"/>
<path d="M1407 1943 c-13 -12 -7 -41 10 -47 21 -8 48 17 40 38 -6 16 -38 22
-50 9z"/>
<path d="M1288 1933 c-2 -5 -2 -77 0 -160 4 -149 4 -153 25 -153 22 0 22 2 19
160 -3 149 -4 160 -22 160 -10 0 -20 -3 -22 -7z"/>
<path d="M1740 1780 l0 -160 25 0 25 0 0 160 0 160 -25 0 -25 0 0 -160z"/>
<path d="M530 1770 l0 -150 25 0 25 0 0 150 0 150 -25 0 -25 0 0 -150z"/>
<path d="M597 1900 c5 -17 14 -20 64 -20 52 0 59 2 59 20 0 18 -7 20 -64 20
-59 0 -64 -2 -59 -20z"/>
<path d="M2159 1915 c-8 -8 3 -85 12 -85 12 0 12 77 0 84 -4 3 -10 4 -12 1z"/>
<path d="M765 1735 l0 -115 25 0 25 0 0 115 0 115 -25 0 -25 0 0 -115z"/>
<path d="M880 1735 l0 -115 25 0 25 0 0 115 0 115 -25 0 -25 0 0 -115z"/>
<path d="M963 1843 c-22 -8 -15 -36 7 -30 10 3 27 -1 37 -8 15 -11 18 -28 18
-99 0 -85 0 -86 25 -86 l25 0 -3 92 c-3 78 -7 97 -24 116 -20 21 -56 27 -85
15z"/>
<path d="M1164 1826 c-26 -22 -29 -30 -29 -89 0 -56 4 -69 25 -92 20 -21 32
-25 65 -23 32 2 41 7 43 24 3 18 -1 20 -26 16 -36 -5 -62 26 -62 73 0 47 26
78 62 73 25 -4 29 -2 26 16 -5 33 -67 34 -104 2z"/>
<path d="M1400 1735 l0 -115 25 0 25 0 0 115 0 115 -25 0 -25 0 0 -115z"/>
<path d="M1542 1834 c-32 -22 -30 -76 3 -98 13 -9 29 -16 35 -16 15 0 12 31
-5 51 -14 15 -14 18 0 32 18 19 20 47 2 47 -7 0 -23 -7 -35 -16z"/>
<path d="M1607 1830 c3 -11 9 -20 13 -20 5 0 15 -3 23 -6 19 -7 32 27 15 38
-7 4 -23 8 -35 8 -16 0 -20 -5 -16 -20z"/>
<path d="M1817 1843 c-16 -15 -7 -35 13 -30 38 10 50 -17 50 -109 0 -83 0 -84
25 -84 25 0 25 1 25 90 0 83 -2 93 -25 115 -23 24 -73 34 -88 18z"/>
<path d="M600 1770 c0 -17 7 -20 48 -20 53 0 63 5 55 26 -3 9 -21 14 -54 14
-42 0 -49 -3 -49 -20z"/>
<path d="M1604 1733 c0 -10 9 -25 20 -34 16 -13 17 -17 4 -30 -23 -23 -30 -49
-12 -49 20 0 64 45 64 65 0 20 -44 65 -63 65 -8 0 -14 -8 -13 -17z"/>
<path d="M1526 1654 c-8 -20 9 -34 42 -34 15 0 22 6 22 20 0 11 -6 20 -14 20
-8 0 -21 3 -29 6 -8 3 -17 -2 -21 -12z"/>
<path d="M2083 1578 c-5 -10 -23 -9 167 -9 88 0 161 2 163 6 3 8 -324 11 -330
3z"/>
<path d="M10 1544 c0 -65 33 -224 70 -335 75 -228 184 -404 355 -574 219 -219
471 -357 765 -421 122 -27 478 -27 598 -1 105 23 245 70 336 112 364 166 671
516 794 905 30 95 62 257 62 314 l0 31 -102 -1 -103 0 -3 -35 c-10 -127 -61
-297 -132 -439 -178 -354 -503 -601 -903 -687 -116 -25 -380 -25 -497 1 -263
57 -483 176 -665 360 -125 126 -218 269 -289 440 -27 65 -65 217 -73 291 l-8
69 -102 1 -103 0 0 -31z m174 -21 c3 -10 8 -36 11 -58 21 -124 87 -319 142
-415 28 -50 95 -154 102 -160 4 -3 22 -25 41 -50 94 -122 275 -266 431 -343
192 -94 372 -137 580 -137 404 0 754 162 1028 476 127 146 241 385 277 583 24
132 16 122 92 119 l67 -3 -3 -45 c-5 -73 -50 -247 -89 -344 -78 -197 -196
-369 -359 -525 -221 -211 -483 -340 -794 -389 -108 -17 -389 -8 -505 16 -501
104 -923 474 -1088 952 -35 99 -65 223 -71 288 l-4 52 68 0 c57 0 70 -3 74
-17z"/>
<path d="M1010 1435 c0 -25 0 -48 -1 -52 0 -4 4 -9 10 -11 5 -2 12 14 14 35
l4 38 1 -37 c1 -21 7 -38 13 -38 6 0 9 17 7 43 -2 27 -7 41 -15 40 -7 -2 -13
4 -13 12 0 8 -4 15 -10 15 -5 0 -10 -20 -10 -45z"/>
<path d="M1870 1465 c0 -8 -6 -14 -12 -12 -11 2 -15 -33 -9 -74 1 -4 12 -6 26
-6 24 0 25 3 25 53 0 41 -4 54 -15 54 -8 0 -15 -7 -15 -15z"/>
<path d="M905 1428 c4 -24 9 -46 12 -50 9 -15 23 -8 23 12 0 11 5 20 10 20 6
0 10 -9 10 -20 0 -22 18 -28 24 -7 14 42 14 87 1 87 -8 0 -16 -12 -18 -27 l-4
-28 -2 28 c0 15 -5 27 -10 27 -5 0 -12 -12 -14 -27 l-4 -28 -2 28 c0 17 -7 27
-17 27 -13 0 -15 -7 -9 -42z"/>
<path d="M1262 1423 c3 -47 22 -69 31 -36 4 17 5 17 6 1 0 -10 5 -18 10 -18 5
0 9 23 9 50 0 49 -1 50 -30 50 -28 0 -29 -1 -26 -47z"/>
<path d="M1695 1423 c1 -26 6 -48 13 -51 7 -2 12 5 12 17 0 11 5 23 11 27 8 4
7 9 -2 16 -11 7 -11 11 -1 15 20 8 14 23 -11 23 -20 0 -22 -5 -22 -47z"/>
<path d="M1930 1451 c5 -11 10 -33 10 -50 0 -21 5 -31 15 -31 10 0 15 10 15
31 0 17 5 39 10 50 8 15 7 19 -4 19 -8 0 -17 -6 -19 -12 -4 -10 -6 -10 -6 0
-1 6 -8 12 -16 12 -12 0 -13 -4 -5 -19z"/>
<path d="M1074 1446 c-11 -30 0 -71 20 -71 11 0 21 6 24 14 3 9 0 12 -10 8
-11 -4 -15 1 -15 20 0 17 2 21 8 12 10 -17 23 -5 16 16 -8 19 -36 20 -43 1z"/>
<path d="M1130 1414 c0 -24 5 -44 10 -44 6 0 10 13 10 29 0 17 5 33 10 36 16
10 11 21 -10 22 -17 2 -20 -4 -20 -43z"/>
<path d="M1184 1447 c-3 -9 -4 -28 -2 -44 2 -20 8 -28 23 -28 17 0 20 7 20 40
0 30 -4 41 -18 43 -9 2 -20 -3 -23 -11z"/>
<path d="M1334 1446 c-11 -30 0 -71 20 -71 11 0 21 6 24 14 3 9 0 12 -10 8
-11 -4 -15 1 -15 20 0 17 2 21 8 12 10 -17 23 -5 16 16 -8 19 -36 20 -43 1z"/>
<path d="M1394 1446 c-3 -8 -4 -27 -2 -43 3 -31 34 -44 44 -18 9 21 -5 33 -16
15 -7 -11 -10 -7 -10 15 0 22 3 26 10 15 11 -18 25 -7 17 15 -8 19 -36 20 -43
1z"/>
<path d="M1488 1410 c-2 -35 1 -50 10 -50 6 0 12 5 12 10 0 6 6 9 13 8 8 -2
12 10 12 36 0 32 -4 40 -22 42 -19 3 -21 -2 -25 -46z"/>
<path d="M1554 1447 c-11 -31 0 -72 20 -72 11 0 21 6 24 14 3 9 0 12 -10 8
-11 -4 -15 1 -15 19 0 23 0 23 14 7 13 -17 13 -16 11 7 -3 28 -35 40 -44 17z"/>
<path d="M1613 1444 c-4 -10 1 -22 10 -29 21 -15 22 -26 2 -19 -8 4 -15 1 -15
-5 0 -20 31 -24 48 -7 16 16 15 18 -8 36 l-25 19 25 -6 c22 -6 24 -5 11 10
-17 22 -40 22 -48 1z"/>
<path d="M1785 1451 c-3 -2 -5 -19 -5 -37 0 -47 20 -54 21 -7 l2 38 6 -33 c3
-18 9 -33 14 -32 4 0 7 2 7 5 0 3 0 20 0 39 0 29 -4 34 -20 33 -12 -1 -23 -3
-25 -6z"/>
<path d="M1992 1448 c-17 -17 -15 -67 3 -74 21 -8 45 14 45 40 0 21 -17 46
-30 46 -3 0 -11 -5 -18 -12z"/>
<path d="M2050 1416 c0 -40 2 -43 25 -43 23 0 25 3 25 43 0 54 -17 58 -23 7
l-4 -38 -1 38 c-3 52 -22 47 -22 -7z"/>
<path d="M1450 1415 c0 -21 5 -35 13 -35 7 0 12 14 12 35 0 21 -5 35 -12 35
-8 0 -13 -14 -13 -35z"/>
<path d="M1750 1410 c0 -22 5 -40 10 -40 6 0 10 18 10 40 0 22 -4 40 -10 40
-5 0 -10 -18 -10 -40z"/>
</g>
</svg>
