<?xml version="1.0" standalone="no"?>
<!DOCTYPE svg PUBLIC "-//W3C//DTD SVG 20010904//EN"
 "http://www.w3.org/TR/2001/REC-SVG-20010904/DTD/svg10.dtd">
<svg version="1.0" xmlns="http://www.w3.org/2000/svg"
 width="768.000000pt" height="768.000000pt" viewBox="0 0 768.000000 768.000000"
 preserveAspectRatio="xMidYMid meet">

<g transform="translate(0.000000,768.000000) scale(0.100000,-0.100000)"
fill="#000000" stroke="none">
<path d="M1940 6819 c-136 -22 -310 -150 -370 -273 -41 -83 -56 -174 -40 -249
27 -134 127 -270 238 -324 51 -25 68 -28 157 -28 93 0 105 2 167 33 120 59
186 133 228 257 l17 50 28 -45 c60 -95 80 -151 80 -225 -1 -91 -27 -141 -100
-192 -42 -29 -76 -32 -156 -17 -87 16 -122 10 -154 -28 -32 -38 -34 -104 -4
-142 87 -111 308 -73 479 82 38 34 59 60 56 69 -3 8 -2 12 3 8 5 -3 18 7 28
22 58 83 80 188 64 294 -7 40 -14 75 -16 78 -3 2 -15 -4 -27 -15 l-23 -19 23
26 c21 24 21 28 8 65 -44 127 -169 318 -275 422 -82 80 -179 135 -270 152 -60
11 -64 11 -141 -1z m384 -216 c-16 -13 -50 -44 -76 -69 -27 -25 -48 -41 -48
-37 0 13 145 148 149 139 2 -4 -9 -19 -25 -33z m-264 -8 c14 -7 36 -25 49 -39
13 -14 29 -23 35 -19 6 3 8 3 4 -2 -4 -4 5 -28 20 -54 21 -37 27 -59 27 -108
0 -52 -4 -68 -30 -104 -17 -24 -53 -57 -80 -74 -41 -25 -58 -30 -111 -29 -56
0 -66 4 -102 35 -22 19 -52 53 -67 76 -15 24 -30 41 -34 39 -3 -2 -7 27 -9 64
-3 54 1 77 17 108 11 22 17 42 13 45 -4 2 -2 2 5 1 6 -2 17 4 23 11 21 25 82
58 119 66 41 8 85 2 121 -16z m-178 -432 c23 -20 23 -35 1 -31 -12 2 -17 -3
-15 -14 4 -22 -14 -24 -22 -3 -6 16 -36 21 -36 6 0 -5 7 -14 15 -21 25 -21 17
-32 -10 -13 -27 20 -33 51 -10 59 8 4 15 12 15 20 0 19 39 18 62 -3z m-147 -3
c-3 -6 1 -7 9 -4 21 8 22 -29 1 -46 -17 -14 -55 -4 -55 15 0 27 13 45 32 45
10 0 16 -4 13 -10z m825 -43 c0 -2 -10 -12 -22 -23 l-23 -19 19 23 c18 21 26
27 26 19z m-774 -32 c4 -8 10 -13 14 -10 4 3 10 -2 14 -10 10 -27 -11 -24 -39
5 -23 24 -25 30 -12 30 10 0 20 -7 23 -15z m-46 -20 c0 -7 -5 -15 -12 -17 -15
-5 -1 -28 17 -28 9 0 11 8 8 23 -5 21 -5 21 12 5 21 -20 13 -48 -13 -48 -10 0
-31 14 -48 31 -25 26 -26 30 -9 27 11 -1 20 3 21 10 3 22 4 23 14 17 6 -3 10
-12 10 -20z m733 -40 c-3 -9 -8 -14 -10 -11 -3 3 -2 9 2 15 9 16 15 13 8 -4z
m-255 -252 c-7 -10 -46 -49 -88 -88 l-75 -69 85 87 c86 89 100 101 78 70z"/>
<path d="M1842 6151 c2 -7 7 -12 11 -12 12 1 9 15 -3 20 -7 2 -11 -2 -8 -8z"/>
<path d="M1728 6133 c7 -3 16 -2 19 1 4 3 -2 6 -13 5 -11 0 -14 -3 -6 -6z"/>
<path d="M3620 5603 c-299 -47 -560 -178 -746 -375 -120 -127 -190 -265 -214
-421 -13 -87 -7 -140 22 -207 44 -102 127 -151 263 -158 89 -4 181 11 170 28
-3 4 4 6 15 3 12 -3 22 1 26 11 3 9 12 16 20 16 7 0 21 11 31 25 10 14 26 35
35 46 10 12 15 26 11 32 -3 5 -1 7 4 4 10 -6 40 50 35 66 -1 4 3 7 9 7 6 0 8
7 5 16 -3 8 -2 13 2 10 4 -2 27 34 51 80 59 115 124 185 214 229 195 95 479
61 612 -72 85 -84 127 -226 104 -350 -27 -146 -124 -261 -394 -466 -265 -202
-381 -331 -426 -476 -66 -213 -6 -388 156 -463 41 -19 67 -23 141 -23 78 1 98
5 147 29 69 33 108 79 143 165 89 221 111 248 357 423 284 202 397 305 491
447 96 147 130 260 129 436 -1 194 -40 332 -139 481 -157 238 -444 393 -834
450 -86 12 -377 17 -440 7z m967 -1009 c-2 -2 -12 -1 -22 3 -18 6 -18 7 1 13
17 7 33 -5 21 -16z m45 8 c8 3 22 0 33 -8 10 -8 14 -14 8 -14 -7 0 -15 5 -18
10 -4 7 -12 7 -24 0 -21 -11 -31 -4 -31 19 0 13 2 14 9 2 5 -8 15 -12 23 -9z
m-137 -12 c3 -5 1 -10 -4 -10 -6 0 -11 5 -11 10 0 6 2 10 4 10 3 0 8 -4 11
-10z m-40 -18 c-12 -9 -24 -25 -28 -34 -3 -10 -12 -18 -18 -18 -8 0 -7 5 2 18
31 40 43 52 53 52 6 -1 2 -8 -9 -18z m236 -25 c-10 -9 -11 -8 -5 6 3 10 9 15
12 12 3 -3 0 -11 -7 -18z m-250 -30 c-10 -9 -11 -8 -5 6 3 10 9 15 12 12 3 -3
0 -11 -7 -18z m272 6 c-4 -11 -3 -14 5 -9 7 4 12 3 12 -3 0 -5 -4 -12 -9 -15
-11 -7 -23 22 -15 35 9 15 14 10 7 -8z m-85 -8 c3 -3 -9 -4 -26 -2 -18 2 -35
6 -38 10 -3 3 8 4 26 2 18 -3 35 -7 38 -10z m109 -72 c-3 -10 -5 -2 -5 17 0
19 2 27 5 18 2 -10 2 -26 0 -35z m-233 10 c4 -9 2 -21 -4 -27 -8 -8 -9 -6 -4
8 5 13 4 17 -4 12 -7 -4 -12 -1 -12 8 0 21 16 20 24 -1z m-93 -16 c-10 -9 -11
-8 -5 6 3 10 9 15 12 12 3 -3 0 -11 -7 -18z m24 -67 c3 -5 1 -10 -4 -10 -6 0
-11 5 -11 10 0 6 2 10 4 10 3 0 8 -4 11 -10z m219 -2 c-9 -23 -52 -49 -60 -36
-4 6 -3 8 3 5 13 -8 36 17 25 28 -4 5 -2 5 5 1 6 -3 14 -2 18 4 9 14 15 13 9
-2z m-127 -54 c-3 -3 -12 -4 -19 -1 -8 3 -5 6 6 6 11 1 17 -2 13 -5z"/>
<path d="M713 5259 c-18 -5 -33 -15 -33 -21 0 -6 -3 -9 -6 -5 -9 9 -54 -17
-95 -55 -93 -87 -157 -235 -166 -385 -4 -65 -3 -93 5 -93 20 0 36 -40 21 -54
-9 -8 -10 -8 -6 0 4 7 1 17 -6 23 -11 8 -13 4 -9 -19 2 -17 9 -27 15 -23 6 3
7 1 3 -5 -4 -6 2 -29 13 -51 47 -92 150 -154 256 -155 65 0 159 29 148 47 -4
6 -1 7 6 2 7 -4 22 2 36 15 l23 22 6 -31 c3 -17 9 -45 12 -61 3 -18 10 -27 16
-24 7 4 8 2 4 -5 -17 -26 110 -148 141 -136 8 2 12 1 9 -4 -10 -15 86 -36 164
-36 61 0 86 6 135 28 33 16 74 42 92 59 l32 31 -22 23 c-28 29 -59 115 -46
129 5 5 9 16 8 25 0 10 -3 9 -9 -5 -8 -18 -9 -17 -9 7 -1 17 4 27 12 25 6 -1
11 4 10 10 -8 38 100 103 165 100 l41 -3 7 55 c12 100 -35 295 -67 275 -8 -5
-9 -3 -4 5 10 17 -56 85 -110 112 -22 12 -60 28 -85 35 -89 27 -230 11 -230
-27 0 -10 -4 -20 -9 -23 -5 -4 -7 4 -3 16 l5 22 -28 -22 c-38 -30 -52 -53 -50
-79 1 -12 -2 -20 -7 -17 -5 4 -7 12 -4 20 6 17 2 17 -27 3 -20 -9 -20 -9 -4 4
23 19 22 32 -8 92 -27 57 -48 82 -89 109 -24 15 -28 16 -23 3 4 -11 2 -14 -7
-11 -8 3 -21 -5 -30 -17 -12 -18 -18 -21 -28 -11 -9 9 -9 12 0 12 9 0 10 5 2
19 -14 26 8 41 26 17 12 -17 31 -5 20 13 -16 26 -150 38 -213 20z m297 -111
c0 -12 -6 -9 -26 13 -19 22 -19 22 4 8 12 -8 22 -17 22 -21z m-165 -25 c-40
-34 -50 -37 -39 -10 3 9 12 13 20 10 8 -3 14 1 14 9 0 19 21 39 33 31 6 -4 -6
-21 -28 -40z m-230 27 c-3 -5 -14 -10 -23 -9 -14 0 -13 2 3 9 27 11 27 11 20
0z m-62 -45 c-3 -9 -8 -14 -10 -11 -3 3 -2 9 2 15 9 16 15 13 8 -4z m929 -33
c8 -6 19 -8 24 -4 4 4 2 -1 -5 -10 -10 -14 -18 -15 -35 -7 -20 9 -20 9 -3 -5
18 -14 18 -16 1 -41 -20 -30 -43 -20 -26 12 12 21 11 41 -1 61 -10 15 25 11
45 -6z m-928 0 c3 -5 -1 -9 -9 -9 -8 0 -12 4 -9 9 3 4 7 8 9 8 2 0 6 -4 9 -8z
m239 1 c-18 -7 -16 -21 5 -26 12 -3 13 -5 2 -6 -8 0 -22 4 -30 9 -13 9 -13 11
0 20 8 5 20 9 25 9 6 0 4 -3 -2 -6z m-49 -44 c-4 -7 0 -9 14 -5 12 4 40 2 64
-5 24 -6 48 -12 55 -12 7 0 11 -5 10 -10 -1 -5 4 -12 12 -15 9 -3 11 0 6 8 -5
9 -4 11 4 6 6 -4 9 -11 6 -15 -2 -5 3 -24 12 -42 10 -19 17 -55 17 -82 -1 -29
2 -43 7 -35 6 9 9 9 9 1 0 -7 -7 -16 -16 -21 -9 -5 -16 -13 -16 -18 -2 -18
-28 -73 -38 -79 -6 -4 -8 -11 -5 -16 4 -5 0 -9 -8 -9 -8 0 -21 -7 -28 -16 -12
-15 -11 -16 11 -9 14 4 21 4 17 -1 -5 -5 -36 -10 -70 -11 -77 -4 -138 17 -172
60 -16 21 -23 25 -19 12 4 -12 3 -17 -2 -12 -5 5 -9 52 -10 105 -1 104 1 111
75 176 13 11 31 29 40 39 17 19 36 24 25 6z m208 -6 c-5 -10 -6 -27 -1 -38 10
-26 11 -45 2 -45 -5 0 -9 12 -10 27 0 15 -6 29 -11 31 -6 2 -4 11 6 23 20 24
25 24 14 2z m-297 -13 c-1 -11 -4 -22 -7 -25 -4 -5 -4 34 1 43 4 8 7 -1 6 -18z
m855 10 c0 -5 -5 -10 -11 -10 -5 0 -7 5 -4 10 3 6 8 10 11 10 2 0 4 -4 4 -10z
m-107 -25 c-3 -9 -8 -14 -10 -11 -3 3 -2 9 2 15 9 16 15 13 8 -4z m186 -3 c0
-10 -3 -12 -5 -5 -3 7 -12 9 -20 6 -8 -3 -14 -1 -14 4 0 5 9 9 20 10 13 1 20
-4 19 -15z m-99 -2 c0 -5 -5 -10 -11 -10 -5 0 -7 5 -4 10 3 6 8 10 11 10 2 0
4 -4 4 -10z m-57 -14 c4 -10 1 -13 -9 -9 -7 3 -14 1 -14 -3 0 -5 -11 -22 -24
-37 -16 -19 -27 -24 -31 -16 -5 7 6 25 26 45 39 37 45 40 52 20z m-957 -24
c-3 -5 14 -27 37 -49 40 -38 44 -39 65 -25 19 13 22 13 22 -1 0 -8 -10 -17
-21 -20 -20 -5 -21 -7 -5 -23 9 -9 14 -19 11 -22 -3 -4 -10 0 -15 8 -7 12 -12
12 -28 -3 -17 -15 -20 -16 -25 -3 -3 8 1 17 10 20 14 6 12 11 -12 36 -15 16
-31 27 -35 25 -4 -3 -14 3 -21 13 -13 15 -12 16 4 3 10 -8 17 -9 17 -3 0 6 -8
16 -17 21 -16 9 -16 12 -3 21 18 12 23 13 16 2z m1158 -18 c3 -8 2 -12 -4 -9
-6 3 -10 10 -10 16 0 14 7 11 14 -7z m-15 -18 c9 -10 8 -15 -2 -19 -8 -3 -13
3 -13 14 0 23 0 23 15 5z m-349 -10 c0 -2 -7 -7 -16 -10 -8 -3 -12 -2 -9 4 6
10 25 14 25 6z m43 -3 c-7 -2 -19 -2 -25 0 -7 3 -2 5 12 5 14 0 19 -2 13 -5z
m37 -3 c0 -5 -4 -10 -10 -10 -5 0 -10 5 -10 10 0 6 5 10 10 10 6 0 10 -4 10
-10z m309 -45 c0 -5 -4 -3 -9 5 -5 8 -9 22 -9 30 0 16 17 -16 18 -35z m-287
22 c9 -1 14 -5 12 -9 -8 -13 11 -9 26 5 12 10 12 9 2 -4 -10 -13 -7 -20 14
-40 46 -43 57 -75 50 -153 -9 -101 -9 -105 -18 -100 -4 3 -8 -1 -8 -8 0 -8
-13 -29 -29 -48 -26 -32 -32 -68 -8 -53 6 4 7 1 2 -7 -6 -10 -11 -10 -20 4
-11 14 -16 14 -39 3 -14 -8 -24 -16 -21 -18 2 -3 -26 -1 -63 4 -37 5 -78 9
-91 9 -15 0 -20 3 -12 8 14 8 -13 24 -39 22 -11 -1 -11 0 -2 4 10 5 10 10 -4
25 -9 10 -20 17 -23 14 -4 -2 -7 4 -8 13 -1 9 -8 41 -15 70 -11 46 -10 59 7
110 23 66 85 136 137 151 18 6 56 8 83 5 28 -3 58 -6 67 -7z m-215 -11 c0 -8
-6 -12 -14 -9 -7 3 -10 9 -7 14 8 14 21 11 21 -5z m317 2 c-3 -4 1 -8 8 -8 10
0 10 -2 -1 -9 -18 -12 -3 -34 18 -26 13 5 14 4 3 -7 -11 -11 -17 -9 -32 10
-11 13 -24 21 -29 18 -5 -4 -12 -2 -16 4 -3 5 3 10 15 10 12 0 19 4 16 8 -3 5
1 9 9 9 8 0 12 -4 9 -9z m10 -77 c-2 -3 -12 3 -22 13 -16 17 -16 18 5 5 12 -7
20 -15 17 -18z m-917 -13 c-3 -8 -6 -5 -6 6 -1 11 2 17 5 13 3 -3 4 -12 1 -19z
m391 -13 c0 -14 -5 -25 -10 -25 -5 0 -6 -6 -1 -12 4 -7 9 -22 10 -33 3 -19 2
-19 -11 -2 -12 15 -14 43 -6 55 3 3 7 19 9 32 2 20 9 9 9 -15z m-485 9 c3 -3
1 -18 -4 -33 -8 -23 -8 -24 5 -8 16 20 36 22 36 3 0 -22 -26 -38 -57 -34 -23
2 -29 9 -31 32 -4 35 29 61 51 40z m1034 -24 c-2 -23 -10 -17 -12 10 -1 10 2
17 6 14 4 -2 7 -13 6 -24z m-437 -40 c0 -5 -7 -7 -15 -4 -8 4 -15 8 -15 10 0
2 7 4 15 4 8 0 15 -4 15 -10z m-146 -16 c3 -8 2 -12 -4 -9 -6 3 -10 10 -10 16
0 14 7 11 14 -7z m133 -36 c-3 -8 -6 -5 -6 6 -1 11 2 17 5 13 3 -3 4 -12 1
-19z m-372 -8 c3 -5 -4 -6 -15 -3 -11 3 -22 9 -25 13 -3 5 4 6 15 3 11 -3 22
-9 25 -13z m815 -50 c0 -5 -5 -10 -11 -10 -5 0 -7 5 -4 10 3 6 8 10 11 10 2 0
4 -4 4 -10z m-422 -55 c0 -14 -5 -28 -11 -32 -6 -3 -7 -1 -3 5 4 7 3 12 -2 12
-5 0 -9 7 -9 15 0 8 4 12 9 9 4 -3 8 0 8 5 0 6 2 11 4 11 2 0 4 -11 4 -25z
m-535 0 c-3 -9 -8 -14 -10 -11 -3 3 -2 9 2 15 9 16 15 13 8 -4z m-10 -31 c7 1
9 1 4 -1 -4 -3 -4 -10 0 -16 4 -7 -1 -6 -10 2 -9 7 -17 19 -16 25 0 7 2 7 5
-1 3 -7 11 -11 17 -9z m372 -2 c-3 -3 -11 0 -18 7 -9 10 -8 11 6 5 10 -3 15
-9 12 -12z m-271 -42 c-9 -8 -73 -7 -68 2 3 4 20 7 39 5 18 -1 31 -4 29 -7z
m504 -25 c-3 -3 -9 2 -12 12 -6 14 -5 15 5 6 7 -7 10 -15 7 -18z m248 0 c4
-10 14 -14 28 -10 20 6 20 5 2 -6 -16 -10 -22 -9 -32 5 -9 13 -13 14 -17 4 -4
-8 -6 -7 -6 5 -1 21 17 23 25 2z m-676 -15 c0 -5 -5 -10 -11 -10 -5 0 -7 5 -4
10 3 6 8 10 11 10 2 0 4 -4 4 -10z m247 -12 c-3 -8 -6 -5 -6 6 -1 11 2 17 5
13 3 -3 4 -12 1 -19z m490 -7 c0 -11 -5 -18 -9 -15 -4 3 -5 11 -1 19 7 21 12
19 10 -4z m-407 -22 c0 -6 -8 -8 -17 -5 -15 5 -15 4 1 -9 11 -8 14 -15 7 -15
-7 0 -10 -4 -6 -9 3 -5 1 -12 -4 -15 -5 -4 -8 2 -7 11 2 10 -1 21 -7 24 -5 4
-6 12 -3 18 9 14 36 14 36 0z m464 -81 c-3 -5 -13 -7 -21 -4 -11 4 -13 2 -9
-9 8 -22 -2 -18 -15 6 -8 15 -8 19 0 15 6 -4 14 0 17 9 5 12 10 13 20 4 8 -6
11 -16 8 -21z m-474 2 c0 -5 -7 -7 -15 -4 -8 4 -15 8 -15 10 0 2 7 4 15 4 8 0
15 -4 15 -10z m343 -5 c-3 -9 -8 -14 -10 -11 -3 3 -2 9 2 15 9 16 15 13 8 -4z
m47 11 c0 -2 -7 -7 -16 -10 -8 -3 -12 -2 -9 4 6 10 25 14 25 6z m-310 -16 c8
-5 11 -10 5 -10 -5 0 -17 5 -25 10 -8 5 -10 10 -5 10 6 0 17 -5 25 -10z m-25
-20 c-3 -5 -11 -10 -16 -10 -6 0 -7 5 -4 10 3 6 11 10 16 10 6 0 7 -4 4 -10z
m365 -8 c-8 -3 -21 -11 -28 -19 -7 -7 -19 -13 -25 -13 -8 0 -7 3 2 9 7 5 11
13 8 17 -3 5 9 10 26 11 18 0 25 -1 17 -5z"/>
<path d="M1460 5076 c0 -2 8 -10 18 -17 15 -13 16 -12 3 4 -13 16 -21 21 -21
13z"/>
<path d="M6768 5263 c6 -2 18 -2 25 0 6 3 1 5 -13 5 -14 0 -19 -2 -12 -5z"/>
<path d="M6716 5252 c-2 -4 4 -9 15 -9 10 -1 19 2 19 8 0 11 -27 12 -34 1z"/>
<path d="M7045 5191 c-3 -5 -2 -12 3 -15 5 -3 9 1 9 9 0 17 -3 19 -12 6z"/>
<path d="M6671 5154 c0 -11 3 -14 6 -6 3 7 2 16 -1 19 -3 4 -6 -2 -5 -13z"/>
<path d="M6390 4931 c0 -5 7 -12 16 -15 14 -5 15 -4 4 9 -14 17 -20 19 -20 6z"/>
<path d="M6520 4836 c0 -2 8 -10 18 -17 15 -13 16 -12 3 4 -13 16 -21 21 -21
13z"/>
<path d="M5976 4817 c3 -10 9 -15 12 -12 3 3 0 11 -7 18 -10 9 -11 8 -5 -6z"/>
<path d="M7261 4814 c0 -11 3 -14 6 -6 3 7 2 16 -1 19 -3 4 -6 -2 -5 -13z"/>
<path d="M6576 4782 c-3 -5 1 -9 9 -9 8 0 12 4 9 9 -3 4 -7 8 -9 8 -2 0 -6 -4
-9 -8z"/>
<path d="M6201 4764 c0 -11 3 -14 6 -6 3 7 2 16 -1 19 -3 4 -6 -2 -5 -13z"/>
<path d="M6020 4653 c0 -5 5 -15 10 -23 7 -12 9 -10 7 8 -1 19 -17 33 -17 15z"/>
<path d="M6828 4613 c7 -3 16 -2 19 1 4 3 -2 6 -13 5 -11 0 -14 -3 -6 -6z"/>
<path d="M6040 4591 c0 -6 4 -13 10 -16 6 -3 7 1 4 9 -7 18 -14 21 -14 7z"/>
<path d="M1593 4564 c-3 -8 -12 -13 -20 -9 -11 4 -13 1 -9 -10 3 -10 2 -13 -4
-10 -16 10 -42 -64 -36 -100 7 -36 40 -73 51 -56 8 13 -3 33 -14 26 -5 -2 -8
22 -7 55 0 33 2 58 4 55 2 -2 19 7 38 20 20 13 42 21 50 18 8 -3 14 1 14 9 0
20 -59 22 -67 2z"/>
<path d="M7205 4540 c-3 -6 1 -7 9 -4 18 7 21 14 7 14 -6 0 -13 -4 -16 -10z"/>
<path d="M1610 4486 c-6 -8 -10 -25 -8 -37 3 -19 5 -17 20 14 18 37 11 50 -12
23z"/>
<path d="M6301 4450 c0 -8 4 -22 9 -30 12 -18 12 -2 0 25 -6 13 -9 15 -9 5z"/>
<path d="M7120 4440 c-9 -6 -10 -10 -3 -10 6 0 15 5 18 10 8 12 4 12 -15 0z"/>
<path d="M6710 4426 c7 -7 13 -7 20 0 6 6 3 10 -10 10 -13 0 -16 -4 -10 -10z"/>
<path d="M6988 4383 c7 -3 16 -2 19 1 4 3 -2 6 -13 5 -11 0 -14 -3 -6 -6z"/>
<path d="M6898 4373 c12 -2 32 -2 45 0 12 2 2 4 -23 4 -25 0 -35 -2 -22 -4z"/>
<path d="M6137 4300 c3 -11 9 -22 13 -25 5 -3 6 4 3 15 -3 11 -9 22 -13 25 -5
3 -6 -4 -3 -15z"/>
<path d="M6315 4160 c-3 -6 1 -7 9 -4 18 7 21 14 7 14 -6 0 -13 -4 -16 -10z"/>
<path d="M6228 4143 c7 -3 16 -2 19 1 4 3 -2 6 -13 5 -11 0 -14 -3 -6 -6z"/>
<path d="M6280 3448 c-73 -28 -156 -112 -198 -198 l-31 -65 54 -24 c47 -20 58
-31 80 -74 33 -67 33 -121 -1 -170 -30 -45 -41 -43 -25 5 31 96 6 160 -75 194
-44 18 -51 18 -57 -6 -4 -17 -1 -20 24 -18 54 4 107 -71 95 -136 -7 -38 -60
-92 -101 -102 -31 -8 -31 -20 1 -88 34 -72 104 -139 184 -178 58 -28 75 -32
155 -32 68 -1 98 3 122 17 36 19 83 63 83 77 0 22 20 8 26 -17 11 -45 42 -100
71 -128 88 -83 245 -105 355 -49 71 35 175 163 193 237 6 24 4 27 -18 27 -14
0 -27 7 -31 15 -7 19 3 45 16 45 6 0 5 7 -2 15 -21 25 -4 28 19 4 12 -13 21
-19 22 -13 0 5 4 0 9 -11 9 -20 9 -20 9 1 1 11 -4 25 -9 30 -7 7 -4 18 10 34
24 28 26 77 5 174 -19 90 -56 150 -113 187 -84 53 -144 49 -182 -13 -26 -43
-25 -88 3 -126 12 -17 38 -53 57 -79 31 -43 35 -55 34 -108 -1 -126 -100 -227
-196 -200 -86 24 -124 73 -115 145 21 167 22 157 -8 184 -15 14 -43 28 -62 32
-30 6 -39 2 -69 -27 -22 -21 -33 -41 -30 -51 2 -10 0 -16 -5 -12 -5 3 -14 -7
-19 -21 -17 -45 -60 -93 -92 -104 -114 -40 -248 56 -248 177 0 86 59 189 124
216 18 8 56 17 84 21 29 4 63 16 76 26 25 19 48 79 41 102 -2 7 -6 25 -9 40
-15 66 -142 88 -256 45z m350 -572 c0 -2 -8 -10 -17 -17 -16 -13 -17 -12 -4 4
13 16 21 21 21 13z m525 -235 c-6 -5 -25 10 -25 20 0 5 6 4 14 -3 8 -7 12 -15
11 -17z m-745 9 c0 -5 -5 -10 -11 -10 -5 0 -7 5 -4 10 3 6 8 10 11 10 2 0 4
-4 4 -10z"/>
<path d="M398 3214 c-63 -33 -62 -70 3 -277 129 -415 190 -587 216 -607 65
-51 173 -1 173 79 0 22 -39 157 -89 312 -50 150 -89 275 -87 276 1 2 45 -14
97 -36 177 -72 408 -120 614 -127 l131 -5 -1 28 c0 18 6 29 18 31 13 3 17 -3
17 -24 0 -27 -1 -27 -15 -8 -16 21 -21 8 -6 -15 8 -12 13 -12 37 4 24 15 26
15 21 1 -8 -21 13 -21 80 -1 59 18 103 62 103 103 0 41 -11 72 -23 65 -5 -3
-7 -1 -4 5 11 17 -4 42 -35 58 -27 14 -54 14 -226 4 -346 -21 -553 9 -823 116
-94 37 -156 43 -201 18z m1262 -199 c13 -14 19 -25 13 -25 -6 0 -16 7 -23 15
-13 15 -40 21 -40 8 0 -4 10 -18 23 -32 l22 -25 -27 17 c-33 21 -38 21 -38 2
0 -7 7 -18 16 -23 11 -6 13 -12 6 -16 -10 -6 -42 29 -42 47 0 13 43 57 56 57
6 0 21 -11 34 -25z m-85 -85 c10 -11 13 -20 7 -20 -6 0 -14 5 -17 10 -3 6 -15
10 -26 10 -27 0 -19 -24 9 -28 32 -5 27 -24 -5 -20 -17 2 -29 10 -31 21 -9 47
30 63 63 27z m-997 -270 c-7 -11 -17 -20 -22 -20 -5 0 -1 9 9 20 10 11 20 20
22 20 2 0 -2 -9 -9 -20z"/>
<path d="M6010 2999 c0 -31 4 -48 10 -44 6 3 10 15 10 26 0 12 7 19 20 19 14
0 20 -7 20 -23 0 -28 -17 -47 -42 -47 -12 0 -18 -7 -18 -21 0 -15 4 -19 16
-15 9 3 19 6 23 6 4 0 17 9 29 20 45 43 16 130 -43 130 -23 0 -25 -3 -25 -51z"/>
<path d="M3690 2839 c-154 -30 -283 -162 -311 -319 -46 -261 195 -500 457
-451 131 24 236 101 295 218 32 63 34 73 34 167 0 89 -3 108 -27 158 -52 112
-165 202 -286 227 -60 13 -98 13 -162 0z"/>
<path d="M7204 2766 c-9 -24 12 -44 28 -28 10 10 8 16 -5 29 -15 15 -17 15
-23 -1z"/>
<path d="M2100 2076 c-79 -21 -140 -59 -200 -122 -94 -101 -136 -212 -120
-319 4 -27 8 -43 9 -35 4 35 31 -25 29 -66 -2 -51 25 -98 90 -155 79 -70 154
-102 250 -107 45 -2 82 -8 82 -13 0 -22 -131 -141 -181 -164 -91 -42 -187 -29
-252 33 -40 38 -45 51 -57 130 -13 91 -25 118 -65 137 -37 17 -49 19 -41 7 3
-5 -1 -9 -9 -9 -8 0 -12 4 -9 9 3 4 -2 8 -10 8 -34 0 -67 -26 -87 -67 -70
-145 93 -374 328 -459 73 -27 222 -24 292 5 121 50 252 164 370 321 127 170
184 337 162 472 -16 96 -52 161 -135 243 -134 132 -304 190 -446 151z m241
-239 c53 -28 106 -94 115 -144 15 -77 -40 -189 -117 -240 -92 -61 -219 -29
-286 71 -26 37 -33 59 -33 95 0 84 64 184 145 225 45 24 124 20 176 -7z"/>
<path d="M5710 1967 c-14 -7 -107 -73 -208 -146 -101 -73 -185 -131 -186 -130
-2 2 -22 31 -46 64 -24 33 -60 77 -79 98 -30 32 -41 37 -79 37 -39 0 -50 -5
-88 -44 -71 -71 -62 -101 87 -292 5 -6 -11 -24 -42 -48 -59 -44 -74 -75 -59
-122 26 -79 97 -95 175 -39 27 19 52 31 56 27 4 -4 52 -70 108 -147 312 -429
308 -425 368 -425 36 0 110 45 127 78 15 28 23 137 31 417 2 83 7 245 11 361
6 191 5 214 -11 248 -31 66 -105 94 -165 63z m4 -531 l-7 -286 -27 38 c-15 20
-75 104 -135 185 -65 91 -104 152 -98 158 18 18 268 197 271 194 2 -2 0 -132
-4 -289z m41 -166 c10 -11 16 -20 13 -20 -3 0 -13 9 -23 20 -10 11 -16 20 -13
20 3 0 13 -9 23 -20z"/>
<path d="M3711 1520 c-169 -45 -281 -159 -311 -319 -39 -207 40 -383 205 -462
139 -66 314 -61 416 12 17 12 32 19 34 17 4 -4 -24 -169 -40 -245 l-5 -23
-251 0 -251 0 -29 -29 c-24 -24 -29 -38 -29 -76 0 -110 16 -115 377 -115 268
0 290 1 320 20 17 10 37 28 43 40 19 36 91 480 87 533 -6 64 -38 97 -99 104
-38 4 -58 -1 -134 -38 -81 -40 -94 -44 -164 -43 -145 1 -230 81 -230 216 1
138 111 238 250 225 68 -6 90 -19 181 -111 48 -48 61 -56 93 -56 68 0 126 56
126 121 0 62 -75 156 -161 199 -99 51 -294 64 -428 30z"/>
</g>
</svg>
