<?xml version="1.0" standalone="no"?>
<!DOCTYPE svg PUBLIC "-//W3C//DTD SVG 20010904//EN"
 "http://www.w3.org/TR/2001/REC-SVG-20010904/DTD/svg10.dtd">
<svg version="1.0" xmlns="http://www.w3.org/2000/svg"
 width="2000.000000pt" height="1500.000000pt" viewBox="0 0 2000.000000 1500.000000"
 preserveAspectRatio="xMidYMid meet">

<g transform="translate(0.000000,1500.000000) scale(0.100000,-0.100000)"
fill="#000000" stroke="none">
<path d="M9343 9586 c-368 -70 -612 -324 -678 -705 -19 -109 -19 -334 0 -447
72 -425 317 -663 657 -640 235 16 358 144 358 373 l0 63 59 0 59 0 4 -137 c3
-118 7 -144 26 -180 34 -65 87 -95 177 -101 92 -6 150 13 194 64 49 55 53 86
49 437 -4 364 -9 388 -78 450 -52 48 -105 57 -328 57 -205 0 -235 -7 -275 -62
-29 -39 -34 -125 -11 -173 29 -62 62 -75 187 -75 122 0 119 4 91 -91 -21 -70
-86 -136 -164 -164 -79 -29 -241 -27 -325 3 -121 44 -211 131 -250 242 -25 69
-30 212 -11 293 64 270 251 354 627 281 74 -14 170 -26 214 -27 105 -2 141 18
184 105 58 115 37 250 -49 318 -56 44 -154 87 -245 105 -109 23 -377 29 -472
11z"/>
<path d="M11170 9594 c-73 -13 -171 -40 -222 -60 -176 -69 -326 -210 -417
-391 -116 -233 -132 -611 -37 -891 65 -189 186 -340 327 -407 189 -90 446 -64
554 57 53 58 76 117 88 229 l11 99 58 0 58 0 0 -132 c0 -150 13 -193 68 -240
45 -37 94 -51 170 -46 129 8 185 60 204 190 6 43 8 182 5 343 -4 223 -7 279
-22 320 -25 71 -52 105 -104 129 -41 19 -68 21 -257 24 -231 4 -267 -2 -299
-52 -46 -70 -36 -175 21 -226 34 -30 36 -30 149 -30 63 0 115 -3 115 -7 0 -5
-7 -32 -14 -62 -29 -107 -90 -164 -211 -195 -73 -20 -140 -20 -226 -2 -260 56
-380 268 -317 561 25 118 100 215 201 260 53 24 78 29 173 33 92 4 134 0 250
-23 177 -35 276 -37 324 -9 103 60 142 249 73 348 -57 80 -146 129 -297 162
-69 15 -372 28 -426 18z"/>
<path d="M14703 9585 c-208 -38 -400 -150 -510 -298 -61 -83 -128 -224 -153
-322 -52 -204 -43 -497 21 -695 115 -354 385 -532 703 -465 83 18 141 50 193
109 49 55 73 126 80 234 l6 82 58 0 59 0 0 -118 c0 -146 16 -208 65 -251 42
-36 90 -51 170 -51 112 1 184 56 205 158 15 69 8 643 -8 693 -19 58 -54 102
-102 129 -44 25 -48 25 -275 25 -205 0 -233 -2 -257 -18 -83 -57 -75 -229 13
-274 15 -8 66 -13 132 -13 l109 0 -7 -41 c-23 -132 -103 -205 -255 -231 -142
-24 -313 25 -405 117 -71 71 -107 156 -113 271 -8 163 31 288 118 375 98 98
263 123 511 76 248 -47 303 -45 367 16 67 64 94 215 53 296 -70 137 -284 213
-596 210 -60 0 -142 -7 -182 -14z"/>
<path d="M12894 9571 c-101 -25 -193 -106 -256 -227 -36 -69 -392 -1066 -422
-1181 -32 -121 -14 -228 46 -290 44 -45 115 -68 213 -68 152 0 237 69 251 201
4 40 1 79 -10 120 -21 81 -20 110 4 134 19 19 33 20 290 20 257 0 271 -1 290
-20 24 -24 25 -69 5 -153 -21 -90 1 -193 52 -239 45 -41 115 -62 203 -62 99 0
148 14 197 57 49 43 63 82 63 174 0 101 -4 116 -210 703 -187 537 -207 588
-269 678 -54 80 -103 118 -180 142 -65 21 -203 26 -267 11z m175 -490 c18 -18
151 -408 167 -490 l7 -31 -232 0 c-217 0 -232 1 -227 18 136 444 151 488 179
507 30 21 83 19 106 -4z"/>
<path d="M5616 9556 c-51 -19 -92 -60 -111 -110 -14 -36 -15 -122 -13 -696 3
-587 5 -660 21 -706 39 -117 107 -179 229 -210 65 -17 115 -19 458 -19 347 0
390 2 440 18 71 24 115 58 143 110 19 35 22 58 22 142 0 88 -3 105 -25 144
-34 60 -84 97 -155 116 -133 34 -236 13 -432 -90 -165 -86 -199 -92 -237 -42
-21 28 -21 39 -26 631 l-5 602 -25 37 c-37 54 -90 80 -174 84 -45 2 -85 -2
-110 -11z"/>
<path d="M7126 9555 c-58 -21 -88 -46 -114 -96 l-23 -44 4 -535 c3 -510 4
-539 24 -611 66 -237 204 -370 452 -437 85 -22 115 -25 261 -25 137 0 178 3
243 21 231 63 373 204 434 432 16 58 18 120 18 590 l0 525 -24 53 c-45 100
-140 151 -256 139 -134 -14 -214 -103 -223 -248 -6 -99 9 -180 63 -349 58
-182 89 -345 82 -432 -13 -156 -99 -253 -243 -277 -152 -24 -280 41 -341 173
l-28 61 -5 465 c-5 429 -6 468 -24 503 -10 20 -32 47 -48 58 -65 47 -176 61
-252 34z"/>
<path d="M15905 9546 c-73 -33 -115 -110 -115 -214 0 -167 84 -252 249 -252
34 0 39 -3 44 -29 3 -16 9 -39 12 -53 5 -20 1 -25 -29 -36 -55 -20 -132 -107
-176 -197 -55 -112 -71 -181 -77 -330 -14 -334 84 -524 306 -591 92 -27 235
-36 542 -31 323 4 344 7 420 56 57 36 89 98 96 185 11 131 -35 224 -135 273
-51 25 -67 28 -157 28 -129 -1 -191 -19 -376 -107 -164 -79 -197 -83 -233 -35
-19 26 -21 43 -24 238 -2 153 0 209 8 209 7 0 107 -23 223 -51 253 -61 367
-69 450 -31 111 50 114 209 4 270 -25 13 -55 17 -142 16 -96 -2 -136 -8 -315
-53 -112 -28 -211 -51 -219 -51 -11 0 -13 25 -9 146 6 162 13 183 79 216 30
16 68 18 338 18 334 0 364 4 416 55 52 53 71 164 41 248 -18 50 -42 76 -91 98
-37 17 -77 19 -570 18 -421 0 -536 -3 -560 -13z"/>
<path d="M3180 8872 c0 -3 134 -280 297 -615 163 -335 296 -615 296 -621 0 -6
-151 -278 -336 -605 -186 -327 -336 -595 -335 -596 2 -1 306 41 676 93 370 52
678 92 686 89 7 -3 220 -231 472 -506 252 -275 459 -499 461 -497 2 1 13 54
24 117 18 97 20 123 10 175 -6 34 -11 124 -11 200 0 78 -4 132 -9 124 -4 -8
-21 -88 -36 -178 -16 -89 -32 -161 -37 -160 -4 2 -195 210 -425 463 l-417 460
-41 -2 c-22 -2 -303 -39 -625 -82 -321 -44 -586 -78 -588 -76 -2 2 136 247
307 545 171 298 311 546 311 551 0 14 -510 1073 -523 1086 -13 12 -157 44
-157 35z"/>
<path d="M6347 7478 c-351 -158 -359 -162 -353 -187 3 -14 9 -54 12 -88 4 -35
10 -63 13 -63 20 0 869 395 865 402 -4 6 -125 73 -174 95 -3 1 -166 -70 -363
-159z"/>
<path d="M8275 7409 c-193 -15 -346 -71 -441 -161 -66 -63 -98 -121 -114 -209
-16 -89 -5 -175 32 -250 66 -133 212 -204 626 -309 187 -47 240 -68 282 -116
57 -66 31 -157 -54 -189 -37 -14 -66 -17 -153 -13 -100 5 -119 9 -248 58 -182
68 -227 80 -303 80 -73 0 -124 -19 -170 -63 -58 -56 -77 -102 -77 -192 0 -69
4 -86 27 -127 157 -266 832 -378 1190 -197 71 36 156 117 188 178 44 88 61
236 39 343 -41 193 -197 294 -609 395 -309 75 -360 102 -360 190 0 38 5 50 33
78 45 45 100 58 222 52 75 -3 131 -14 225 -42 177 -52 220 -58 286 -45 102 21
153 92 154 213 0 82 -20 126 -81 181 -82 74 -247 132 -408 141 -48 3 -108 7
-136 9 -27 2 -95 -1 -150 -5z"/>
<path d="M7154 7401 c-54 -14 -103 -51 -132 -99 l-27 -47 -3 -715 c-2 -518 0
-726 8 -755 27 -93 104 -146 212 -147 104 0 181 44 219 127 18 38 19 80 19
755 0 698 -1 716 -21 760 -25 56 -44 77 -91 101 -43 22 -138 32 -184 20z"/>
<path d="M5605 7381 c-51 -23 -93 -68 -105 -112 -14 -47 -13 -1244 1 -1329 26
-159 97 -237 251 -276 82 -20 625 -31 778 -16 135 14 201 45 244 115 26 42 30
61 34 136 4 74 1 95 -18 139 -43 100 -135 152 -266 152 -117 0 -201 -29 -403
-139 -77 -42 -108 -49 -143 -30 -47 25 -48 40 -48 656 0 542 -2 581 -19 619
-31 69 -101 104 -205 104 -38 0 -76 -7 -101 -19z"/>
<path d="M9407 7386 c-96 -26 -150 -108 -151 -226 -1 -100 29 -161 99 -205 42
-26 60 -30 133 -34 100 -4 142 7 214 55 79 53 103 64 146 64 33 0 41 -4 59
-37 l21 -37 -39 -75 c-70 -133 -70 -139 -76 -601 -7 -530 -3 -554 105 -617 41
-24 58 -28 127 -28 69 0 86 4 127 28 29 17 57 44 73 71 l25 43 0 454 c0 504
-1 518 -65 642 -40 77 -41 86 -20 127 13 26 21 30 56 30 44 0 77 -14 148 -64
62 -44 101 -56 185 -56 102 0 143 15 197 69 39 38 49 56 59 104 12 62 7 119
-17 177 -18 45 -48 77 -98 103 -40 22 -47 22 -650 24 -477 2 -620 -1 -658 -11z"/>
</g>
</svg>
