<?xml version="1.0" standalone="no"?>
<!DOCTYPE svg PUBLIC "-//W3C//DTD SVG 20010904//EN"
 "http://www.w3.org/TR/2001/REC-SVG-20010904/DTD/svg10.dtd">
<svg version="1.0" xmlns="http://www.w3.org/2000/svg"
 width="300.000000pt" height="300.000000pt" viewBox="0 0 300.000000 300.000000"
 preserveAspectRatio="xMidYMid meet">

<g transform="translate(0.000000,300.000000) scale(0.100000,-0.100000)"
fill="#000000" stroke="none">
<path d="M847 1836 l-15 -44 216 -81 c264 -98 321 -126 347 -168 18 -30 24
-32 73 -33 39 0 52 4 52 15 0 8 12 28 28 44 20 22 86 51 277 121 138 51 253
96 257 99 11 9 -14 82 -29 88 -12 5 -438 -159 -513 -197 -19 -10 -44 -27 -56
-38 -20 -19 -21 -19 -55 9 -32 27 -519 229 -552 229 -9 0 -21 -18 -30 -44z"/>
<path d="M870 1353 c0 -17 19 -35 29 -29 18 12 12 36 -9 36 -11 0 -20 -3 -20
-7z"/>
<path d="M1529 1343 c-3 -101 1 -157 13 -164 17 -11 20 -11 38 1 13 8 13 11 1
19 -9 6 -14 32 -15 82 -1 62 -4 74 -18 77 -12 2 -18 -3 -19 -15z"/>
<path d="M1616 1351 c-3 -5 1 -15 10 -22 13 -10 17 -10 24 1 5 8 6 18 4 22 -7
11 -31 10 -38 -1z"/>
<path d="M2205 1318 c-11 -73 -3 -142 18 -146 14 -3 17 4 17 41 0 42 18 75 33
60 4 -3 7 -28 7 -55 0 -41 3 -48 20 -48 17 0 20 7 20 49 0 70 -6 81 -46 81
-31 0 -34 3 -34 30 0 48 -28 38 -35 -12z"/>
<path d="M397 1343 c-3 -5 -8 -46 -11 -91 -7 -78 -6 -84 11 -80 13 2 19 15 23
48 l5 45 20 -46 c11 -28 25 -46 34 -45 7 2 24 22 37 47 l23 44 1 -47 c0 -42 3
-48 21 -48 20 0 21 4 15 53 -3 28 -6 69 -6 90 0 30 -4 37 -20 37 -11 0 -20 -5
-20 -10 0 -6 -9 -29 -19 -53 -11 -23 -21 -49 -23 -57 -4 -13 -58 91 -58 111 0
11 -27 12 -33 2z"/>
<path d="M1205 1325 c-45 -44 -28 -138 27 -149 44 -9 72 2 91 34 55 93 -44
190 -118 115z m86 -44 c9 -45 -5 -81 -31 -81 -28 0 -44 39 -36 85 6 32 10 36
34 33 21 -2 28 -10 33 -37z"/>
<path d="M2072 1338 c-7 -7 -12 -24 -12 -38 0 -20 9 -31 35 -46 43 -23 43 -49
0 -49 -39 0 -46 -17 -12 -29 30 -11 74 5 83 29 11 27 -5 60 -36 77 -39 22 -39
40 0 36 16 -1 30 1 30 5 0 4 0 12 0 17 0 14 -74 12 -88 -2z"/>
<path d="M766 1308 c-17 -19 -17 -22 -2 -30 11 -6 16 -23 16 -53 0 -39 3 -45
24 -51 25 -6 46 1 46 15 0 5 -9 11 -20 14 -25 7 -28 62 -4 75 15 8 15 11 -5
31 -25 25 -31 25 -55 -1z"/>
<path d="M1429 1299 c-8 -4 -25 -5 -38 -2 -23 6 -24 4 -18 -27 4 -18 7 -48 7
-67 0 -27 4 -34 18 -31 12 2 18 16 22 52 7 72 30 73 30 2 0 -50 2 -56 20 -56
19 0 21 5 18 61 -3 52 -6 63 -24 69 -11 5 -27 4 -35 -1z"/>
<path d="M1883 1297 c-37 -17 -50 -76 -22 -106 21 -22 30 -24 67 -15 32 9 27
24 -8 24 -38 0 -38 11 1 29 24 10 29 18 27 39 -4 30 -34 43 -65 29z m30 -23
c8 -8 -3 -34 -14 -34 -5 0 -9 9 -9 20 0 19 11 26 23 14z"/>
<path d="M2395 1302 c-28 -5 -45 -31 -45 -67 0 -69 84 -87 110 -24 21 50 -15
102 -65 91z m25 -42 c13 -25 4 -60 -16 -60 -14 0 -21 60 -7 73 9 10 11 9 23
-13z"/>
<path d="M626 1278 c-36 -52 -3 -118 50 -98 14 6 26 6 29 -1 15 -23 25 7 21
59 l-4 57 -40 3 c-32 2 -43 -1 -56 -20z m60 -11 c6 -18 -13 -67 -26 -67 -11 0
-14 63 -3 73 10 11 23 8 29 -6z"/>
<path d="M874 1244 c4 -51 15 -73 38 -74 14 0 20 22 9 33 -6 6 -11 30 -11 54
0 36 -3 43 -20 43 -18 0 -19 -6 -16 -56z"/>
<path d="M955 1283 c3 -8 5 -37 5 -64 0 -42 3 -49 20 -49 17 0 20 7 20 39 0
83 27 98 32 19 2 -42 7 -54 21 -56 16 -3 18 3 15 60 l-3 63 -58 1 c-46 1 -57
-2 -52 -13z"/>
<path d="M1622 1238 c3 -55 5 -63 23 -63 15 0 19 5 16 20 -2 11 -3 39 -2 63 1
36 -2 42 -19 42 -19 0 -21 -5 -18 -62z"/>
<path d="M1700 1236 c4 -48 9 -62 23 -64 14 -3 17 4 17 41 0 57 24 83 34 36 3
-17 6 -43 6 -56 0 -18 5 -24 18 -21 12 2 17 14 18 43 2 72 -8 84 -68 82 l-53
-1 5 -60z"/>
<path d="M2494 1284 c3 -9 6 -49 6 -90 0 -67 2 -74 20 -74 14 0 20 7 20 23 0
15 11 27 32 37 61 29 59 120 -2 120 -17 0 -30 -5 -30 -12 0 -9 -3 -9 -12 0
-18 18 -41 15 -34 -4z m78 -66 c-2 -10 -11 -18 -18 -18 -18 0 -19 67 -1 73 14
4 26 -29 19 -55z"/>
</g>
</svg>
