<?xml version="1.0" standalone="no"?>
<!DOCTYPE svg PUBLIC "-//W3C//DTD SVG 20010904//EN"
 "http://www.w3.org/TR/2001/REC-SVG-20010904/DTD/svg10.dtd">
<svg version="1.0" xmlns="http://www.w3.org/2000/svg"
 width="946.000000pt" height="1035.000000pt" viewBox="0 0 946.000000 1035.000000"
 preserveAspectRatio="xMidYMid meet">

<g transform="translate(0.000000,1035.000000) scale(0.100000,-0.100000)"
fill="#000000" stroke="none">
<path d="M5063 10022 c-267 -280 -1092 -1101 -1123 -1118 -31 -17 -59 -19
-245 -20 -115 -1 -338 -7 -495 -14 -162 -7 -429 -11 -618 -8 -373 5 -391 3
-402 -57 -3 -16 -7 -397 -9 -847 -1 -449 -5 -827 -9 -841 -9 -30 -298 -338
-458 -487 -32 -31 -78 -76 -100 -100 -23 -25 -175 -175 -338 -335 -267 -261
-326 -327 -326 -366 0 -8 56 -63 275 -269 66 -62 229 -221 362 -354 132 -132
298 -297 368 -366 69 -69 147 -149 173 -179 l47 -54 0 -839 c0 -735 2 -840 15
-848 9 -6 89 -8 195 -5 99 3 485 7 857 10 l678 6 63 -63 c34 -35 101 -103 149
-153 48 -49 122 -121 165 -159 73 -63 131 -119 448 -425 66 -64 136 -129 155
-144 19 -15 83 -75 141 -132 128 -126 135 -128 229 -56 36 27 243 230 460 452
544 554 681 689 705 694 11 3 391 9 845 15 454 6 843 15 865 20 78 18 73 -28
75 702 3 943 4 996 30 1051 13 28 62 86 128 151 59 58 172 170 252 248 80 79
216 215 302 303 202 206 483 475 497 475 6 0 15 9 21 20 9 17 7 27 -9 53 -19
32 -225 237 -391 391 -47 44 -150 143 -230 220 -80 78 -210 202 -289 276 -78
74 -183 173 -232 220 l-90 85 -2 170 c-1 94 -1 397 0 675 1 278 -2 586 -5 684
l-7 180 -35 20 c-33 20 -49 21 -285 19 -137 -2 -309 -7 -380 -11 l-131 -9 -79
-51 c-44 -28 -90 -58 -102 -67 -27 -19 -30 -61 -5 -73 9 -5 175 -8 367 -7 367
3 415 -2 415 -41 0 -14 -8 -15 -56 -9 -120 15 -786 -4 -837 -24 -19 -7 -27
-17 -25 -29 3 -14 14 -17 73 -16 39 1 207 5 375 9 295 8 307 7 345 -13 39 -19
41 -23 54 -94 28 -154 48 -193 78 -151 16 22 11 39 -11 35 -9 -2 -16 2 -16 8
0 5 7 10 15 10 17 0 20 25 5 35 -6 4 -8 10 -5 15 3 5 1 19 -5 31 -9 16 -9 28
1 50 28 69 60 -11 47 -121 -4 -41 -5 -111 -2 -155 4 -44 7 -96 7 -115 0 -19
-1 -78 -1 -130 0 -52 0 -120 1 -150 0 -30 0 -208 -2 -395 -1 -269 1 -350 12
-390 8 -27 14 -51 12 -53 -1 -1 -16 3 -34 9 -50 17 -64 63 -52 168 5 46 7 90
4 98 -3 7 -2 21 1 30 6 15 8 15 16 3 7 -11 10 -6 10 18 0 21 -5 32 -14 32 -19
0 -25 20 -13 46 6 14 6 28 0 40 -6 11 -8 49 -5 86 3 51 7 65 18 61 8 -3 14 1
14 11 0 9 -6 16 -13 16 -10 0 -14 19 -15 66 -2 66 -18 119 -37 119 -17 0 -17
-42 0 -74 9 -18 11 -31 5 -31 -15 0 -12 -36 5 -50 8 -7 15 -21 15 -32 0 -10
-7 -21 -15 -24 -8 -4 -15 -10 -15 -15 0 -5 7 -9 15 -9 8 0 15 -7 15 -15 0 -8
-6 -15 -14 -15 -17 0 -27 -111 -22 -245 2 -49 -1 -116 -7 -147 -12 -65 1 -121
38 -159 62 -65 529 -515 553 -533 15 -12 77 -71 137 -132 61 -61 140 -138 177
-171 84 -76 178 -185 178 -208 0 -9 -10 -30 -21 -47 -23 -32 -350 -358 -725
-723 -130 -126 -256 -256 -281 -288 l-44 -59 -5 -731 c-3 -403 -10 -748 -15
-768 -6 -26 -17 -40 -37 -47 -17 -8 -281 -15 -757 -22 -401 -6 -747 -16 -767
-21 -20 -5 -49 -24 -65 -41 -15 -18 -158 -163 -316 -323 -159 -159 -350 -352
-425 -428 -209 -212 -273 -267 -311 -267 -36 0 -60 20 -236 191 -60 58 -173
167 -250 240 -77 74 -174 167 -215 208 -41 41 -97 92 -125 114 -27 21 -74 67
-105 101 -85 94 -150 154 -189 173 -32 15 -73 17 -336 17 -165 0 -503 -3 -751
-7 -414 -7 -453 -6 -465 9 -12 14 -14 144 -15 759 -1 738 -1 743 -22 776 -12
19 -85 97 -163 174 -78 77 -176 176 -218 219 -42 43 -107 109 -145 145 -315
303 -526 519 -526 538 0 25 75 118 180 221 41 41 163 161 270 267 107 106 261
259 341 341 81 82 168 167 194 188 89 74 84 22 87 864 l3 742 30 29 30 30 450
6 c896 10 1027 14 1057 34 25 15 365 348 575 562 45 46 176 177 291 291 174
172 216 208 246 213 48 9 59 1 227 -163 77 -76 186 -182 242 -237 56 -55 119
-120 141 -145 49 -57 298 -322 351 -373 138 -134 206 -168 260 -133 14 9 25
23 25 31 0 15 -12 19 -75 30 -52 9 -101 46 -114 88 -6 19 -26 44 -44 57 -55
41 -97 83 -97 97 0 16 2 16 33 2 14 -6 31 -22 38 -35 7 -13 16 -24 19 -24 4 0
27 -19 51 -42 76 -73 86 -79 169 -88 114 -13 157 3 253 92 95 89 76 109 -107
112 -67 1 -129 7 -139 12 -9 6 -120 110 -245 233 -125 123 -261 256 -302 296
-41 40 -154 153 -251 251 -97 99 -222 224 -278 279 -56 55 -111 112 -122 128
-11 15 -28 27 -37 26 -9 0 -63 -48 -119 -107z m157 -215 c34 -28 72 -89 61
-98 -6 -5 -9 -6 -6 -3 2 3 -9 17 -26 31 -27 23 -32 24 -61 12 -18 -7 -54 -32
-80 -56 -27 -24 -55 -43 -63 -43 -7 0 -16 -8 -19 -18 -4 -10 -49 -61 -102
-113 -52 -52 -105 -105 -117 -118 -12 -13 -33 -34 -46 -45 -12 -12 -51 -48
-85 -82 -35 -33 -78 -71 -96 -84 l-33 -24 24 36 c42 61 121 148 135 148 8 0
14 3 14 8 1 4 23 23 50 42 28 19 50 39 50 43 0 5 33 43 74 85 41 42 87 92 103
110 70 83 174 182 190 182 10 0 25 -6 33 -13z m-860 -841 c0 -3 -25 -31 -57
-63 -59 -61 -84 -60 -37 2 30 40 94 81 94 61z m-139 -139 c-13 -13 -26 -3 -16
12 3 6 11 8 17 5 6 -4 6 -10 -1 -17z m-121 -115 c0 -4 -13 -23 -29 -42 l-29
-35 -612 -2 c-337 -2 -610 1 -606 5 4 4 249 10 544 13 516 5 540 7 617 28 44
12 84 27 90 32 11 11 25 12 25 1z m-1565 -72 c17 -4 22 -8 12 -9 -23 -1 -94
-51 -102 -71 -4 -8 -8 -327 -11 -708 -2 -381 -6 -697 -9 -702 -3 -5 -1 -29 5
-53 9 -43 0 -103 -17 -116 -5 -3 -30 -33 -58 -66 -50 -60 -301 -319 -450 -463
-43 -42 -140 -138 -215 -213 -133 -133 -196 -187 -207 -176 -3 3 5 28 18 54
17 36 119 145 413 438 215 215 404 409 419 431 l28 41 4 714 c5 771 10 863 45
891 23 19 71 22 125 8z m228 -7 c-13 -2 -33 -2 -45 0 -13 2 -3 4 22 4 25 0 35
-2 23 -4z m5154 -1425 c-3 -8 -6 -5 -6 6 -1 11 2 17 5 13 3 -3 4 -12 1 -19z
m155 -235 c33 -31 35 -43 9 -43 -19 0 -61 43 -61 61 0 17 24 9 52 -18z m69
-83 c11 0 121 -111 115 -117 -2 -3 -14 5 -25 16 -12 12 -25 21 -31 21 -5 0
-10 7 -10 15 0 8 -6 15 -14 15 -15 0 -57 51 -55 67 0 4 3 2 6 -4 2 -7 9 -13
14 -13z m198 -198 c-5 -2 -18 7 -29 20 -29 34 -24 39 9 9 16 -14 25 -28 20
-29z m355 -328 c3 -8 2 -12 -4 -9 -6 3 -10 10 -10 16 0 14 7 11 14 -7z m76
-71 c0 -8 -6 -8 -25 0 -14 7 -25 17 -25 24 0 8 6 8 25 0 14 -7 25 -17 25 -24z
m124 -106 c10 -18 11 -25 4 -16 -7 9 -17 17 -23 19 -18 5 -45 27 -39 32 12 13
42 -5 58 -35z m96 -89 c0 -4 6 -8 13 -8 7 0 23 -13 34 -28 12 -16 37 -37 57
-46 43 -20 61 -48 47 -75 -9 -17 -53 -51 -66 -51 -3 0 -5 21 -5 46 0 43 -4 50
-70 117 -73 75 -94 116 -40 75 17 -12 30 -25 30 -30z m-7517 -60 c2 -7 -17
-35 -43 -63 -80 -84 -110 -122 -110 -136 0 -8 84 -98 187 -200 104 -102 229
-228 278 -280 50 -52 104 -106 120 -120 17 -14 46 -43 66 -65 20 -21 47 -48
60 -60 13 -12 103 -102 200 -200 172 -174 177 -181 187 -234 9 -44 9 -683 0
-1090 -1 -14 2 -105 5 -202 6 -191 15 -225 64 -247 30 -14 120 -14 128 -1 9
14 101 12 125 -2 15 -9 23 -10 28 -2 5 8 184 13 596 18 551 7 592 6 640 -11
41 -14 71 -38 159 -126 59 -60 107 -113 107 -118 0 -5 5 -9 10 -9 14 0 53 -40
46 -47 -3 -3 -27 14 -53 38 -27 24 -55 50 -63 57 -8 7 -47 43 -85 80 -117 112
-94 107 -500 108 -192 1 -546 -2 -785 -6 -419 -7 -436 -7 -455 12 -20 18 -20
30 -17 808 l3 789 -22 18 c-12 10 -74 69 -138 131 -64 62 -226 220 -361 350
-135 130 -265 257 -291 282 -25 25 -80 78 -122 119 -42 40 -77 76 -78 80 0 3
-27 29 -60 56 -32 28 -62 58 -65 68 -8 26 77 121 155 175 68 45 77 49 84 30z
m7583 -177 c-4 -6 -17 -11 -28 -11 -21 0 -21 1 -3 20 19 21 44 13 31 -9z
m-276 -251 c0 -22 -14 -37 -78 -87 -59 -48 -71 -40 -23 15 86 98 101 109 101
72z m-250 -245 c-7 -9 -15 -13 -17 -11 -7 7 7 26 19 26 6 0 6 -6 -2 -15z
m-170 -159 c0 -2 -7 -9 -15 -16 -13 -11 -14 -10 -9 4 5 14 24 23 24 12z m-80
-73 c-1 -13 -40 -56 -45 -51 -3 3 4 17 16 31 21 27 29 33 29 20z m-95 -103
c-10 -11 -23 -20 -29 -20 -6 0 0 9 14 20 32 25 38 25 15 0z m-95 -94 c0 -3 -4
-8 -10 -11 -5 -3 -10 -1 -10 4 0 6 5 11 10 11 6 0 10 -2 10 -4z m-258 -1730
c58 0 109 -4 112 -7 4 -3 -1 -12 -10 -20 -19 -15 2 -15 -974 -17 -300 0 -565
-1 -590 -2 -56 -1 -49 6 21 24 40 10 180 15 538 20 267 4 487 8 489 10 2 2 72
2 155 -1 84 -3 200 -6 259 -7z m-3367 -496 c10 -11 13 -20 7 -20 -6 0 -16 9
-22 20 -6 11 -9 20 -7 20 2 0 12 -9 22 -20z m81 -69 c9 -12 11 -21 5 -21 -13
0 -61 48 -61 61 0 13 38 -14 56 -40z m104 -102 c0 -6 -4 -7 -10 -4 -5 3 -10
11 -10 16 0 6 5 7 10 4 6 -3 10 -11 10 -16z m58 -58 c3 -8 -1 -12 -9 -9 -7 2
-15 10 -17 17 -3 8 1 12 9 9 7 -2 15 -10 17 -17z m92 -86 c35 -35 60 -68 56
-72 -7 -7 -136 118 -136 132 0 15 22 -1 80 -60z m129 -119 c9 -8 50 -46 91
-85 116 -107 129 -116 175 -116 39 0 41 -1 31 -20 -14 -26 -27 -35 -50 -35
-19 0 -66 43 -66 61 0 5 -11 14 -25 19 -14 5 -25 14 -25 20 0 15 -18 31 -52
49 -15 8 -33 27 -40 43 -7 15 -17 28 -22 28 -12 0 -46 31 -46 42 0 12 11 10
29 -6z m386 -136 c-3 -5 -11 -10 -16 -10 -6 0 -7 5 -4 10 3 6 11 10 16 10 6 0
7 -4 4 -10z"/>
<path d="M2698 3133 c7 -3 16 -2 19 1 4 3 -2 6 -13 5 -11 0 -14 -3 -6 -6z"/>
<path d="M7127 9042 c-32 -32 -96 -85 -143 -118 -76 -53 -164 -122 -279 -220
-22 -18 -61 -46 -85 -62 -25 -16 -56 -40 -70 -54 -14 -14 -45 -37 -70 -53 -25
-15 -63 -44 -85 -65 -22 -21 -65 -55 -95 -77 -31 -21 -69 -48 -85 -61 -51 -39
-149 -102 -161 -102 -6 0 -32 -16 -57 -35 -25 -19 -48 -35 -51 -35 -14 0 -4
28 17 46 38 33 101 167 93 198 -8 32 -36 34 -62 5 -10 -12 -64 -60 -119 -108
-55 -47 -153 -138 -217 -201 -99 -97 -118 -120 -118 -145 0 -37 27 -78 46 -71
43 17 -13 -43 -81 -85 -118 -74 -159 -107 -240 -195 -54 -57 -104 -102 -125
-110 -44 -18 -289 -265 -313 -316 -10 -20 -22 -40 -27 -43 -6 -4 -22 -30 -36
-58 -15 -29 -42 -74 -61 -101 -20 -27 -42 -65 -50 -84 -12 -30 -13 -37 0 -49
12 -12 22 -8 70 34 31 26 69 66 83 88 33 50 127 148 177 185 21 16 100 88 177
161 77 73 150 139 163 148 13 9 56 44 95 79 39 35 93 78 121 95 76 48 379 270
465 340 56 45 209 159 286 211 36 24 79 58 95 76 17 17 47 41 68 51 21 11 55
35 75 53 20 18 60 48 87 66 28 18 80 63 116 99 36 36 85 77 109 91 37 21 120
95 244 216 45 44 96 107 96 120 0 6 10 19 21 30 32 29 53 82 38 100 -22 27
-54 15 -112 -44z"/>
<path d="M7880 8280 c-8 -14 -8 -30 -2 -48 5 -15 7 -66 4 -114 -4 -78 -3 -88
12 -88 10 0 14 5 10 11 -6 11 12 83 27 104 9 13 -1 75 -12 75 -5 0 -9 15 -9
34 0 42 -15 54 -30 26z"/>
<path d="M6920 7504 c-22 -20 -40 -41 -40 -46 0 -5 -16 -44 -35 -85 -20 -42
-33 -84 -30 -94 13 -41 143 -89 200 -75 28 7 95 72 95 93 0 6 4 13 10 15 5 2
12 29 16 60 6 53 4 61 -21 94 -63 82 -131 95 -195 38z"/>
<path d="M7612 7433 c-16 -6 -41 -55 -63 -123 -9 -30 -26 -80 -37 -110 -16
-42 -22 -91 -26 -205 -3 -82 -10 -168 -16 -190 -5 -22 -10 -62 -10 -88 0 -103
-36 -179 -136 -291 -25 -28 -55 -69 -66 -91 -26 -50 -345 -366 -415 -411 -28
-19 -54 -38 -57 -42 -5 -9 -84 -62 -241 -164 -38 -25 -106 -61 -150 -79 -44
-18 -89 -38 -101 -46 -11 -7 -58 -24 -105 -38 -46 -15 -102 -33 -124 -41 -23
-7 -48 -14 -58 -14 -9 0 -43 -9 -74 -19 -32 -11 -95 -23 -141 -26 -46 -4 -107
-14 -135 -22 -71 -19 -416 -28 -522 -13 -44 6 -111 15 -149 20 -146 19 -498
147 -654 238 -26 16 -66 36 -90 45 -40 16 -46 16 -76 2 -56 -27 -62 -50 -30
-131 15 -38 38 -85 51 -105 25 -38 167 -172 216 -204 37 -24 206 -102 287
-131 36 -14 74 -29 85 -34 93 -42 275 -67 550 -77 93 -3 147 0 195 11 36 8
106 17 155 20 53 3 129 16 185 31 52 15 132 37 178 50 46 12 100 29 120 38 20
8 67 27 104 42 37 15 104 48 150 74 46 26 121 69 168 94 47 26 103 61 125 77
22 16 63 43 92 60 28 17 73 52 100 78 26 26 64 56 83 66 28 15 170 159 310
314 19 21 70 99 70 107 0 4 13 25 29 49 43 63 148 274 177 358 30 85 70 254
84 349 14 96 14 507 0 547 -12 32 -15 34 -38 25z"/>
<path d="M5538 7272 c-34 -18 -47 -38 -99 -161 -34 -80 -33 -111 3 -128 89
-41 160 -65 183 -59 32 8 78 71 106 145 30 80 28 99 -17 139 -82 73 -126 89
-176 64z"/>
<path d="M3305 7268 c-2 -7 -6 -37 -8 -67 -4 -49 -9 -59 -49 -97 -47 -45 -124
-74 -195 -74 -50 0 -90 -15 -198 -74 -49 -28 -128 -69 -175 -92 -47 -23 -98
-54 -115 -69 -297 -261 -405 -453 -405 -719 0 -133 16 -209 67 -312 117 -236
308 -371 618 -436 71 -15 330 -3 386 17 24 9 94 30 154 47 119 32 258 97 370
172 210 139 192 125 425 339 85 78 180 171 210 206 30 35 69 76 85 90 17 14
57 55 90 89 33 35 125 129 203 208 115 115 149 144 171 144 l27 0 0 -192 -1
-193 36 -76 c33 -68 42 -78 84 -99 37 -18 57 -22 100 -17 29 3 64 11 78 19 37
19 125 105 152 148 32 51 97 100 142 107 93 15 195 120 259 265 57 132 67 141
162 134 87 -7 113 4 166 66 32 37 36 48 36 98 0 79 -19 104 -74 97 -129 -18
-167 -27 -202 -51 -54 -36 -122 -117 -140 -168 -49 -140 -92 -187 -192 -207
-65 -13 -89 -28 -176 -109 -106 -98 -177 -123 -243 -82 -65 39 -69 151 -12
345 68 230 71 251 36 283 -51 48 -127 43 -186 -11 -14 -13 -53 -42 -86 -63
-33 -21 -85 -64 -115 -95 -79 -80 -193 -208 -205 -230 -28 -50 -401 -410 -502
-485 -43 -32 -80 -60 -83 -63 -3 -3 -13 -10 -22 -16 -9 -5 -77 -50 -150 -100
-262 -176 -369 -226 -548 -257 -30 -5 -87 -19 -126 -30 -75 -22 -129 -22 -249
1 -229 44 -300 76 -413 186 -92 89 -102 105 -132 220 -15 60 -19 95 -14 140 6
53 37 152 63 202 5 10 30 62 55 115 53 112 87 155 154 195 26 15 55 32 64 38
9 5 48 29 87 53 52 33 78 43 102 40 31 -3 33 -6 57 -82 20 -67 31 -86 75 -130
69 -68 143 -96 254 -96 73 0 89 4 165 39 106 49 137 56 163 36 19 -15 19 -16
-24 -55 l-45 -39 28 -10 c57 -22 103 -6 149 53 22 29 27 45 27 93 0 34 -8 74
-19 98 -10 22 -21 52 -24 66 -4 15 -37 55 -74 89 -106 97 -129 131 -136 193
-9 75 -31 121 -70 151 -36 27 -85 35 -92 14z m83 -354 c69 -27 136 -72 164
-108 26 -35 7 -63 -56 -81 -29 -9 -78 -28 -107 -43 -47 -23 -66 -27 -144 -27
-103 0 -143 17 -182 75 -35 51 -31 108 10 147 52 51 84 63 170 63 61 0 93 -6
145 -26z"/>
<path d="M7945 7240 c-3 -5 -1 -10 4 -10 6 0 11 5 11 10 0 6 -2 10 -4 10 -3 0
-8 -4 -11 -10z"/>
<path d="M4204 7095 c-32 -32 -104 -186 -104 -223 0 -19 12 -39 38 -64 48 -47
69 -56 134 -64 l54 -6 57 61 c91 99 90 149 -3 242 -83 84 -131 99 -176 54z"/>
<path d="M6074 6365 c-31 -26 -51 -56 -78 -120 -41 -95 -41 -130 -3 -165 35
-33 71 -26 112 23 30 35 35 47 30 72 -19 96 -18 98 19 147 40 52 43 63 20 72
-33 13 -60 5 -100 -29z"/>
<path d="M8283 5883 c-54 -42 -115 -92 -136 -110 -21 -19 -59 -47 -85 -63 -26
-16 -128 -111 -227 -211 -99 -100 -205 -198 -235 -219 -30 -21 -77 -58 -105
-84 -27 -25 -84 -67 -125 -93 -41 -25 -111 -72 -155 -103 -99 -69 -140 -93
-333 -191 -85 -43 -187 -87 -228 -99 -42 -11 -103 -32 -137 -46 -84 -36 -152
-52 -280 -69 -59 -8 -116 -19 -127 -25 -10 -6 -47 -13 -82 -16 -35 -3 -104
-12 -155 -21 -71 -12 -144 -14 -320 -11 -202 4 -242 8 -353 32 -134 30 -247
63 -349 103 -93 36 -110 30 -206 -75 -131 -143 -158 -167 -203 -180 -53 -16
-108 -3 -142 33 -20 21 -25 38 -27 99 -5 95 36 298 83 418 20 49 33 96 30 104
-7 19 -40 18 -58 -3 -31 -36 -130 -247 -154 -326 -22 -75 -24 -98 -25 -295 0
-237 4 -257 74 -329 25 -27 39 -33 72 -33 69 0 132 28 178 78 23 26 72 77 109
114 61 62 71 68 108 68 23 0 54 -6 69 -14 25 -14 151 -55 306 -101 33 -10 114
-21 180 -25 66 -5 138 -13 160 -19 62 -16 385 -14 437 3 24 8 84 19 133 25 50
6 106 16 125 22 19 6 53 15 75 19 102 20 239 62 335 103 58 24 123 49 145 56
72 22 139 54 215 105 79 52 239 146 249 146 3 0 24 14 45 30 22 17 44 30 49
30 13 0 3 -78 -15 -120 -54 -125 -85 -221 -93 -295 -4 -33 -14 -71 -22 -84
-27 -43 -31 -88 -21 -239 10 -161 16 -177 92 -259 31 -35 45 -43 74 -43 64 0
111 22 178 83 70 64 87 90 99 152 5 22 10 47 11 55 14 62 15 121 4 135 -23 27
-54 18 -80 -25 -28 -45 -78 -70 -141 -70 -35 0 -47 6 -75 37 -38 42 -43 76
-20 145 8 24 19 72 25 108 9 64 20 109 47 203 7 26 21 85 30 129 15 75 15 83
0 109 -30 51 -32 49 139 194 50 42 110 90 135 106 25 17 151 133 280 259 218
213 293 276 410 346 43 26 157 137 185 179 7 11 16 37 19 58 6 31 3 41 -18 62
-40 40 -65 32 -173 -52z"/>
<path d="M3785 5288 c-49 -47 -95 -169 -95 -253 0 -81 12 -91 141 -110 51 -8
96 -20 100 -27 26 -41 -7 -74 -146 -148 -124 -66 -237 -137 -335 -211 -97 -74
-123 -98 -153 -145 -14 -21 -44 -57 -67 -79 -23 -22 -59 -70 -80 -106 -21 -36
-66 -94 -99 -130 -33 -35 -60 -67 -61 -70 0 -6 -192 -186 -300 -282 -63 -56
-110 -114 -110 -135 0 -11 9 -13 38 -10 28 4 76 33 185 113 141 103 192 150
287 265 77 93 282 292 354 345 82 59 110 77 196 122 119 64 260 165 302 217
41 51 98 162 98 191 0 9 8 28 18 42 14 22 17 48 16 133 -1 94 -4 111 -28 158
-42 83 -129 151 -194 152 -23 0 -42 -9 -67 -32z"/>
<path d="M6934 4208 c-17 -18 -40 -49 -52 -68 -26 -45 -234 -250 -253 -250 -8
0 -52 -32 -98 -70 -47 -39 -106 -85 -132 -103 -57 -38 -78 -71 -63 -95 18 -28
51 -25 116 8 34 18 98 44 143 59 88 30 141 63 221 138 81 76 152 190 188 301
10 28 21 52 26 52 15 0 4 32 -15 46 -29 21 -48 17 -81 -18z"/>
<path d="M4423 3908 c-18 -18 -44 -46 -58 -61 -29 -32 -42 -31 -145 4 -79 28
-97 25 -141 -22 -42 -45 -99 -155 -99 -193 0 -15 12 -34 30 -50 80 -67 241
-60 280 13 20 39 46 44 119 25 99 -25 128 -17 195 58 97 110 98 128 5 202 -50
39 -72 50 -108 53 -41 4 -49 1 -78 -29z"/>
<path d="M5398 3600 c-68 -69 -93 -74 -193 -40 -102 35 -119 31 -197 -52 -75
-81 -97 -128 -77 -172 13 -27 60 -53 174 -98 67 -26 71 -37 39 -110 -9 -20
-14 -44 -11 -52 11 -28 114 -88 159 -93 35 -4 51 1 90 26 66 42 108 103 108
155 0 35 -6 48 -37 77 -21 20 -55 46 -75 58 -21 13 -38 24 -38 26 0 2 18 1 39
-2 81 -11 129 4 188 60 96 91 109 148 46 209 -21 20 -52 43 -70 52 -57 29 -80
22 -145 -44z"/>
<path d="M2740 2302 c0 -31 88 -44 123 -18 28 22 20 26 -53 26 -38 0 -70 -4
-70 -8z"/>
<path d="M1078 2163 c-12 -3 -18 -14 -18 -34 0 -29 2 -30 37 -27 28 2 39 8 42
22 3 17 -23 48 -38 45 -3 -1 -14 -3 -23 -6z"/>
<path d="M2806 2135 c-17 -13 -18 -22 -10 -92 4 -43 8 -130 9 -193 0 -63 4
-121 8 -127 13 -21 45 -15 63 12 14 22 16 49 11 205 -5 184 -11 210 -46 210
-9 0 -25 -7 -35 -15z"/>
<path d="M1546 2074 c-9 -8 -16 -22 -16 -29 0 -43 89 -63 110 -26 16 30 12 39
-20 56 -37 19 -55 19 -74 -1z"/>
<path d="M1050 2050 c-26 -49 8 -80 88 -80 92 0 144 47 92 83 -16 11 -30 12
-66 4 -33 -8 -54 -8 -75 0 -25 10 -31 9 -39 -7z"/>
<path d="M2053 1938 c-29 -31 -93 -158 -93 -184 0 -34 38 -73 97 -101 61 -29
70 -41 54 -72 -17 -31 -149 -91 -202 -91 -85 0 -90 -33 -13 -77 53 -31 126
-31 177 0 43 26 107 101 107 126 0 36 39 79 95 105 67 30 86 31 167 10 70 -18
107 -12 148 23 41 34 41 90 0 177 -24 50 -37 67 -61 75 -53 18 -99 -15 -149
-107 -20 -38 -32 -49 -61 -56 -64 -16 -83 -4 -115 70 -21 49 -39 75 -68 95
-47 35 -56 36 -83 7z m455 -124 c22 -15 22 -17 5 -30 -39 -29 -101 -3 -73 31
16 19 40 19 68 -1z"/>
<path d="M1258 1876 c-10 -7 -20 -32 -24 -56 -7 -45 -33 -80 -59 -80 -25 0
-55 38 -55 69 0 17 -4 33 -10 36 -17 11 -51 -16 -66 -50 -19 -46 -40 -55 -128
-55 -65 0 -77 3 -86 20 -7 14 -7 25 1 38 14 23 6 52 -14 52 -8 0 -20 -15 -27
-32 -33 -88 -32 -88 -209 -88 -132 0 -150 -7 -192 -65 -47 -66 -47 -90 -4
-130 45 -40 41 -61 -10 -71 -69 -13 -139 2 -197 40 -60 41 -73 44 -87 18 -15
-29 29 -114 75 -146 44 -30 75 -32 184 -12 139 26 214 75 214 142 0 29 -7 42
-32 63 -53 43 -43 51 56 49 51 -1 105 3 130 11 37 12 58 12 127 1 73 -11 91
-11 149 4 54 13 79 14 129 6 130 -21 176 -8 198 57 15 47 3 163 -20 180 -20
15 -22 15 -43 -1z"/>
<path d="M1636 1804 c-28 -27 -15 -75 37 -145 24 -33 18 -45 -58 -119 l-56
-55 -89 1 c-81 2 -90 0 -90 -16 0 -23 86 -100 114 -101 43 -2 71 3 112 22 86
41 118 106 129 264 6 84 5 93 -17 120 -38 50 -56 56 -82 29z"/>
<path d="M3813 1695 c-9 -25 27 -56 61 -53 37 4 43 21 17 47 -25 25 -69 28
-78 6z"/>
<path d="M4306 1577 c-22 -16 -41 -114 -25 -133 9 -10 50 -24 121 -39 28 -5
88 -61 88 -82 0 -20 -56 -26 -88 -9 -16 8 -62 23 -102 32 -67 15 -74 15 -104
-1 -20 -11 -48 -15 -80 -13 l-50 3 -22 54 c-21 54 -54 91 -80 91 -7 0 -21 -11
-29 -24 -13 -20 -14 -30 -3 -69 6 -26 8 -50 4 -54 -4 -4 -53 -9 -109 -11 -96
-3 -104 -2 -140 22 -45 31 -68 33 -90 8 -23 -25 -21 -54 6 -82 12 -13 34 -39
48 -59 l26 -34 -46 -45 c-73 -71 -108 -85 -198 -81 -68 4 -78 2 -81 -14 -2
-11 14 -35 41 -62 42 -43 47 -45 101 -45 67 0 89 10 134 59 45 48 62 82 69
141 4 38 10 50 27 55 11 4 143 11 291 15 149 5 282 12 297 15 17 5 53 -1 98
-14 76 -23 99 -19 120 19 17 32 4 173 -20 220 -29 57 -87 119 -128 136 -43 17
-53 18 -76 1z"/>
<path d="M3155 1511 c-33 -19 -85 -76 -85 -92 0 -12 6 -11 55 2 22 7 62 14 90
18 56 7 68 25 41 66 -20 30 -58 33 -101 6z"/>
<path d="M6621 1391 c-17 -11 -7 -59 14 -68 26 -9 65 6 65 26 0 36 -48 62 -79
42z"/>
<path d="M3013 1342 c-46 -51 -29 -86 60 -131 34 -17 41 -37 20 -58 -22 -24
-64 -33 -152 -33 -82 0 -91 2 -145 35 -32 19 -60 35 -62 35 -2 0 -4 -21 -4
-47 0 -42 4 -51 44 -89 35 -33 55 -44 91 -50 113 -17 215 20 312 112 64 60 81
98 61 136 -10 21 -69 53 -116 63 -18 4 -45 17 -60 29 l-27 23 -22 -25z"/>
<path d="M5306 1354 c-19 -19 -20 -26 -4 -42 17 -17 54 -15 73 5 16 15 15 18
-7 34 -29 23 -42 23 -62 3z"/>
<path d="M5071 1313 c-24 -7 -51 -19 -60 -26 -9 -8 -37 -24 -63 -36 -47 -22
-98 -72 -98 -94 0 -18 11 -30 60 -62 120 -80 158 -128 108 -140 -13 -2 -110
-6 -216 -7 l-194 -3 -32 -36 c-19 -20 -36 -52 -40 -74 -7 -36 -5 -41 34 -78
38 -37 40 -41 25 -56 -27 -27 -159 -19 -230 14 -39 19 -60 24 -67 17 -28 -28
37 -122 99 -143 79 -26 247 15 304 74 51 51 56 93 17 129 -17 16 -34 28 -39
28 -5 0 -9 7 -9 16 0 14 7 15 48 9 92 -16 866 -4 1000 15 78 12 100 12 140 0
94 -26 105 -25 140 14 28 32 32 44 32 91 0 125 -114 275 -209 275 -32 0 -51
-24 -64 -81 -4 -14 -22 -45 -41 -69 -18 -23 -33 -53 -33 -66 0 -36 -26 -54
-76 -54 -51 0 -58 7 -81 74 -20 60 -42 86 -73 86 -32 0 -45 -35 -31 -88 6 -23
8 -48 5 -56 -9 -23 -80 -38 -139 -30 -42 6 -61 15 -98 49 -25 23 -73 60 -106
83 -34 23 -69 49 -78 58 -16 15 -16 18 0 35 9 11 45 32 79 48 66 32 90 53 82
75 -8 20 -46 24 -96 9z m841 -268 c20 -8 44 -44 43 -65 0 -31 -55 -23 -167 23
-58 24 -21 58 57 53 28 -2 58 -7 67 -11z"/>
<path d="M6620 1253 c-21 -7 -40 -33 -40 -54 0 -11 11 -19 32 -23 17 -3 47
-18 66 -33 30 -23 32 -27 17 -36 -11 -6 -37 -5 -76 3 -72 15 -89 10 -89 -30 0
-24 8 -35 42 -56 l41 -26 -24 -14 c-13 -7 -33 -13 -44 -13 -36 -1 -96 25 -121
52 -31 34 -79 37 -89 7 -10 -30 2 -72 36 -124 16 -26 29 -52 29 -59 0 -21
-107 -126 -135 -133 -14 -3 -57 -3 -96 0 -59 6 -69 5 -69 -9 0 -46 70 -99 147
-110 75 -12 147 52 186 166 13 35 26 70 30 77 6 8 36 12 90 12 138 1 197 43
218 155 8 45 7 61 -5 87 -9 17 -16 42 -16 56 0 30 -35 88 -60 102 -20 11 -46
12 -70 3z"/>
<path d="M6850 586 c-52 -41 -101 -85 -107 -98 -23 -43 -16 -78 24 -116 36
-33 39 -34 99 -29 56 4 67 2 101 -22 l38 -26 210 0 c126 0 230 5 260 12 39 9
63 9 111 -1 48 -10 122 -11 330 -4 341 12 334 11 427 7 74 -4 80 -3 99 21 18
22 20 34 14 110 -4 47 -12 89 -17 95 -16 16 -42 -7 -68 -58 -14 -28 -30 -47
-40 -47 -27 0 -62 30 -77 66 -18 44 -39 43 -60 -1 -32 -69 -78 -86 -168 -66
-51 12 -64 26 -48 51 13 22 6 50 -13 50 -15 0 -32 -20 -54 -63 -14 -28 -21
-32 -62 -35 -52 -3 -75 12 -85 56 -9 38 -23 52 -49 52 -24 0 -45 -35 -45 -76
0 -32 -37 -50 -77 -37 -22 8 -27 15 -25 34 4 32 -20 64 -42 56 -9 -4 -23 -22
-31 -40 -19 -46 -31 -53 -100 -61 -47 -5 -72 -2 -115 13 -30 11 -48 20 -39 21
19 0 30 42 18 62 -12 19 -39 -11 -43 -48 -4 -41 -37 -56 -114 -51 -86 4 -99
19 -107 122 -8 110 -12 125 -33 125 -9 -1 -60 -34 -112 -74z m47 -75 c19 -31
-6 -56 -42 -44 -35 11 -41 26 -20 47 22 21 48 20 62 -3z"/>
<path d="M8785 602 c-11 -2 -27 -11 -37 -19 -22 -20 -55 -99 -63 -153 -6 -41
-4 -48 22 -71 15 -15 54 -40 85 -56 l57 -29 -55 -52 c-58 -55 -57 -55 -174
-53 -79 2 -92 -10 -56 -48 59 -61 140 -78 206 -43 38 21 120 115 145 169 24
50 70 67 185 69 52 1 107 2 123 3 39 1 96 57 103 101 7 44 -21 145 -47 171
-11 11 -33 19 -53 19 -27 0 -42 -9 -80 -50 -25 -27 -51 -61 -56 -75 -11 -28
-45 -45 -93 -45 -43 0 -51 7 -76 61 -35 74 -85 111 -136 101z"/>
</g>
</svg>
