<?xml version="1.0" standalone="no"?>
<!DOCTYPE svg PUBLIC "-//W3C//DTD SVG 20010904//EN"
 "http://www.w3.org/TR/2001/REC-SVG-20010904/DTD/svg10.dtd">
<svg version="1.0" xmlns="http://www.w3.org/2000/svg"
 width="225.000000pt" height="225.000000pt" viewBox="0 0 225.000000 225.000000"
 preserveAspectRatio="xMidYMid meet">

<g transform="translate(0.000000,225.000000) scale(0.100000,-0.100000)"
fill="#000000" stroke="none">
<path d="M51 2076 l-43 -44 25 -54 c34 -68 42 -110 61 -295 25 -235 67 -339
155 -379 22 -11 41 -23 41 -29 0 -5 -7 -35 -15 -65 -9 -30 -18 -104 -22 -165
-18 -355 171 -676 491 -830 144 -69 195 -80 386 -80 160 0 168 1 259 33 124
43 192 80 286 155 140 114 249 279 297 454 28 103 31 336 5 429 -20 73 -21 84
-5 84 24 0 90 55 113 94 36 62 53 137 70 296 19 187 31 244 63 303 l26 48 -45
45 -45 45 -45 -25 c-57 -32 -108 -43 -287 -62 -249 -25 -328 -56 -390 -150
l-33 -50 -72 19 c-127 34 -357 25 -469 -18 -12 -5 -18 -2 -18 7 0 27 -58 96
-102 122 -60 35 -138 53 -310 70 -178 19 -230 30 -287 62 -24 13 -44 24 -45
24 -1 0 -21 -20 -45 -44z m339 -176 c220 -21 279 -39 317 -96 13 -21 10 -24
-70 -77 -95 -64 -185 -154 -247 -251 -24 -36 -46 -66 -49 -66 -4 0 -17 7 -29
16 -46 32 -64 97 -87 314 -8 80 -18 155 -21 167 -6 20 -4 21 33 13 21 -5 90
-13 153 -20z m1651 -21 c-5 -24 -12 -80 -16 -124 -9 -117 -33 -252 -50 -285
-14 -26 -51 -60 -66 -60 -3 0 -25 30 -49 66 -62 97 -152 187 -247 251 -80 53
-83 56 -70 77 38 57 97 75 317 96 63 7 131 15 150 19 19 4 36 7 38 6 1 -1 -2
-22 -7 -46z m-699 -172 c198 -64 360 -205 450 -392 54 -112 71 -203 65 -345
-8 -203 -70 -343 -217 -490 -147 -146 -310 -214 -515 -214 -206 0 -370 68
-515 214 -148 147 -209 287 -218 492 -6 146 13 235 73 356 106 210 292 353
526 402 81 17 265 5 351 -23z"/>
<path d="M805 1428 c-63 -55 -27 -158 55 -158 73 0 113 59 86 125 -24 56 -94
73 -141 33z"/>
<path d="M1342 1440 c-28 -12 -55 -71 -46 -105 9 -37 50 -65 94 -65 53 0 95
48 86 99 -10 64 -70 96 -134 71z"/>
<path d="M1055 1159 c-96 -9 -148 -25 -228 -66 -176 -93 -243 -263 -161 -413
137 -251 624 -298 852 -83 266 253 -25 607 -463 562z m240 -159 c161 -56 225
-164 159 -267 -34 -51 -91 -88 -177 -114 -96 -30 -255 -24 -344 12 -102 43
-153 94 -161 165 -2 24 1 57 8 74 26 63 127 125 245 150 63 14 203 4 270 -20z"/>
<path d="M910 810 l0 -90 70 0 70 0 0 90 0 90 -70 0 -70 0 0 -90z"/>
<path d="M1200 810 l0 -90 70 0 70 0 0 90 0 90 -70 0 -70 0 0 -90z"/>
</g>
</svg>
