<?xml version="1.0" standalone="no"?>
<!DOCTYPE svg PUBLIC "-//W3C//DTD SVG 20010904//EN"
 "http://www.w3.org/TR/2001/REC-SVG-20010904/DTD/svg10.dtd">
<svg version="1.0" xmlns="http://www.w3.org/2000/svg"
 width="2000.000000pt" height="1500.000000pt" viewBox="0 0 2000.000000 1500.000000"
 preserveAspectRatio="xMidYMid meet">

<g transform="translate(0.000000,1500.000000) scale(0.100000,-0.100000)"
fill="#000000" stroke="none">
<path d="M7400 8785 l0 -905 155 0 155 0 0 280 0 280 176 0 176 0 72 37 c134
70 233 195 292 368 21 64 28 105 32 201 6 150 -12 239 -70 357 -48 96 -150
204 -239 255 l-56 32 -347 0 -346 0 0 -905z m630 597 c94 -100 133 -279 95
-440 -20 -83 -47 -134 -103 -194 l-45 -49 -131 3 -131 3 -3 345 c-1 190 0 351
3 357 3 10 41 13 141 13 l137 0 37 -38z"/>
<path d="M8700 8785 l0 -905 160 0 160 0 0 905 0 905 -160 0 -160 0 0 -905z"/>
<path d="M9260 9555 l0 -135 314 0 c173 0 317 -3 319 -7 2 -5 -140 -289 -314
-633 l-318 -625 -1 -137 0 -138 485 0 485 0 0 130 0 130 -320 0 c-176 0 -320
3 -320 6 0 3 144 289 320 635 l320 630 0 139 0 140 -485 0 -485 0 0 -135z"/>
<path d="M10410 9555 l0 -135 315 0 c210 0 315 -3 315 -10 0 -6 -142 -291
-315 -633 l-315 -622 0 -137 0 -138 485 0 485 0 0 130 0 130 -322 2 -323 3
317 625 317 625 1 148 0 147 -480 0 -480 0 0 -135z"/>
<path d="M11870 9684 c0 -10 -341 -1778 -345 -1791 -3 -10 32 -13 153 -13
l158 0 23 123 c13 67 25 132 28 145 l5 22 228 0 228 0 10 -47 c6 -27 18 -92
28 -145 l17 -98 155 0 154 0 -6 33 c-60 336 -318 1747 -322 1760 -5 16 -26 17
-260 17 -140 0 -254 -3 -254 -6z m274 -321 c3 -16 26 -152 51 -303 25 -151 61
-355 80 -454 19 -98 35 -183 35 -187 0 -5 -85 -9 -190 -9 -154 0 -190 3 -190
14 0 7 11 74 25 147 14 74 50 283 80 464 31 182 57 336 60 343 9 24 43 13 49
-15z"/>
<path d="M7085 7308 c-3 -7 -4 -416 -3 -908 l3 -895 155 0 155 0 3 283 2 282
175 0 c174 0 176 0 233 29 154 78 267 229 318 426 24 95 24 277 1 365 -49 182
-149 314 -307 404 l-45 26 -343 0 c-265 0 -344 -3 -347 -12z m632 -300 c151
-157 135 -515 -29 -653 -28 -24 -35 -25 -159 -25 l-129 0 0 355 0 355 143 0
143 0 31 -32z"/>
<path d="M8390 6410 l0 -910 435 0 435 0 0 130 0 130 -275 0 -275 0 -2 778 -3
777 -157 3 -158 3 0 -911z"/>
<path d="M9731 7268 c-6 -29 -83 -426 -171 -883 -88 -456 -163 -842 -166 -858
l-6 -28 158 3 158 3 23 125 c12 69 25 135 28 148 l5 22 229 0 229 0 28 -150
28 -150 153 0 c84 0 153 3 153 6 0 7 -306 1687 -321 1762 l-10 52 -254 0 -254
0 -10 -52z m279 -254 c0 -31 147 -870 167 -951 l5 -23 -194 0 -195 0 33 175
c18 97 56 317 85 490 51 309 53 315 76 315 12 0 23 -3 23 -6z"/>
<path d="M10722 7183 l3 -138 318 -3 319 -2 -321 -635 -321 -634 0 -136 0
-135 485 0 485 0 0 130 0 130 -314 0 c-173 0 -317 3 -320 8 -2 4 139 290 315
635 l319 628 0 145 0 144 -485 0 -486 0 3 -137z"/>
<path d="M12185 7298 c-7 -31 -345 -1787 -345 -1793 0 -3 69 -5 154 -5 139 0
155 2 160 18 2 9 14 69 26 132 11 63 23 123 26 133 5 16 25 17 233 17 l227 0
29 -150 28 -150 153 0 c85 0 154 1 154 3 0 2 -74 410 -165 906 -91 497 -165
905 -165 907 0 2 -115 4 -255 4 l-255 0 -5 -22z m319 -565 c40 -239 100 -576
121 -670 l5 -23 -193 0 -194 0 18 98 c19 103 149 866 149 876 0 3 11 6 23 6
23 0 25 -6 71 -287z"/>
</g>
</svg>
