<?xml version="1.0" standalone="no"?>
<!DOCTYPE svg PUBLIC "-//W3C//DTD SVG 20010904//EN"
 "http://www.w3.org/TR/2001/REC-SVG-20010904/DTD/svg10.dtd">
<svg version="1.0" xmlns="http://www.w3.org/2000/svg"
 width="2000.000000pt" height="1500.000000pt" viewBox="0 0 2000.000000 1500.000000"
 preserveAspectRatio="xMidYMid meet">

<g transform="translate(0.000000,1500.000000) scale(0.100000,-0.100000)"
fill="#000000" stroke="none">
<path d="M2780 7500 l0 -1620 1575 0 1575 0 0 1620 0 1620 -1575 0 -1575 0 0
-1620z m2400 0 l0 -940 -845 0 -845 0 0 940 0 940 845 0 845 0 0 -940z"/>
<path d="M3584 8327 c-3 -8 -4 -52 -2 -98 l3 -84 98 -3 97 -3 0 101 0 100 -95
0 c-71 0 -97 -4 -101 -13z"/>
<path d="M3880 7945 l0 -395 455 0 455 0 0 395 0 395 -455 0 -455 0 0 -395z"/>
<path d="M4890 8240 l0 -100 95 0 95 0 0 100 0 100 -95 0 -95 0 0 -100z"/>
<path d="M3582 7943 l3 -98 98 -3 97 -3 0 101 0 100 -100 0 -101 0 3 -97z"/>
<path d="M4890 7940 l0 -100 95 0 95 0 0 100 0 100 -95 0 -95 0 0 -100z"/>
<path d="M3587 7743 c-4 -3 -7 -48 -7 -100 l0 -93 100 0 100 0 0 100 0 100
-93 0 c-52 0 -97 -3 -100 -7z"/>
<path d="M4890 7650 l0 -100 95 0 95 0 0 100 0 100 -95 0 -95 0 0 -100z"/>
<path d="M3584 7437 c-3 -8 -4 -52 -2 -98 l3 -84 98 -3 97 -3 0 101 0 100 -95
0 c-71 0 -97 -4 -101 -13z"/>
<path d="M3880 7055 l0 -395 455 0 455 0 0 395 0 395 -455 0 -455 0 0 -395z"/>
<path d="M4890 7350 l0 -100 95 0 95 0 0 100 0 100 -95 0 -95 0 0 -100z"/>
<path d="M3580 7055 l0 -95 100 0 100 0 0 95 0 95 -100 0 -100 0 0 -95z"/>
<path d="M4890 7055 l0 -95 95 0 95 0 0 95 0 95 -95 0 -95 0 0 -95z"/>
<path d="M3587 6853 c-4 -3 -7 -48 -7 -100 l0 -93 100 0 100 0 0 100 0 100
-93 0 c-52 0 -97 -3 -100 -7z"/>
<path d="M4890 6760 l0 -100 95 0 95 0 0 100 0 100 -95 0 -95 0 0 -100z"/>
<path d="M6270 7500 l0 -1620 5475 0 5475 0 0 1620 0 1620 -5475 0 -5475 0 0
-1620z m2775 31 c140 -344 255 -626 255 -628 0 -1 -37 -3 -82 -3 l-83 0 -70
178 -71 177 -214 0 -213 0 -71 -177 -71 -178 -77 0 c-43 0 -78 2 -78 5 0 5
404 996 483 1183 16 40 31 71 33 69 2 -1 118 -283 259 -626z m5108 593 c34 -9
89 -29 122 -46 66 -32 165 -103 165 -118 0 -10 -28 -134 -36 -163 -5 -16 -14
-10 -55 36 -95 107 -208 157 -354 157 -187 0 -345 -98 -424 -265 -139 -290 26
-632 334 -695 167 -34 348 31 456 165 l37 45 23 -92 22 -92 -43 -38 c-94 -83
-270 -148 -405 -148 -282 0 -550 210 -620 485 -19 76 -19 222 0 304 51 215
248 413 462 465 80 20 241 20 316 0z m2022 -15 c28 -11 72 -32 97 -48 l46 -30
-19 -78 c-11 -43 -22 -84 -24 -91 -3 -9 -22 4 -53 36 -27 28 -66 59 -88 70
-151 76 -312 -14 -290 -162 11 -71 49 -105 217 -192 236 -122 299 -194 307
-351 9 -177 -81 -311 -247 -363 -144 -46 -309 -11 -421 87 l-44 40 19 84 c21
97 29 110 45 79 7 -13 31 -43 53 -67 110 -119 284 -136 382 -39 88 88 84 212
-9 294 -20 18 -83 55 -138 83 -206 104 -284 170 -309 263 -17 61 -7 183 19
233 34 65 78 110 137 139 94 46 217 51 320 13z m-8404 -3 c187 -44 305 -227
256 -397 -30 -101 -71 -149 -195 -225 -2 -1 72 -112 165 -246 93 -134 184
-265 202 -291 l32 -48 -93 3 -93 3 -190 275 -190 275 -75 0 -75 0 -3 -277 -2
-278 -75 0 -75 0 0 610 0 610 178 0 c112 0 198 -5 233 -14z m2429 -56 l0 -70
-165 0 -165 0 0 -540 0 -540 -75 0 -75 0 0 540 0 540 -165 0 -165 0 0 70 0 70
405 0 405 0 0 -70z m840 0 l0 -70 -225 0 -225 0 0 -130 0 -130 175 0 175 0 0
-70 0 -70 -175 0 -175 0 0 -270 0 -270 225 0 225 0 0 -70 0 -70 -305 0 -305 0
0 610 0 610 305 0 305 0 0 -70z m850 0 l0 -70 -220 0 -220 0 0 -130 0 -130
200 0 200 0 0 -70 0 -70 -200 0 -200 0 0 -340 0 -340 -80 0 -80 0 0 610 0 610
300 0 300 0 0 -70z m370 -470 l0 -540 210 0 210 0 0 -70 0 -70 -290 0 -290 0
0 610 0 610 80 0 80 0 0 -540z m830 -70 l0 -610 -80 0 -80 0 0 610 0 610 80 0
80 0 0 -610z m1738 -2 l2 -608 -80 0 -80 0 0 610 0 611 78 -3 77 -3 3 -607z
m591 585 c-14 -16 -99 -111 -189 -213 -90 -102 -172 -195 -183 -207 l-20 -22
257 -370 c141 -203 256 -372 256 -375 0 -3 -42 -6 -92 -6 l-93 1 -258 374
-258 375 198 221 c109 121 202 227 208 235 7 10 34 14 104 14 l95 0 -25 -27z"/>
<path d="M8752 7733 c-12 -38 -46 -129 -76 -203 l-54 -135 79 -3 c43 -2 114
-2 158 0 l79 3 -59 148 c-32 82 -66 173 -76 203 -9 30 -19 54 -23 54 -3 0 -16
-30 -28 -67z"/>
<path d="M7510 7786 l0 -196 98 0 c53 0 113 5 133 10 92 26 144 95 144 190 -1
71 -30 120 -93 157 -41 24 -58 27 -164 31 l-118 4 0 -196z"/>
</g>
</svg>
