<?xml version="1.0" encoding="UTF-8"?>
<svg version="1.1" xmlns="http://www.w3.org/2000/svg" width="2000" height="1500">
<path d="M0 0 C660 0 1320 0 2000 0 C2000 495 2000 990 2000 1500 C1340 1500 680 1500 0 1500 C0 1005 0 510 0 0 Z " fill="#333333" transform="translate(0,0)"/>
<path d="M0 0 C16.19410794 -0.23372393 32.38766798 -0.40999995 48.5830555 -0.51812172 C56.10314474 -0.56966216 63.62218544 -0.63990958 71.14160156 -0.75439453 C77.69652471 -0.85414717 84.25068857 -0.9185995 90.80634964 -0.94088495 C94.27723254 -0.95391124 97.74594362 -0.98445528 101.2161293 -1.05730057 C105.09257572 -1.13801201 108.96690856 -1.13989456 112.84423828 -1.13525391 C114.56514427 -1.18918304 114.56514427 -1.18918304 116.32081604 -1.24420166 C119.51516518 -1.20277632 121.98967837 -1.07640324 125 0 C127.78814592 3.02380634 129.37623689 6.25070461 131 10 C131.94806519 11.66313232 131.94806519 11.66313232 132.9152832 13.35986328 C133.45499756 14.33681152 133.99471191 15.31375977 134.55078125 16.3203125 C135.16300537 17.42576416 135.77522949 18.53121582 136.40600586 19.67016602 C137.34972046 21.38030884 137.34972046 21.38030884 138.3125 23.125 C143.60323513 32.70864578 143.60323513 32.70864578 148.9765625 42.24609375 C149.40026123 42.99036621 149.82395996 43.73463867 150.26049805 44.50146484 C151.02402426 45.83846718 151.79091709 47.1735547 152.56176758 48.50634766 C155 52.78086827 155 52.78086827 155 55 C157.66832407 52.59333485 159.28262452 50.01747845 161.046875 46.8984375 C161.63774902 45.86195068 162.22862305 44.82546387 162.83740234 43.75756836 C163.46855957 42.6413208 164.0997168 41.52507324 164.75 40.375 C166.08935566 38.028897 167.4299989 35.68360393 168.7734375 33.33984375 C169.28972214 32.43834343 169.28972214 32.43834343 169.81643677 31.51863098 C173.59043051 24.94428294 177.47227903 18.4360327 181.375 11.9375 C182.34711426 10.31497314 182.34711426 10.31497314 183.33886719 8.65966797 C187.86906339 1.13093661 187.86906339 1.13093661 189 0 C192.01350238 -0.09529612 195.00404106 -0.12551904 198.01782227 -0.11352539 C198.96406464 -0.11367142 199.91030701 -0.11381744 200.88522339 -0.1139679 C204.02897392 -0.11326836 207.17266601 -0.10547409 210.31640625 -0.09765625 C212.48974068 -0.09579221 214.66307552 -0.09436824 216.83641052 -0.09336853 C222.56901195 -0.08954221 228.30158823 -0.07971097 234.03417969 -0.06866455 C239.87890279 -0.05845287 245.72362993 -0.05387143 251.56835938 -0.04882812 C263.045584 -0.0380888 274.52278991 -0.02101102 286 0 C284.58902773 3.59228612 283.02906765 6.96689013 281.19921875 10.3671875 C280.64121582 11.40528564 280.08321289 12.44338379 279.50830078 13.51293945 C278.90743652 14.62241943 278.30657227 15.73189941 277.6875 16.875 C277.06085449 18.03539795 276.43420898 19.1957959 275.78857422 20.39135742 C271.29991235 28.68398804 266.69930125 36.91004128 262.03564453 45.10546875 C257.6463389 52.8266384 253.34369443 60.59362431 249.0625 68.375 C243.98534556 77.59856297 238.8904638 86.81149259 233.75 96 C233.18603516 97.01215576 232.62207031 98.02431152 232.04101562 99.06713867 C229.23335601 104.08912428 226.37772832 109.07299277 223.42578125 114.01171875 C222.85956055 114.96884766 222.29333984 115.92597656 221.70996094 116.91210938 C220.64289191 118.70974434 219.56229862 120.49944769 218.46582031 122.27929688 C216.48252572 125.63397537 215.05360683 128.06675379 214.828125 131.9921875 C216.58245756 136.49497442 219.06995752 140.38849489 221.6875 144.4375 C222.88380693 146.32749592 224.07908489 148.21814347 225.2734375 150.109375 C225.89186523 151.08326172 226.51029297 152.05714844 227.14746094 153.06054688 C230.09328167 157.73472738 232.95157484 162.46105672 235.8125 167.1875 C240.8450798 175.47691111 245.91177899 183.74463348 251 192 C256.08822732 200.25537674 261.15355832 208.52390924 266.1875 216.8125 C270.52812671 223.95922531 274.90068249 231.08451487 279.3125 238.1875 C284.28130358 246.2003397 289.22859122 254.2262852 294.1421814 262.27310181 C294.91944673 263.54454647 295.69826496 264.81504317 296.47866821 266.08456421 C297.56946465 267.85980374 298.6545579 269.63840512 299.73828125 271.41796875 C300.36774658 272.44688232 300.99721191 273.4757959 301.64575195 274.53588867 C303 277 303 277 303 279 C260.76 279 218.52 279 175 279 C167.88845276 265.96216339 160.8027947 252.9624933 154.03198242 239.75195312 C152.77839653 237.30852725 151.51724714 234.86909338 150.25585938 232.4296875 C149.44746808 230.85700134 148.63950733 229.28409377 147.83203125 227.7109375 C147.45923538 226.99126801 147.08643951 226.27159851 146.7023468 225.53012085 C145.09283685 222.37573094 143.76754704 219.45409484 143 216 C142.34 216 141.68 216 141 216 C140.72736832 216.87025314 140.45473663 217.74050629 140.17384338 218.63713074 C139.0529025 221.848443 137.7401687 224.76700818 136.21850586 227.8059082 C135.66130356 228.92338943 135.10410126 230.04087067 134.53001404 231.19221497 C133.92510228 232.39514332 133.32004204 233.59799702 132.71484375 234.80078125 C132.09203877 236.04519786 131.46953055 237.28976302 130.8473053 238.5344696 C129.5477322 241.13205743 128.24549587 243.72828582 126.94116211 246.32348633 C125.26686796 249.65500773 123.59791473 252.98916932 121.93074703 256.32426167 C120.64815398 258.88917648 119.36348272 261.45304554 118.07809639 264.01656151 C117.461604 265.24635942 116.84559916 266.47640185 116.23008537 267.70668983 C115.3727717 269.41915825 114.51251056 271.13015013 113.65209961 272.84106445 C113.16293564 273.8155806 112.67377167 274.79009674 112.16978455 275.79414368 C111 278 111 278 110 279 C108.6465941 279.09531163 107.28826016 279.1218872 105.9315033 279.12025452 C104.61683327 279.12231651 104.61683327 279.12231651 103.27560425 279.12442017 C102.30672272 279.12082489 101.33784119 279.11722961 100.33959961 279.11352539 C99.32508224 279.11367142 98.31056488 279.11381744 97.26530457 279.1139679 C93.89429627 279.11326829 90.52334246 279.10547368 87.15234375 279.09765625 C84.82206757 279.09579224 82.491791 279.09436826 80.16151428 279.09336853 C74.01462735 279.08954202 67.86776387 279.0797106 61.72088623 279.06866455 C55.45390134 279.05845329 49.18691268 279.05387152 42.91992188 279.04882812 C30.61327092 279.03808845 18.30663741 279.02101044 6 279 C14.61948181 261.72618805 14.61948181 261.72618805 18.3671875 254.44921875 C18.72819046 253.74662933 19.08919342 253.04403992 19.46113586 252.32015991 C20.59796985 250.10869448 21.73629619 247.89800316 22.875 245.6875 C23.27006744 244.92009491 23.66513489 244.15268982 24.07217407 243.36203003 C31.04931166 229.81151013 38.0690853 216.28792755 45.30078125 202.87109375 C53.31357699 187.99388091 61.14956532 173.03979381 68.83398438 157.99023438 C69.19664398 157.28130035 69.55930359 156.57236633 69.93295288 155.84194946 C70.63798649 154.46219872 71.34086502 153.08134429 72.04141235 151.6993103 C74.54979123 146.77859425 77.2726729 142.0153484 80.17944336 137.31665039 C81.25634116 134.98034146 81.25634116 134.98034146 80.29443359 132.45874023 C79.11994446 130.22783113 77.94009397 128.03301807 76.63671875 125.875 C76.16911133 125.09753418 75.70150391 124.32006836 75.21972656 123.51904297 C74.7140918 122.68775879 74.20845703 121.85647461 73.6875 121 C73.15479492 120.11844238 72.62208984 119.23688477 72.07324219 118.32861328 C67.26096001 110.38455074 62.37349344 102.48728341 57.47265625 94.59765625 C53.69399961 88.51301127 49.93960861 82.41354136 46.1875 76.3125 C45.5162207 75.22114746 44.84494141 74.12979492 44.15332031 73.00537109 C42.78491301 70.78048569 41.41658656 68.55555056 40.04833984 66.33056641 C38.02883424 63.046884 36.00870083 59.76358886 33.98828125 56.48046875 C33.32916748 55.40941895 32.67005371 54.33836914 31.9909668 53.23486328 C30.66839499 51.08598818 29.34564238 48.93722433 28.02270508 46.78857422 C24.92582311 41.75809444 21.83095294 36.72641584 18.74407959 31.68978882 C17.30210504 29.33733237 15.85886163 26.98565558 14.41552734 24.6340332 C13.4099022 22.99440647 12.40609015 21.35366816 11.40234375 19.71289062 C8.07694303 14.29615162 4.68502593 8.96174527 1.05322266 3.74438477 C0 2 0 2 0 0 Z " fill="#FEBE00" transform="translate(1429,609)"/>
<path d="M0 0 C66.33 0 132.66 0 201 0 C201 26.73 201 53.46 201 81 C170.64 81 140.28 81 109 81 C109 88.26 109 95.52 109 103 C139.36 103 169.72 103 201 103 C201 125.77 201 148.54 201 172 C170.64 172 140.28 172 109 172 C109 180.58 109 189.16 109 198 C141.34 198 173.68 198 207 198 C207 224.73 207 251.46 207 279 C138.69 279 70.38 279 0 279 C0 186.93 0 94.86 0 0 Z " fill="#FEBE00" transform="translate(805,609)"/>
<path d="M0 0 C1.16352997 -0.00367584 2.32705994 -0.00735168 3.52584839 -0.01113892 C29.49751003 -0.02426794 53.94029063 3.20382266 79.125 9.5 C79.125 35.9 79.125 62.3 79.125 89.5 C72.34607548 88.88373413 66.05415816 88.2425522 59.46875 86.87109375 C57.86541399 86.55279523 56.26172044 86.23629362 54.65771484 85.92138672 C53.83535339 85.75958923 53.01299194 85.59779175 52.16571045 85.43109131 C39.26605487 82.92503719 26.67139748 80.83174569 13.5 80.875 C12.40623047 80.87685303 11.31246094 80.87870605 10.18554688 80.88061523 C3.10530723 81.00599715 3.10530723 81.00599715 -2.875 84.5 C-4.1931015 88.60937526 -4.24372256 90.66199417 -2.5 94.625 C4.85308505 102.67837886 17.70778375 106.69782209 27.46411133 111.33520508 C55.08139821 124.48044114 80.69945188 139.98805385 92.19921875 169.82421875 C96.0624737 180.99016661 96.3270037 192.1639022 96.375 203.875 C96.4059375 205.75058594 96.4059375 205.75058594 96.4375 207.6640625 C96.47008087 215.45088964 95.64510009 222.1314298 93.125 229.5 C92.54298828 231.26537109 92.54298828 231.26537109 91.94921875 233.06640625 C87.50021718 244.79281244 81.77957355 253.44645674 73.125 262.5 C72.58359375 263.11617187 72.0421875 263.73234375 71.484375 264.3671875 C52.64117029 285.01857852 19.7651146 292.20863794 -6.875 293.5 C-12.76942559 293.70734773 -18.66490984 293.74344051 -24.5625 293.75 C-25.36504211 293.75167175 -26.16758423 293.75334351 -26.9944458 293.75506592 C-40.88617628 293.75678574 -54.42364897 292.79863681 -68.19433594 290.8671875 C-70.52622464 290.54777396 -72.85442293 290.27352702 -75.1953125 290.03125 C-92.4860051 288.1222988 -107.80164984 283.11334295 -122.875 274.5 C-122.875 248.1 -122.875 221.7 -122.875 194.5 C-116.89258901 195.82942466 -111.01325091 197.21834297 -105.125 198.875 C-104.33843018 199.09414063 -103.55186035 199.31328125 -102.74145508 199.5390625 C-98.32039613 200.77993493 -93.93547694 202.09745459 -89.5625 203.5 C-83.82298076 205.28903589 -78.02739811 206.76904194 -72.1875 208.1875 C-71.32020264 208.40212891 -70.45290527 208.61675781 -69.55932617 208.83789062 C-57.14285145 211.79020785 -41.62242148 214.48888154 -29.875 208.5 C-27.9831779 204.71635581 -28.27859263 200.61272582 -28.875 196.5 C-32.88285247 187.13549857 -47.57076447 181.77322832 -55.95703125 177.12890625 C-84.10204603 161.53539023 -110.82335143 144.65625159 -121.18359375 112.4140625 C-126.35296923 90.62675115 -124.64452699 65.48136574 -113.2109375 46.04296875 C-109.50603537 40.17607592 -104.81803441 35.3287446 -99.875 30.5 C-98.81539063 29.40945313 -98.81539063 29.40945313 -97.734375 28.296875 C-81.78784401 12.83726099 -59.07041024 6.55625452 -37.875 2.5 C-36.98441895 2.31308594 -36.09383789 2.12617187 -35.17626953 1.93359375 C-23.57223959 -0.21953178 -11.761464 0.0187385 0 0 Z " fill="#FEBE00" transform="translate(387.875,601.5)"/>
<path d="M0 0 C87.12 0 174.24 0 264 0 C264 30.03 264 60.06 264 91 C238.26 91 212.52 91 186 91 C186 153.04 186 215.08 186 279 C150.36 279 114.72 279 78 279 C78 216.96 78 154.92 78 91 C52.26 91 26.52 91 0 91 C0 60.97 0 30.94 0 0 Z " fill="#FEBE00" transform="translate(510,609)"/>
<path d="M0 0 C35.97 0 71.94 0 109 0 C109 64.35 109 128.7 109 195 C140.02 195 171.04 195 203 195 C203 222.72 203 250.44 203 279 C136.01 279 69.02 279 0 279 C0 186.93 0 94.86 0 0 Z " fill="#FEBE00" transform="translate(1053,609)"/>
<path d="M0 0 C35.97 0 71.94 0 109 0 C109 92.07 109 184.14 109 279 C73.03 279 37.06 279 0 279 C0 186.93 0 94.86 0 0 Z " fill="#FEBE00" transform="translate(1282,609)"/>
</svg>
