<?xml version="1.0" standalone="no"?>
<!DOCTYPE svg PUBLIC "-//W3C//DTD SVG 20010904//EN"
 "http://www.w3.org/TR/2001/REC-SVG-20010904/DTD/svg10.dtd">
<svg version="1.0" xmlns="http://www.w3.org/2000/svg"
 width="300.000000pt" height="300.000000pt" viewBox="0 0 300.000000 300.000000"
 preserveAspectRatio="xMidYMid meet">

<g transform="translate(0.000000,300.000000) scale(0.100000,-0.100000)"
fill="#000000" stroke="none">
<path d="M0 1500 l0 -1500 1500 0 1500 0 0 1500 0 1500 -1500 0 -1500 0 0
-1500z m854 225 c-3 -11 -12 -26 -19 -33 -17 -19 -88 -26 -125 -14 -39 14 -39
15 -80 -183 -17 -82 -36 -171 -42 -197 l-10 -48 -44 0 c-24 0 -44 3 -44 8 0
12 26 139 59 286 17 77 31 144 31 148 0 14 -49 9 -81 -8 -36 -18 -59 -67 -59
-124 0 -45 -10 -50 -41 -19 -17 17 -20 28 -14 57 8 45 36 92 67 112 53 35 83
39 245 37 157 -2 162 -3 157 -22z m794 8 c5 -10 17 -72 26 -138 24 -165 32
-203 39 -185 3 8 20 87 39 175 l33 160 43 3 c38 3 42 1 42 -20 0 -13 -5 -41
-10 -63 -6 -22 -26 -116 -46 -210 -20 -93 -40 -178 -45 -187 -6 -12 -21 -18
-42 -18 l-33 0 -16 93 c-9 50 -22 129 -29 174 -7 46 -15 80 -18 77 -6 -5 -17
-56 -57 -256 l-18 -88 -47 0 -46 0 8 43 c5 23 26 125 48 227 22 101 38 187 35
189 -9 9 -60 -37 -76 -70 -10 -19 -18 -53 -18 -76 0 -50 -20 -58 -46 -18 -33
50 11 141 85 180 57 30 136 34 149 8z m-518 -21 c0 -10 -43 -214 -65 -309 -18
-79 -15 -93 18 -93 36 0 44 12 49 71 5 58 36 130 69 162 25 23 81 47 111 47
42 0 68 -27 68 -71 0 -53 -60 -116 -120 -125 -34 -6 -40 -10 -40 -31 0 -45 17
-63 61 -63 31 0 51 8 79 30 21 17 41 30 46 30 13 0 -49 -61 -88 -86 -50 -32
-124 -33 -157 -3 l-23 22 -38 -22 c-21 -11 -52 -21 -68 -21 -35 0 -72 33 -72
63 0 16 -5 15 -36 -13 -20 -17 -47 -36 -61 -41 -41 -15 -106 -10 -133 11 -23
17 -25 26 -25 92 1 82 18 127 70 182 49 52 140 60 168 15 13 -21 1 -81 -21
-106 -25 -30 -84 -63 -109 -63 -18 0 -23 -6 -23 -26 0 -68 62 -87 132 -39 40
27 48 46 74 184 8 42 19 92 23 111 5 19 12 47 15 62 5 21 13 28 39 31 17 2 38
5 45 5 6 1 12 -1 12 -6z m1186 -39 c-3 -10 -8 -35 -12 -55 -5 -31 -3 -38 10
-38 9 0 16 -4 16 -10 0 -5 -8 -10 -18 -10 -15 0 -22 -18 -40 -102 -30 -138
-29 -148 7 -148 36 0 47 14 54 71 7 53 36 125 64 156 42 48 131 67 165 36 53
-48 -11 -161 -102 -179 -29 -6 -31 -9 -28 -47 2 -34 7 -42 28 -48 29 -7 86 13
117 43 34 32 36 18 2 -20 -45 -51 -88 -72 -143 -72 -41 0 -55 5 -78 27 -17 17
-32 24 -36 18 -31 -44 -116 -59 -147 -25 -15 17 -17 30 -11 87 3 38 9 82 12
98 5 25 4 28 -7 18 -7 -7 -23 -13 -35 -13 -23 0 -34 -17 -34 -53 0 -31 -54
-121 -84 -140 -14 -10 -45 -17 -72 -17 -61 0 -104 42 -104 101 0 49 34 140 67
180 26 31 81 59 115 59 40 0 77 -32 83 -72 7 -41 7 -41 53 -32 23 5 31 13 36
37 4 20 2 34 -6 39 -10 6 -10 10 2 18 8 5 20 29 25 52 10 38 15 44 45 49 58
11 62 10 56 -8z"/>
<path d="M861 1553 c-25 -10 -77 -143 -55 -143 9 0 48 22 60 34 20 21 34 55
34 85 0 30 -9 36 -39 24z"/>
<path d="M1266 1518 c-27 -46 -37 -99 -21 -105 6 -2 26 9 44 25 29 24 34 35
35 72 1 62 -24 66 -58 8z"/>
<path d="M2494 1552 c-15 -9 -50 -79 -58 -115 -6 -26 -5 -28 16 -22 42 12 78
61 78 105 0 39 -11 49 -36 32z"/>
<path d="M1998 1540 c-44 -26 -79 -220 -42 -234 24 -9 28 -8 52 14 31 29 55
115 39 141 -9 15 -9 23 1 39 19 31 15 50 -10 50 -13 0 -31 -5 -40 -10z"/>
</g>
</svg>
