<?xml version="1.0" standalone="no"?>
<!DOCTYPE svg PUBLIC "-//W3C//DTD SVG 20010904//EN"
 "http://www.w3.org/TR/2001/REC-SVG-20010904/DTD/svg10.dtd">
<svg version="1.0" xmlns="http://www.w3.org/2000/svg"
 width="2000.000000pt" height="2164.000000pt" viewBox="0 0 2000.000000 2164.000000"
 preserveAspectRatio="xMidYMid meet">

<g transform="translate(0.000000,2164.000000) scale(0.100000,-0.100000)"
fill="#000000" stroke="none">
<path d="M9630 21423 c-1443 -46 -2834 -340 -4100 -868 -2112 -879 -3773
-2359 -4645 -4140 -410 -839 -635 -1695 -685 -2610 -6 -109 -10 -1287 -10
-2985 0 -2789 3 -2995 35 -3315 203 -1985 1308 -3820 3120 -5180 1036 -778
2269 -1366 3605 -1721 1803 -478 3775 -520 5610 -118 2592 567 4792 1983 6076
3909 640 960 1024 2010 1139 3110 35 338 36 527 33 3465 -5 3171 -1 2959 -63
3410 -322 2309 -1891 4397 -4285 5702 -1713 934 -3771 1407 -5830 1341z m860
-263 c2060 -93 3964 -684 5560 -1728 751 -491 1439 -1104 1987 -1770 357 -434
725 -1007 946 -1472 391 -825 601 -1624 657 -2505 14 -218 14 -5512 0 -5730
-98 -1541 -695 -2940 -1788 -4195 -154 -177 -540 -565 -717 -722 -379 -334
-792 -645 -1210 -910 -1164 -738 -2531 -1253 -3965 -1493 -1033 -174 -2060
-210 -3115 -109 -1854 175 -3629 800 -5064 1782 -1956 1338 -3182 3238 -3410
5287 -42 377 -42 416 -39 3340 4 3085 0 2859 64 3303 178 1247 728 2445 1599
3487 916 1095 2145 1979 3590 2582 1229 514 2563 801 3980 856 189 8 725 6
925 -3z"/>
<path d="M18070 14020 c0 -7 -2717 -10 -8130 -10 l-8130 0 0 -2825 0 -2825
8123 -2 8122 -3 3 -67 3 -68 -8126 0 c-8118 0 -8125 0 -8125 -20 0 -20 7 -20
8185 -20 l8185 0 0 2925 0 2925 -55 0 c-30 0 -55 -4 -55 -10z m-8113 -1191
c189 -21 374 -84 499 -170 184 -126 306 -349 348 -631 9 -58 16 -113 16 -122
0 -14 -32 -16 -324 -16 l-323 0 -6 53 c-14 134 -91 243 -204 289 -52 20 -74
23 -213 23 -175 0 -242 -15 -313 -69 -63 -49 -82 -95 -82 -201 0 -78 4 -97 27
-141 60 -115 199 -191 663 -364 457 -169 634 -265 748 -406 111 -135 150 -259
149 -474 0 -388 -145 -623 -485 -785 -273 -131 -684 -168 -1048 -95 -428 87
-702 310 -805 657 -20 69 -27 118 -31 226 l-6 137 329 -2 329 -3 7 -65 c31
-281 210 -410 569 -410 297 0 442 80 465 256 4 36 1 69 -11 109 -32 113 -141
188 -420 290 -429 158 -601 235 -761 341 -97 64 -234 205 -287 295 -99 169
-131 425 -81 654 66 300 325 525 689 599 173 35 387 45 562 25z m-3947 -47 c0
-5 -268 -525 -596 -1158 -447 -864 -609 -1168 -653 -1224 -31 -41 -60 -79 -63
-85 -4 -7 205 -9 623 -7 l629 3 -2 -293 -3 -293 -1132 -3 c-757 -1 -1133 1
-1133 8 0 6 273 524 607 1153 601 1132 607 1143 690 1236 45 52 81 96 79 98
-2 2 -75 -1 -162 -7 -91 -6 -355 -10 -614 -8 l-455 3 -3 293 -2 292 1095 0
c602 0 1095 -4 1095 -8z m2270 -297 l0 -305 -610 0 -610 0 0 -290 0 -290 540
0 540 0 0 -305 0 -305 -540 0 -540 0 0 -325 0 -325 630 0 630 0 -2 -307 -3
-308 -957 -3 -958 -2 0 1535 0 1535 940 0 940 0 0 -305z m5050 0 l0 -305 -380
0 -380 0 0 -1230 0 -1230 -332 2 -333 3 0 1160 0 1160 22 42 c14 25 40 52 65
67 l43 26 -447 0 -448 0 0 305 0 305 1095 0 1095 0 0 -305z m1064 -170 c279
-680 407 -976 419 -972 15 5 210 459 434 1009 l178 438 383 0 c210 0 382 -2
382 -4 0 -2 -234 -476 -520 -1052 l-520 -1049 -2 -480 -3 -480 -335 0 -335 0
-5 495 -5 495 -512 1029 c-282 566 -513 1033 -513 1037 0 5 166 8 381 7 l381
-3 192 -470z"/>
</g>
</svg>
