<?xml version="1.0" standalone="no"?>
<!DOCTYPE svg PUBLIC "-//W3C//DTD SVG 20010904//EN"
 "http://www.w3.org/TR/2001/REC-SVG-20010904/DTD/svg10.dtd">
<svg version="1.0" xmlns="http://www.w3.org/2000/svg"
 width="2000.000000pt" height="1500.000000pt" viewBox="0 0 2000.000000 1500.000000"
 preserveAspectRatio="xMidYMid meet">

<g transform="translate(0.000000,1500.000000) scale(0.100000,-0.100000)"
fill="#000000" stroke="none">
<path d="M0 7500 l0 -7500 10000 0 10000 0 0 7500 0 7500 -10000 0 -10000 0 0
-7500z m9600 3035 c228 -13 565 -68 858 -140 169 -42 348 -98 364 -113 6 -7
-74 -567 -83 -576 -2 -2 -51 16 -109 40 -159 67 -505 196 -685 254 -362 116
-608 162 -996 185 -99 6 -113 5 -215 -25 -406 -117 -756 -326 -1037 -620 -444
-463 -687 -1067 -716 -1775 -34 -869 166 -1540 611 -2045 296 -336 720 -571
1205 -670 208 -42 358 -53 643 -47 263 5 415 21 610 61 41 9 76 16 78 16 1 0
2 484 2 1075 l0 1075 415 0 415 0 0 -1124 c0 -1061 -1 -1124 -17 -1131 -122
-49 -418 -135 -583 -168 -605 -123 -1255 -149 -1775 -72 -614 91 -1168 319
-1590 655 -440 350 -757 865 -869 1410 -93 453 -83 1020 26 1475 160 670 575
1260 1168 1661 400 270 815 439 1325 538 341 67 576 81 955 61z m6280 -380 c0
-159 -4 -285 -9 -285 -5 0 -238 52 -517 116 l-509 116 -150 -11 c-143 -10
-286 -31 -367 -52 l-38 -10 -2 -2617 -3 -2617 -412 -3 -413 -2 0 2619 0 2619
-71 17 c-102 23 -255 42 -389 49 l-115 6 -578 -133 c-557 -129 -578 -133 -582
-113 -5 24 -45 530 -45 564 l0 22 2100 0 2100 0 0 -285z m-7050 -6566 c43 -9
50 -14 50 -35 0 -28 -5 -29 -54 -9 -143 60 -262 -32 -260 -200 0 -77 15 -113
61 -157 37 -36 73 -48 139 -48 l54 0 0 90 0 90 35 0 35 0 0 -95 0 -95 -27 -7
c-16 -4 -66 -8 -113 -8 -170 0 -263 83 -262 234 1 112 62 193 174 232 62 21
98 23 168 8z m499 -18 c134 -69 144 -309 16 -407 -94 -72 -230 -70 -309 4 -78
74 -90 231 -25 327 65 94 212 129 318 76z m391 -41 c15 -36 62 -143 103 -238
l76 -173 -42 3 c-41 3 -42 4 -66 66 l-24 63 -106 -3 -105 -3 -25 -62 c-18 -47
-29 -63 -44 -63 -23 0 -31 -22 91 258 53 122 101 221 105 219 5 -1 21 -32 37
-67z m1811 -27 c23 -54 70 -162 105 -240 l63 -143 -40 0 c-38 0 -39 1 -68 65
l-30 66 -103 -3 -102 -3 -25 -62 c-17 -46 -29 -63 -43 -63 -10 0 -18 3 -18 6
0 14 205 474 211 474 4 0 26 -44 50 -97z m539 86 c44 -9 51 -14 48 -32 -3 -25
-9 -25 -88 -2 -67 19 -113 9 -165 -37 -69 -60 -84 -202 -31 -293 45 -76 157
-107 259 -71 34 13 37 12 37 -4 0 -14 -13 -21 -57 -30 -136 -29 -261 12 -317
104 -27 42 -30 58 -30 120 0 85 23 137 84 189 42 35 120 65 177 66 18 1 55 -4
83 -10z m-2030 -214 l0 -215 26 -6 c26 -7 119 1 148 12 12 5 16 0 16 -20 l0
-26 -130 0 -130 0 0 235 0 235 35 0 35 0 0 -215z m760 189 c0 -25 -2 -26 -37
-18 -21 4 -54 8 -73 8 l-35 1 -3 -217 -2 -218 -35 0 -35 0 0 220 0 220 -22 0
c-13 0 -43 -5 -67 -11 -34 -8 -46 -7 -52 3 -23 36 -13 38 176 38 l185 0 0 -26z
m321 3 c34 -18 47 -33 58 -63 20 -59 -1 -104 -65 -134 -27 -13 -51 -24 -52
-26 -2 -1 37 -51 86 -111 95 -113 97 -121 32 -122 -21 0 -38 19 -104 114 -70
101 -83 115 -108 115 l-28 0 0 -110 0 -110 -35 0 -35 0 0 235 0 235 103 0 c89
0 110 -3 148 -23z m1170 -89 l0 -113 107 113 c80 83 114 112 132 112 21 0 8
-17 -85 -110 l-110 -110 124 -124 c113 -113 121 -124 99 -129 -55 -15 -64 -9
-164 109 l-99 116 -3 -111 -3 -111 -39 0 -40 0 0 235 0 235 40 0 40 0 1 -112z
m639 86 c0 -22 -3 -25 -23 -20 -47 11 -136 18 -161 12 -25 -6 -26 -8 -26 -91
l0 -84 75 -3 c100 -4 102 -22 3 -26 l-78 -3 0 -99 c0 -115 -13 -107 129 -90
47 5 86 8 87 7 2 -2 1 -13 -3 -25 -5 -21 -9 -22 -144 -22 l-139 0 0 235 0 235
140 0 140 0 0 -26z m342 16 c50 -14 88 -61 88 -109 0 -49 -23 -79 -80 -105
l-48 -22 90 -108 c94 -113 98 -125 37 -126 -21 0 -39 18 -105 113 -64 90 -85
113 -107 115 l-27 3 0 -110 0 -111 -40 0 -40 0 0 235 0 235 98 0 c53 0 114 -5
134 -10z"/>
<path d="M9146 3547 c-28 -15 -49 -39 -69 -77 -26 -50 -28 -62 -25 -135 4 -94
27 -148 72 -176 40 -25 112 -25 152 0 90 55 110 268 33 356 -17 19 -38 36 -47
39 -58 16 -79 15 -116 -7z"/>
<path d="M9657 3483 c-3 -4 -23 -52 -46 -105 l-40 -98 89 0 c50 0 90 2 90 3 0
6 -80 200 -84 204 -2 3 -6 1 -9 -4z"/>
<path d="M11441 3449 c-11 -24 -30 -71 -44 -104 l-25 -60 85 -3 c47 -2 87 -1
89 1 4 3 -74 197 -82 206 -2 2 -12 -16 -23 -40z"/>
<path d="M10958 3553 c-16 -4 -18 -17 -18 -94 l0 -89 56 0 c48 0 59 4 85 29
21 22 29 39 29 66 0 52 -44 95 -97 94 -21 -1 -46 -3 -55 -6z"/>
<path d="M13138 3553 c-16 -4 -18 -17 -18 -94 l0 -89 44 0 c65 0 95 15 112 56
18 43 5 95 -29 119 -20 14 -71 18 -109 8z"/>
</g>
</svg>
