<?xml version="1.0" standalone="no"?>
<!DOCTYPE svg PUBLIC "-//W3C//DTD SVG 20010904//EN"
 "http://www.w3.org/TR/2001/REC-SVG-20010904/DTD/svg10.dtd">
<svg version="1.0" xmlns="http://www.w3.org/2000/svg"
 width="2000.000000pt" height="1495.000000pt" viewBox="0 0 2000.000000 1495.000000"
 preserveAspectRatio="xMidYMid meet">

<g transform="translate(0.000000,1495.000000) scale(0.100000,-0.100000)"
fill="#000000" stroke="none">
<path d="M9545 14714 c-438 -40 -832 -122 -1230 -258 -1105 -375 -2033 -1091
-2692 -2076 -72 -108 -99 -140 -134 -160 l-44 -25 -2460 -5 -2460 -5 -50 -27
c-60 -32 -114 -87 -146 -148 l-24 -45 0 -2475 0 -2475 24 -49 c48 -98 130
-157 242 -176 43 -6 860 -10 2466 -10 1672 0 2410 -3 2430 -11 44 -16 79 -55
159 -175 195 -296 394 -536 673 -814 288 -287 501 -463 806 -665 1571 -1040
3573 -1158 5254 -310 521 262 917 550 1342 974 280 280 479 520 673 814 79
120 115 160 159 176 20 8 758 11 2430 11 1606 0 2423 4 2466 10 112 19 194 78
242 176 l24 49 0 2475 0 2475 -24 45 c-32 61 -86 116 -146 148 l-50 27 -2460
5 -2460 5 -44 25 c-34 20 -64 55 -145 175 -520 767 -1165 1344 -1968 1759
-612 317 -1302 511 -2007 566 -184 14 -663 11 -846 -6z m780 -114 c468 -31
915 -120 1349 -270 1061 -367 1983 -1084 2601 -2021 89 -134 132 -180 204
-213 l46 -21 2460 -5 2460 -5 38 -24 c21 -13 50 -42 65 -64 l27 -41 3 -2425
c2 -1703 0 -2437 -8 -2463 -14 -50 -56 -97 -105 -119 -38 -18 -134 -19 -2466
-19 -2675 0 -2475 5 -2575 -63 -38 -25 -73 -67 -159 -193 -328 -482 -647 -828
-1075 -1171 -777 -621 -1668 -982 -2710 -1095 -156 -17 -796 -17 -955 0 -938
101 -1729 392 -2465 908 -524 367 -942 795 -1325 1358 -86 126 -121 168 -159
193 -100 68 100 63 -2575 63 -2332 0 -2428 1 -2466 19 -49 22 -91 69 -105 119
-8 26 -10 760 -8 2463 l3 2425 27 41 c15 22 44 51 65 64 l38 24 2460 5 2460 5
46 21 c72 34 114 78 207 218 616 931 1523 1638 2577 2008 636 224 1347 322
2020 278z"/>
<path d="M9746 14030 c-839 -53 -1620 -317 -2311 -784 -558 -377 -1065 -920
-1400 -1501 -79 -137 -231 -447 -284 -580 -157 -392 -267 -840 -313 -1270 -20
-188 -17 -763 5 -950 97 -813 375 -1540 833 -2175 745 -1036 1854 -1704 3114
-1879 435 -60 940 -53 1376 20 1127 187 2134 783 2854 1689 98 124 308 434
383 567 119 210 235 458 320 688 303 818 364 1739 171 2595 -363 1615 -1575
2916 -3162 3394 -277 83 -579 142 -882 171 -190 19 -530 26 -704 15z m539
-120 c582 -38 1137 -180 1648 -424 1266 -603 2185 -1775 2462 -3140 178 -880
97 -1760 -240 -2601 -110 -273 -313 -640 -496 -897 -241 -337 -574 -686 -894
-934 -624 -486 -1361 -798 -2132 -903 -228 -32 -368 -41 -614 -41 -517 0 -946
69 -1429 229 -399 133 -797 333 -1146 577 -367 255 -763 641 -1031 1004 -468
635 -749 1346 -849 2145 -25 203 -30 706 -9 925 115 1219 697 2306 1645 3076
271 220 578 411 915 571 663 314 1433 460 2170 413z"/>
<path d="M9297 11063 c-4 -3 -7 -28 -7 -55 l0 -48 -712 0 -713 0 -115 -103
c-63 -57 -248 -222 -410 -366 -162 -145 -296 -266 -298 -270 -1 -4 193 -201
432 -439 l434 -432 551 0 551 0 0 -680 0 -680 -573 0 -574 0 -244 312 c-134
172 -263 337 -286 367 l-43 54 0 -516 0 -517 85 0 85 0 0 45 0 45 803 0 804 0
429 476 c236 262 429 480 429 484 0 7 -150 148 -678 638 l-196 182 -551 0
-550 0 0 595 0 595 468 0 467 0 278 -355 c154 -195 283 -358 288 -361 5 -3 9
207 9 515 l0 521 -78 0 c-43 0 -82 -3 -85 -7z"/>
<path d="M12437 11063 c-4 -3 -7 -28 -7 -55 l0 -48 -712 0 -713 -1 -410 -366
c-225 -201 -411 -369 -413 -373 -1 -4 194 -201 434 -439 l436 -431 549 0 549
0 0 -680 0 -680 -573 0 -573 0 -274 351 c-150 192 -279 358 -286 367 -11 14
-13 -75 -14 -500 l0 -518 85 0 85 0 0 45 0 45 804 0 804 0 428 476 c236 261
429 479 429 484 0 8 -377 362 -767 721 l-107 99 -551 0 -550 0 0 595 0 595
468 0 467 0 280 -356 c154 -196 283 -358 288 -361 4 -2 7 230 7 516 l0 521
-78 0 c-43 0 -82 -3 -85 -7z"/>
<path d="M3686 11249 c-62 -54 -57 -140 8 -180 28 -17 53 -19 254 -19 122 0
222 -3 222 -8 0 -4 -309 -316 -687 -694 l-688 -688 -810 -2 -810 -3 -31 -22
c-63 -45 -69 -125 -13 -179 l30 -29 812 -3 812 -2 695 -695 695 -695 -212 0
c-116 0 -223 -4 -238 -10 -106 -40 -97 -188 13 -220 25 -8 159 -10 397 -8 328
3 362 5 387 21 56 39 58 52 58 449 0 412 -1 416 -74 452 -36 17 -43 18 -79 5
-77 -27 -81 -40 -87 -295 l-5 -224 -668 667 -667 668 670 670 670 670 0 -213
c0 -231 4 -250 56 -291 35 -28 93 -28 129 1 53 42 55 57 55 443 0 394 -2 408
-62 445 -32 19 -49 20 -415 20 l-382 0 -35 -31z"/>
<path d="M17771 11074 c-38 -32 -49 -80 -27 -123 29 -56 53 -61 273 -61 l198
0 -625 -625 -625 -625 -728 0 -729 0 -34 -34 c-27 -27 -34 -42 -34 -72 0 -41
21 -74 57 -93 15 -8 232 -11 745 -11 l723 0 620 -622 620 -623 -195 -5 c-203
-5 -225 -10 -254 -52 -21 -29 -20 -87 0 -117 34 -48 60 -51 399 -51 345 0 367
3 402 56 16 25 18 58 21 334 2 168 0 325 -3 349 -17 113 -149 140 -200 41 -12
-23 -15 -70 -15 -222 l0 -193 -602 603 -603 602 603 602 602 603 0 -188 c0
-215 7 -244 67 -272 43 -21 76 -14 114 25 l29 28 0 354 c0 319 -2 355 -18 374
-34 43 -47 44 -406 44 l-344 0 -31 -26z"/>
<path d="M15711 6098 c-41 -123 -76 -229 -78 -235 -4 -10 31 -13 154 -13 l160
0 11 -39 c17 -54 15 -61 -13 -61 -16 0 -25 -6 -25 -15 0 -12 14 -15 65 -15 51
0 65 3 65 15 0 10 -10 15 -30 15 -29 0 -30 1 -30 50 0 46 2 50 24 50 13 0 26
-5 28 -12 8 -23 28 4 28 38 0 24 -5 34 -15 34 -8 0 -15 -4 -15 -10 0 -5 -11
-10 -25 -10 l-25 0 0 205 0 205 -80 0 c-44 0 -80 -3 -80 -7 0 -5 24 -97 54
-205 l53 -198 -73 0 -74 0 -2 216 -3 215 -74 -223z"/>
<path d="M15130 6234 c0 -52 3 -64 13 -57 6 5 33 26 58 46 41 33 52 37 103 37
l56 0 0 -100 0 -100 -115 0 -115 0 0 -170 0 -170 180 0 180 0 0 66 c0 75 8 75
-81 2 l-45 -38 -107 0 c-59 0 -107 3 -107 6 0 4 35 64 78 135 66 110 81 128
103 129 21 0 37 19 106 128 44 70 83 133 87 140 6 9 -36 12 -193 12 l-201 0 0
-66z"/>
<path d="M3894 6236 c-3 -7 -4 -41 -2 -76 l3 -62 68 56 c66 54 71 56 128 56
l59 0 0 -115 0 -115 -130 0 -130 0 0 -190 0 -190 205 0 205 0 0 75 c0 41 -3
75 -6 75 -3 0 -35 -25 -70 -55 l-65 -55 -125 0 -124 0 82 133 c44 72 86 140
92 150 6 9 23 17 38 17 23 0 38 18 122 150 53 83 96 153 96 155 0 3 -99 5
-220 5 -176 0 -222 -3 -226 -14z"/>
<path d="M4450 6103 c0 -81 4 -143 8 -137 5 5 51 66 102 137 52 70 97 127 100
127 3 0 48 -59 100 -131 52 -72 98 -133 102 -136 5 -2 8 61 8 141 l0 146 -210
0 -210 0 0 -147z"/>
<path d="M4450 5777 l0 -177 210 0 210 0 0 175 c0 96 -2 175 -4 175 -2 0 -46
-69 -96 -152 -51 -84 -98 -159 -105 -166 -9 -10 -27 12 -85 110 -41 68 -86
143 -102 167 l-28 45 0 -177z"/>
<path d="M5055 3194 c-93 -24 -130 -39 -172 -73 -91 -71 -137 -198 -149 -407
-7 -137 10 -234 62 -335 50 -101 100 -163 279 -349 222 -230 262 -307 272
-520 6 -133 -9 -269 -35 -314 -50 -87 -208 -88 -261 -2 -35 56 -44 125 -50
366 l-6 235 -125 0 -125 0 1 -205 c3 -304 37 -461 121 -560 79 -92 171 -125
337 -118 95 4 120 8 174 33 157 70 223 230 224 540 1 173 -16 257 -76 380 -63
129 -112 193 -297 391 -177 190 -213 235 -231 298 -16 54 -15 218 1 285 8 30
26 68 43 87 53 60 160 69 212 18 47 -48 58 -102 63 -321 l6 -203 123 0 124 0
0 153 c0 379 -65 541 -242 604 -43 16 -233 27 -273 17z"/>
<path d="M11275 3187 c-74 -20 -126 -50 -173 -101 -78 -85 -112 -209 -113
-410 0 -232 49 -340 256 -556 266 -277 308 -336 341 -476 23 -100 16 -373 -12
-429 -30 -60 -64 -80 -139 -80 -147 0 -185 101 -185 495 l0 170 -126 0 -126 0
5 -242 c5 -266 16 -337 65 -443 40 -85 83 -129 160 -167 65 -32 70 -33 197
-33 161 0 212 15 289 85 91 84 132 210 143 440 9 210 -28 359 -131 523 -55 88
-100 141 -284 337 -183 195 -195 217 -200 371 -6 186 29 271 125 299 83 25
154 -12 182 -96 7 -22 17 -132 24 -246 l11 -208 123 0 123 0 0 83 c0 129 -19
346 -36 412 -36 137 -87 205 -192 253 -46 21 -73 25 -166 28 -70 2 -129 -1
-161 -9z"/>
<path d="M5870 2050 l0 -1120 130 0 130 0 0 535 0 535 180 0 180 0 0 -535 0
-535 130 0 130 0 0 1120 0 1120 -130 0 -130 0 0 -480 0 -480 -180 0 -180 0 0
480 0 480 -130 0 -130 0 0 -1120z"/>
<path d="M7177 2063 c-93 -610 -168 -1114 -167 -1120 0 -10 31 -13 120 -13
116 0 120 1 125 23 5 23 55 384 55 399 0 4 92 8 204 8 203 0 204 0 209 -22 3
-13 18 -110 33 -215 l28 -193 124 0 124 0 -6 28 c-3 15 -84 506 -181 1092 -96
586 -178 1077 -181 1093 l-6 27 -157 0 -157 0 -167 -1107z m423 97 c48 -316
85 -578 83 -582 -2 -5 -81 -8 -175 -8 l-170 0 5 23 c3 12 40 280 83 595 43
316 80 568 83 560 2 -7 43 -272 91 -588z"/>
<path d="M8280 2051 l0 -1121 130 0 130 0 0 541 0 542 115 -6 c139 -7 180 -23
210 -82 19 -38 20 -68 26 -500 3 -253 10 -468 14 -477 6 -16 23 -18 137 -18
120 0 130 1 123 18 -4 9 -11 190 -16 402 -10 484 -27 608 -95 698 -15 19 -44
41 -66 51 l-40 16 41 18 c84 37 131 134 151 306 20 171 6 400 -31 525 -16 54
-30 78 -67 115 -81 81 -99 84 -454 89 l-308 3 0 -1120z m529 895 c22 -12 40
-33 54 -64 21 -44 22 -62 22 -282 -1 -207 -3 -242 -20 -290 -31 -86 -60 -100
-206 -100 l-119 0 0 373 c0 206 3 377 8 381 14 15 225 0 261 -18z"/>
<path d="M9480 2050 l0 -1120 335 0 335 0 0 110 0 110 -205 0 -205 0 0 410 0
410 190 0 190 0 0 110 0 110 -190 0 -190 0 0 385 0 385 200 0 200 0 0 105 0
105 -330 0 -330 0 0 -1120z"/>
<path d="M12120 2050 l0 -1120 130 0 130 0 0 439 0 438 153 5 c173 6 234 23
305 84 52 44 107 153 128 254 24 114 30 515 10 647 -32 209 -112 319 -263 358
-44 11 -120 15 -325 15 l-268 0 0 -1120z m519 893 c36 -26 68 -95 81 -173 13
-84 13 -456 0 -540 -14 -84 -46 -149 -89 -177 -30 -20 -47 -23 -142 -23 l-109
0 0 463 c0 255 3 467 8 471 4 5 56 6 116 3 85 -4 114 -9 135 -24z"/>
<path d="M13260 2050 l0 -1120 340 0 340 0 0 110 0 110 -210 0 -210 0 0 1010
0 1010 -130 0 -130 0 0 -1120z"/>
<path d="M14150 2050 l0 -1120 130 0 130 0 0 1120 0 1120 -130 0 -130 0 0
-1120z"/>
<path d="M14630 3065 l0 -105 120 0 120 0 0 -1015 0 -1015 130 0 130 0 2 1013
3 1012 113 3 112 3 0 104 0 105 -365 0 -365 0 0 -105z"/>
</g>
</svg>
