<?xml version="1.0" standalone="no"?>
<!DOCTYPE svg PUBLIC "-//W3C//DTD SVG 20010904//EN"
 "http://www.w3.org/TR/2001/REC-SVG-20010904/DTD/svg10.dtd">
<svg version="1.0" xmlns="http://www.w3.org/2000/svg"
 width="2000.000000pt" height="2242.000000pt" viewBox="0 0 2000.000000 2242.000000"
 preserveAspectRatio="xMidYMid meet">

<g transform="translate(0.000000,2242.000000) scale(0.100000,-0.100000)"
fill="#000000" stroke="none">
<path d="M9802 21085 c-35 -8 -80 -24 -100 -36 -36 -21 -40 -21 -179 -9 -112
10 -191 10 -380 0 -131 -7 -246 -16 -255 -21 -27 -15 -69 -10 -124 12 l-51 21
-61 -27 c-38 -17 -69 -39 -80 -56 -18 -29 -161 -109 -195 -109 -24 0 -169 -27
-276 -51 -47 -11 -126 -37 -175 -58 -108 -46 -225 -82 -361 -111 -55 -12 -158
-36 -230 -54 -71 -18 -152 -37 -180 -40 -70 -10 -182 -49 -541 -191 -114 -44
-119 -44 -471 47 -74 19 -98 20 -240 13 -106 -5 -163 -11 -178 -21 -12 -7 -43
-15 -70 -16 -47 -3 -49 -2 -55 27 -10 48 -27 71 -64 89 -55 26 -103 21 -136
-14 -24 -26 -48 -95 -37 -106 2 -3 25 5 51 16 26 11 63 20 82 20 l34 0 0 -49
c0 -35 -4 -51 -16 -55 -23 -9 -27 -8 -20 9 4 10 -1 15 -16 15 -17 0 -19 -3
-10 -12 9 -9 6 -16 -11 -32 -22 -21 -57 -87 -57 -107 0 -5 -10 -23 -21 -39
-28 -37 -20 -69 22 -94 l32 -19 -24 -13 c-13 -7 -46 -16 -73 -20 -47 -7 -49
-8 -73 -63 -14 -31 -31 -83 -38 -117 -17 -84 -121 -352 -151 -391 -14 -18 -57
-51 -97 -74 -165 -96 -208 -130 -382 -300 -99 -96 -206 -194 -238 -218 -31
-23 -90 -83 -131 -134 -80 -100 -306 -327 -325 -327 -18 0 -245 -225 -352
-350 -141 -164 -199 -232 -293 -340 -46 -52 -95 -114 -110 -138 -15 -23 -44
-55 -64 -69 -21 -15 -50 -46 -64 -69 -53 -86 -202 -178 -307 -189 -86 -9 -276
-54 -369 -87 -164 -57 -211 -85 -304 -180 -49 -49 -88 -97 -88 -108 0 -30 -59
-174 -77 -187 -21 -16 -32 -84 -32 -210 -1 -110 15 -204 54 -317 53 -154 69
-282 44 -357 -7 -19 -27 -54 -46 -79 -18 -24 -35 -53 -37 -65 -17 -91 -60
-258 -76 -293 -11 -24 -49 -90 -85 -148 -73 -116 -125 -219 -125 -248 0 -10
-11 -31 -24 -47 -43 -51 -123 -192 -151 -264 -41 -108 -127 -284 -158 -324
-53 -67 -80 -123 -133 -275 -28 -83 -75 -205 -104 -271 -109 -251 -103 -232
-97 -318 4 -54 1 -93 -9 -125 -36 -116 -54 -181 -63 -230 -11 -52 -65 -191
-120 -308 -17 -35 -59 -93 -100 -137 -95 -103 -109 -133 -162 -347 -45 -181
-50 -218 -56 -430 -6 -236 2 -326 44 -504 27 -117 27 -203 -2 -272 -23 -55
-94 -145 -171 -217 -94 -87 -224 -266 -224 -308 0 -51 35 -105 83 -128 56 -27
110 -26 172 3 64 30 88 54 139 143 74 130 201 308 237 336 l27 19 235 -116
c215 -105 238 -119 265 -158 38 -57 62 -120 62 -165 0 -20 9 -55 19 -77 32
-68 41 -115 47 -251 5 -110 14 -170 65 -394 87 -379 104 -479 104 -601 0 -103
-1 -107 -40 -184 -29 -57 -55 -91 -98 -129 -94 -81 -95 -114 -7 -196 32 -30
50 -55 50 -70 0 -13 11 -65 25 -117 40 -150 34 -206 -30 -269 -19 -20 -35 -46
-35 -58 0 -34 -90 -157 -130 -179 -27 -15 -47 -18 -90 -13 l-55 6 -29 -62
c-29 -61 -119 -161 -254 -282 -34 -31 -61 -67 -77 -102 -38 -86 -81 -143 -187
-248 l-100 -97 7 -53 c4 -28 7 -92 8 -142 0 -100 -14 -141 -59 -172 -65 -44
-95 -79 -104 -118 -9 -36 -7 -42 16 -63 39 -34 90 -30 150 13 27 19 54 35 60
35 24 0 42 -37 46 -97 4 -54 11 -72 58 -145 65 -100 110 -179 110 -193 0 -6
-54 -66 -120 -133 -66 -68 -120 -130 -120 -138 0 -16 -7 -17 -73 -14 -43 2
-51 -2 -80 -33 -18 -19 -41 -51 -51 -71 -27 -51 -14 -70 50 -74 80 -6 115 10
166 77 29 36 56 61 74 65 15 4 75 34 134 67 58 32 112 59 121 59 8 0 50 -36
94 -81 44 -44 104 -94 134 -111 85 -49 189 -155 244 -247 59 -99 187 -237 282
-303 39 -26 98 -80 132 -120 l61 -71 -26 -41 c-14 -23 -39 -55 -55 -72 -38
-42 -86 -140 -80 -165 7 -25 50 -59 76 -59 11 0 54 33 98 75 78 74 112 90 145
67 11 -7 44 -69 44 -83 0 -4 -23 -15 -52 -25 -37 -14 -76 -41 -133 -94 -44
-41 -81 -78 -83 -82 -6 -14 22 -8 83 17 70 28 114 31 156 10 33 -18 31 -18
132 40 38 22 67 29 140 35 51 4 104 12 119 18 l27 11 -25 67 c-14 37 -29 75
-35 85 -12 23 -10 24 102 54 58 16 146 29 229 36 74 5 191 17 260 25 69 7 183
14 253 14 144 0 164 -6 216 -66 26 -29 32 -44 29 -70 -2 -19 -2 -34 1 -34 3 0
48 25 101 54 127 72 221 108 298 113 61 5 64 4 133 -44 84 -57 144 -114 303
-292 71 -80 150 -156 195 -189 99 -72 201 -162 332 -292 118 -117 395 -364
473 -423 28 -21 80 -54 116 -74 36 -20 85 -53 110 -73 25 -21 65 -48 90 -60
25 -13 63 -35 85 -50 75 -51 140 -87 190 -103 67 -22 222 -56 321 -72 95 -15
176 -49 220 -93 18 -17 52 -66 77 -109 43 -73 57 -115 72 -216 5 -31 21 -53
80 -111 81 -81 102 -116 135 -225 26 -84 29 -79 -67 -112 -64 -21 -89 -39 -56
-39 11 0 28 -7 39 -15 12 -9 43 -15 84 -15 68 0 133 -23 159 -53 16 -20 8
-104 -15 -169 -8 -22 -14 -60 -14 -84 0 -72 49 -95 238 -110 82 -7 82 -7 82
-35 0 -15 -11 -63 -25 -106 -46 -147 -55 -296 -25 -426 22 -100 152 -156 251
-109 97 46 192 116 302 222 168 163 183 200 128 323 -30 66 -64 97 -109 97
-47 0 -235 93 -290 143 -41 38 -20 105 45 141 53 30 63 55 63 172 0 122 3 126
106 135 89 7 119 27 110 73 -4 17 -14 41 -23 55 -10 15 -31 55 -49 91 -17 36
-42 79 -55 95 -14 17 -31 39 -39 50 -15 19 -15 19 12 2 15 -9 42 -17 60 -17
55 0 110 -20 115 -41 3 -11 15 -21 27 -23 11 -2 88 -14 170 -27 127 -20 154
-28 187 -52 22 -16 39 -37 39 -48 0 -52 74 -142 159 -193 72 -44 104 -52 152
-36 48 16 69 3 69 -46 0 -18 5 -36 10 -39 6 -4 19 -24 30 -46 13 -25 27 -39
40 -39 10 0 49 27 86 60 93 82 134 99 263 110 59 5 131 14 160 20 80 15 324
12 404 -5 37 -8 98 -30 135 -49 96 -49 211 -83 383 -112 218 -36 315 -86 334
-173 17 -81 114 -121 205 -87 25 9 81 28 125 42 44 14 97 31 117 38 l37 14 15
-39 c9 -22 16 -44 16 -50 0 -5 8 -26 17 -47 9 -20 20 -50 23 -67 4 -24 19 -38
89 -79 137 -80 226 -74 271 19 16 33 20 65 22 161 3 118 3 121 -25 157 -39 52
-45 97 -18 140 12 19 29 38 38 41 9 4 60 4 113 0 86 -6 102 -4 145 15 27 12
57 29 67 38 20 17 43 32 98 59 54 28 153 25 214 -6 75 -38 147 -123 186 -220
32 -80 92 -172 142 -218 31 -28 88 -38 126 -23 16 7 39 30 52 53 27 48 24 116
-9 188 -26 57 -28 166 -5 213 37 74 112 117 202 117 49 0 83 24 128 92 31 47
58 72 134 122 264 174 363 236 380 236 10 0 31 5 47 11 15 7 55 20 88 29 33
10 83 27 110 38 28 12 82 31 120 42 102 31 242 101 300 148 27 23 56 42 63 42
8 0 80 31 161 69 139 65 154 70 257 81 93 10 119 10 176 -4 56 -13 74 -13 105
-3 51 17 83 66 83 128 0 46 2 50 43 75 23 15 62 45 87 67 25 21 92 67 150 102
187 112 223 135 244 154 12 11 57 43 101 71 107 70 178 124 248 187 32 29 64
53 71 53 8 0 19 7 26 15 7 8 20 15 29 15 32 0 167 72 251 135 123 91 180 125
211 125 15 0 54 -18 87 -40 93 -62 152 -55 182 24 9 24 7 47 -11 117 l-21 87
103 139 c80 108 114 146 148 164 48 25 335 305 421 409 142 174 572 616 651
671 123 83 288 327 394 578 15 36 37 79 50 95 28 39 67 115 138 277 57 129
158 334 241 492 25 48 46 97 46 108 0 10 25 70 56 131 93 185 219 458 249 538
15 41 52 137 82 213 30 76 59 164 64 195 6 31 24 98 40 147 17 50 40 131 53
180 l22 90 48 3 c36 2 57 -3 91 -22 24 -14 50 -26 57 -26 8 0 35 -14 61 -30
27 -17 61 -30 79 -30 38 0 98 36 98 58 0 21 -227 248 -256 256 -11 3 -35 21
-52 39 l-32 33 29 139 c16 77 47 214 69 305 50 205 73 348 82 510 5 109 15
160 75 395 l68 270 96 96 c53 53 101 101 106 108 6 6 22 21 38 32 39 30 38 97
-3 158 -25 37 -30 54 -30 103 0 33 7 85 16 115 33 112 -2 206 -120 331 -40 42
-87 99 -105 125 -18 27 -39 51 -47 54 -20 8 -83 123 -106 196 -16 48 -22 108
-29 267 -6 162 -14 230 -35 325 -14 66 -30 170 -34 230 -4 61 -15 144 -25 185
-12 51 -17 107 -15 175 6 241 5 248 -74 336 -36 40 -49 69 -100 225 -33 98
-63 195 -67 214 -49 212 -198 661 -258 778 -18 35 -45 103 -61 152 -16 49 -43
116 -59 149 -17 33 -31 69 -31 79 0 44 -147 375 -229 517 -29 50 -78 146 -110
215 -57 124 -72 149 -236 389 -47 68 -85 132 -85 141 0 10 -7 23 -15 30 -8 7
-15 18 -15 24 0 6 -14 36 -30 66 -80 145 -172 337 -215 445 -84 214 -92 226
-343 482 -199 203 -235 235 -292 262 -36 17 -73 31 -83 31 -10 0 -82 62 -160
138 -83 80 -182 164 -237 201 -52 36 -113 81 -136 101 -22 20 -71 55 -110 78
-89 52 -144 114 -144 162 0 11 -4 20 -9 20 -24 0 -167 107 -256 191 -82 78
-346 288 -389 310 -6 3 -33 17 -61 31 -120 61 -246 140 -363 229 -103 77 -143
101 -215 127 -48 17 -106 41 -130 53 -60 31 -207 127 -238 156 -15 13 -82 51
-149 84 -71 34 -147 80 -183 110 -74 62 -148 100 -282 145 -68 22 -121 34
-158 34 -38 0 -82 10 -134 29 -43 16 -116 43 -162 61 -47 17 -99 44 -118 60
-34 30 -40 32 -193 49 -111 12 -177 33 -284 90 -67 36 -86 41 -141 41 -38 0
-110 12 -177 29 -62 16 -135 32 -163 36 -27 4 -57 13 -65 20 -43 36 -116 54
-245 58 -105 4 -150 11 -235 35 -88 25 -130 31 -255 36 -82 3 -170 10 -195 16
-25 5 -110 9 -190 10 -95 0 -161 5 -192 14 -26 8 -91 18 -145 21 -65 4 -128
16 -188 35 -49 16 -124 34 -165 40 -41 6 -97 15 -125 20 -83 15 -629 11 -703
-5z m-4014 -812 c-22 -24 -79 -30 -147 -17 -73 15 -11 43 91 41 l77 -2 -21
-22z m4407 -354 c51 -25 58 -34 170 -211 21 -35 79 -104 128 -155 74 -76 99
-96 155 -119 146 -60 255 -27 421 130 180 169 245 221 310 250 112 50 240 46
292 -10 21 -22 24 -35 24 -94 l0 -69 115 -92 c63 -50 201 -167 305 -259 105
-92 258 -219 340 -284 161 -125 284 -193 583 -320 188 -80 239 -87 459 -56
142 19 178 21 216 12 25 -7 76 -12 114 -12 37 0 79 -6 93 -13 14 -8 73 -17
130 -20 139 -9 235 -35 405 -112 77 -35 187 -84 245 -110 58 -25 112 -54 120
-63 8 -10 44 -35 80 -57 122 -72 225 -144 291 -202 37 -32 127 -92 200 -133
73 -41 156 -93 183 -115 28 -22 69 -54 91 -70 117 -86 326 -291 418 -410 34
-44 114 -132 177 -195 63 -63 167 -183 230 -265 63 -83 135 -175 161 -205 58
-68 125 -171 173 -268 20 -40 58 -99 84 -131 74 -93 262 -397 302 -489 18 -43
10 -108 -30 -243 -51 -168 -73 -305 -68 -430 3 -87 7 -103 40 -170 79 -158
234 -283 479 -385 45 -18 93 -44 107 -56 40 -37 62 -99 72 -208 7 -72 20 -130
46 -203 41 -116 51 -153 92 -323 17 -66 47 -163 67 -215 64 -159 191 -772 205
-989 32 -477 42 -614 50 -695 19 -178 21 -282 11 -400 -7 -66 -16 -209 -21
-317 -5 -108 -18 -247 -29 -310 -11 -62 -23 -138 -26 -168 -20 -176 -44 -295
-110 -555 -41 -159 -86 -348 -100 -420 -39 -196 -144 -490 -196 -550 -10 -11
-27 -60 -38 -110 -25 -107 -76 -265 -103 -318 -10 -20 -23 -61 -28 -90 -11
-56 -102 -248 -377 -793 -95 -188 -173 -352 -173 -366 0 -14 -10 -33 -21 -44
-40 -36 -108 -141 -178 -272 -79 -150 -121 -215 -187 -292 -26 -30 -83 -109
-127 -175 -92 -138 -241 -328 -336 -430 -36 -39 -92 -107 -124 -152 -32 -45
-91 -112 -130 -150 -39 -37 -78 -81 -87 -98 -8 -16 -36 -43 -61 -60 -25 -16
-64 -46 -87 -65 -41 -36 -138 -117 -225 -190 -26 -22 -69 -52 -95 -66 -93 -52
-179 -114 -312 -223 -165 -135 -171 -139 -659 -462 -428 -284 -745 -465 -881
-505 -66 -19 -170 -66 -335 -153 -49 -25 -53 -26 -223 -23 l-172 2 -240 -60
c-137 -34 -305 -84 -392 -117 l-153 -57 -183 -4 c-162 -3 -186 -2 -202 13 -32
29 -50 102 -50 198 0 104 -16 146 -65 177 -65 40 -173 18 -207 -42 -8 -15 -13
-58 -13 -118 l0 -94 -38 -7 c-26 -4 -48 -17 -71 -42 -29 -31 -40 -37 -76 -37
-40 0 -120 34 -120 51 0 4 -27 37 -60 73 -32 36 -66 76 -75 90 -18 27 -67 51
-88 43 -8 -3 -17 -24 -20 -48 -11 -81 -66 -121 -110 -81 -12 11 -33 23 -47 27
-14 4 -32 13 -40 21 -23 20 -100 -22 -113 -61 -13 -39 -36 -65 -59 -65 -15 0
-18 8 -18 43 0 64 -26 132 -56 146 -50 22 -81 14 -140 -39 -88 -81 -72 -80
-344 -13 -117 28 -204 34 -287 18 -34 -6 -55 -3 -102 15 -72 26 -90 22 -148
-36 -57 -55 -101 -64 -193 -35 -85 26 -314 71 -364 71 -30 0 -47 -7 -67 -26
-35 -33 -107 -47 -204 -38 -77 7 -119 24 -135 54 -6 11 -18 20 -27 20 -9 0
-24 7 -33 15 -15 13 -19 8 -49 -55 l-32 -70 -98 0 c-100 0 -121 7 -121 42 0
27 -46 34 -101 13 -45 -16 -53 -16 -101 -2 -29 9 -80 18 -113 21 -37 3 -151
36 -298 85 -237 80 -301 105 -407 160 -30 16 -120 58 -200 94 -319 142 -420
195 -465 240 -30 31 -55 47 -82 52 -66 12 -160 63 -288 158 -69 51 -150 108
-181 127 -55 35 -104 76 -351 301 -261 236 -438 371 -608 464 -89 48 -175 112
-175 129 0 8 -10 20 -22 29 -13 8 -55 41 -94 73 -39 33 -117 97 -173 143 -125
104 -251 233 -316 326 -57 81 -205 264 -279 345 -28 31 -66 85 -85 120 -19 36
-53 85 -76 110 -66 71 -150 191 -206 292 -28 51 -77 131 -109 178 -174 253
-420 692 -459 820 -12 36 -57 130 -101 210 -43 79 -89 176 -100 215 -12 38
-41 124 -64 190 -49 136 -113 343 -181 584 -25 91 -56 190 -69 220 -26 63 -37
113 -67 322 -29 208 -35 239 -54 289 -28 73 -44 187 -45 310 0 63 -7 178 -15
255 -9 77 -20 248 -25 380 -6 132 -14 272 -20 310 -12 94 -12 456 1 575 5 52
14 235 19 405 9 328 17 394 57 490 14 33 38 107 53 165 15 58 67 200 115 315
47 116 91 224 96 242 5 18 22 47 37 65 80 94 347 518 425 673 132 263 282 411
504 499 50 19 120 49 154 66 34 16 68 30 75 30 24 0 180 86 240 132 73 57 180
165 234 238 61 82 128 224 150 320 43 185 52 322 48 695 l-4 350 -39 187 c-36
173 -38 191 -27 235 15 56 41 87 96 115 35 18 53 19 175 15 95 -3 177 -13 271
-33 133 -27 141 -28 490 -28 l355 -1 65 29 c36 16 110 45 165 64 86 31 116 36
215 40 110 4 121 3 207 -27 125 -43 125 -43 249 34 48 29 52 30 174 29 142 -1
186 -14 268 -82 26 -21 76 -56 112 -78 95 -58 124 -92 194 -232 71 -140 118
-195 251 -288 126 -89 120 -87 215 -82 70 3 98 10 154 36 37 18 74 32 80 32
30 0 57 53 99 195 61 201 167 613 167 648 0 24 -4 27 -34 27 -27 0 -41 -8 -69
-40 -54 -59 -73 -105 -91 -215 -66 -411 -74 -449 -104 -540 -27 -79 -27 -80
-60 -78 -18 0 -41 8 -50 16 -9 8 -34 20 -54 26 -20 7 -42 19 -49 28 -7 8 -39
32 -70 54 -58 39 -79 73 -79 129 0 14 -17 55 -39 91 -63 105 -115 294 -92 337
19 36 42 52 74 52 38 0 125 39 149 66 12 14 17 44 20 124 3 97 7 111 41 185
21 44 42 88 48 98 5 9 20 45 33 80 51 135 128 272 208 369 33 39 47 49 91 58
80 17 108 37 211 147 109 118 155 190 197 304 46 127 119 281 147 311 l25 27
46 -26 c25 -15 61 -39 78 -54 47 -41 92 -46 143 -18 22 13 50 38 61 56 11 18
47 54 79 79 70 55 137 133 242 281 43 62 96 126 116 143 70 57 183 99 272 100
25 1 74 7 110 15 40 8 116 13 200 12 122 -2 140 -5 185 -28z"/>
<path d="M9967 14930 c-303 -51 -568 -261 -686 -544 -51 -121 -65 -196 -65
-341 0 -111 4 -146 28 -240 72 -279 274 -684 532 -1063 46 -68 84 -124 84
-125 0 -1 -172 55 -382 125 -210 71 -395 128 -410 128 -18 0 -40 -11 -62 -32
-145 -141 -954 -986 -965 -1008 -30 -60 -36 -56 659 -458 507 -292 651 -371
671 -368 14 3 273 127 574 275 301 149 558 271 570 271 12 0 318 -122 681
-271 362 -148 670 -272 684 -275 31 -7 75 25 84 60 7 28 -522 1409 -552 1438
-10 10 -200 93 -423 184 -334 136 -410 164 -437 159 l-33 -6 44 68 c207 325
384 711 431 938 37 178 28 322 -28 487 -46 136 -120 250 -232 356 -177 170
-387 254 -629 251 -49 -1 -112 -5 -138 -9z m284 -410 c174 -33 312 -171 326
-328 10 -115 -31 -190 -168 -307 -93 -79 -139 -146 -139 -205 0 -45 -15 -50
-150 -50 -85 0 -130 4 -138 12 -7 7 -12 40 -12 78 0 95 24 135 144 239 119
103 140 130 139 175 -2 72 -66 119 -159 118 -54 0 -91 -15 -157 -63 -22 -16
-45 -29 -51 -29 -6 0 -45 33 -85 74 -87 88 -88 99 -10 163 129 105 304 152
460 123z m-44 -1107 c73 -34 121 -125 108 -202 -24 -145 -205 -214 -317 -121
-46 38 -68 86 -68 149 0 148 143 237 277 174z m-770 -824 c183 -61 333 -114
333 -117 0 -4 -58 -170 -128 -369 -111 -314 -130 -361 -143 -349 -13 13 -105
42 -170 53 -31 6 -53 -18 -44 -46 7 -23 113 -61 176 -64 l37 -1 -55 -156 c-30
-85 -69 -195 -87 -245 -20 -57 -36 -89 -45 -87 -13 3 -1051 599 -1063 610 -3
4 103 119 237 256 l242 249 29 -54 c23 -42 35 -55 56 -57 41 -5 43 25 7 102
l-32 68 39 41 c74 80 269 277 274 277 3 0 155 -50 337 -111z m1508 -56 c116
-47 242 -98 281 -114 l72 -30 72 -187 c40 -103 75 -194 78 -202 3 -8 -13 1
-36 20 -100 82 -113 90 -133 79 -34 -18 -22 -51 38 -104 84 -74 90 -78 112
-65 11 5 21 20 23 32 2 12 65 -139 146 -351 79 -205 142 -374 140 -377 -3 -2
-260 101 -572 228 l-567 233 5 45 c3 25 8 142 12 261 6 207 7 216 28 225 30
13 35 64 7 71 -19 5 -21 13 -21 78 0 39 3 119 6 177 l7 106 46 -20 c25 -11
141 -58 256 -105z m-470 -90 c-4 -115 -9 -211 -11 -215 -2 -3 -7 -122 -9 -264
-3 -142 -7 -259 -8 -261 -12 -11 -933 -459 -935 -454 -1 3 94 278 212 611 144
410 218 606 228 608 9 2 36 -25 67 -67 53 -71 66 -81 105 -81 29 0 54 28 161
175 78 108 92 122 134 137 25 9 50 17 54 17 5 1 5 -92 2 -206z"/>
<path d="M8942 12048 c-23 -23 -12 -45 57 -111 70 -68 87 -77 109 -55 23 23
12 44 -56 111 -68 67 -88 77 -110 55z"/>
<path d="M10888 12289 c-21 -12 -24 -42 -5 -56 6 -5 52 -22 100 -38 81 -27 89
-28 104 -12 30 30 5 60 -73 84 -102 32 -107 33 -126 22z"/>
<path d="M10172 12029 c-64 -44 -73 -54 -70 -77 5 -45 43 -40 123 15 60 42 70
52 70 78 0 48 -37 43 -123 -16z"/>
<path d="M9788 11829 c-79 -31 -95 -47 -78 -80 14 -25 24 -24 124 12 84 30
102 46 91 80 -9 27 -46 23 -137 -12z"/>
<path d="M9570 9260 l0 -1070 115 0 115 0 0 268 1 267 97 102 98 103 248 -370
249 -370 145 0 c111 0 143 3 139 13 -2 6 -138 207 -302 446 -163 238 -299 439
-301 446 -3 7 102 124 235 263 133 138 241 253 241 256 0 3 -71 6 -157 6
l-158 0 -259 -273 c-143 -149 -264 -273 -268 -275 -4 -2 -8 280 -8 627 l0 631
-115 0 -115 0 0 -1070z"/>
<path d="M4020 10095 l0 -95 300 0 300 0 0 -905 0 -905 130 0 130 0 0 905 0
905 300 0 301 0 -3 93 -3 92 -727 3 -728 2 0 -95z"/>
<path d="M11140 9190 l0 -1000 125 0 125 0 2 796 3 796 255 -356 255 -356 100
1 100 0 255 356 255 356 3 -797 2 -796 125 0 125 0 0 1000 0 1001 -126 -3
-127 -3 -303 -435 c-167 -239 -306 -435 -309 -435 -4 0 -143 196 -309 435
l-303 435 -126 3 -127 3 0 -1001z"/>
<path d="M6135 9646 c-66 -16 -128 -45 -194 -90 -29 -20 -54 -36 -56 -36 -2 0
-11 23 -20 50 l-17 50 -84 0 -84 0 0 -715 0 -715 115 0 115 0 0 569 0 569 33
28 c104 88 245 104 434 48 19 -5 27 4 68 87 45 88 46 93 29 106 -35 25 -200
64 -264 62 -14 0 -47 -6 -75 -13z"/>
<path d="M7215 9651 c-44 -5 -153 -14 -242 -21 l-163 -13 0 -112 0 -111 98 12
c53 7 162 18 241 25 331 27 399 -12 409 -238 l5 -103 -224 0 c-147 -1 -251 -6
-303 -15 -322 -57 -475 -361 -332 -660 67 -141 175 -223 322 -245 138 -21 316
22 474 114 41 24 78 42 81 40 4 -2 15 -33 24 -69 l18 -65 88 0 89 0 0 585 c0
554 -1 588 -19 641 -38 106 -125 196 -219 225 -47 14 -242 20 -347 10z m345
-955 l0 -204 -42 -25 c-166 -97 -389 -138 -485 -89 -89 46 -137 147 -131 277
4 93 25 145 78 186 60 48 121 58 363 58 l217 1 0 -204z"/>
<path d="M8698 9650 c-270 -46 -502 -253 -588 -525 -31 -99 -38 -264 -16 -376
53 -257 249 -481 497 -564 134 -44 370 -46 572 -3 l47 10 0 107 0 107 -112
-18 c-83 -14 -152 -18 -258 -16 -143 3 -146 3 -220 39 -174 83 -287 248 -305
443 -24 267 156 525 403 577 71 14 304 6 412 -16 41 -8 76 -15 78 -15 1 0 2
49 2 109 l0 108 -57 12 c-152 29 -352 38 -455 21z"/>
<path d="M13710 9645 c-91 -8 -202 -18 -245 -22 l-80 -8 -3 -99 c-1 -55 -1
-105 2 -111 3 -8 43 -6 147 7 79 10 216 20 304 21 154 2 162 1 204 -23 66 -38
85 -81 89 -212 l4 -106 -258 -5 c-278 -5 -316 -10 -420 -63 -30 -15 -79 -53
-109 -85 -104 -108 -142 -245 -112 -394 56 -270 251 -411 516 -375 126 17 255
66 363 138 21 13 40 23 42 21 2 -2 13 -33 23 -69 l19 -65 92 -3 92 -3 0 548
c0 311 -4 574 -10 608 -21 130 -110 248 -216 289 -66 24 -233 29 -444 11z
m420 -950 l0 -205 -52 -30 c-78 -44 -207 -88 -292 -99 -171 -21 -260 34 -302
186 -36 131 3 261 93 311 62 34 108 40 341 41 l212 1 0 -205z"/>
<path d="M15244 9649 c-63 -10 -201 -54 -273 -85 -29 -13 -54 -24 -56 -24 -1
0 -10 18 -20 40 l-18 41 -76 -3 -76 -3 -3 -1067 -2 -1068 120 0 120 0 0 381
c0 301 3 380 13 376 142 -63 246 -87 375 -87 104 0 218 26 295 67 69 37 173
143 220 223 80 138 126 356 112 539 -33 462 -333 737 -731 670z m249 -218 c69
-34 142 -113 181 -195 51 -106 61 -163 60 -321 -1 -217 -38 -338 -135 -440
-93 -98 -208 -132 -389 -115 -88 9 -134 19 -217 50 l-33 12 0 477 0 478 78 26
c133 46 190 56 302 54 88 -2 113 -6 153 -26z"/>
<path d="M5397 20339 c7 -7 15 -10 18 -7 3 3 -2 9 -12 12 -14 6 -15 5 -6 -5z"/>
</g>
</svg>
