<?xml version="1.0" encoding="UTF-8"?>
<svg version="1.1" xmlns="http://www.w3.org/2000/svg" width="2000" height="435" viewBox="0 0 2000 435">
<path d="M0 0 C20.26751055 16.19363908 24.74845365 46.01156045 27.48852539 70.30200195 C27.99355393 75.23124746 28.17995697 80.05118339 28 85 C28.72550049 85.26989746 29.45100098 85.53979492 30.19848633 85.81787109 C32.9500787 86.97893517 35.30480945 88.31626664 37.82421875 89.9140625 C38.75685547 90.501875 39.68949219 91.0896875 40.65039062 91.6953125 C42.15375977 92.65050781 42.15375977 92.65050781 43.6875 93.625 C45.85753699 94.99303798 48.02812892 96.36019601 50.19921875 97.7265625 C50.7584201 98.0789801 51.31762146 98.43139771 51.89376831 98.79449463 C57.90052483 102.5762757 63.94918489 106.28921619 70 110 C79.45806679 115.80705264 88.8853574 121.66091993 98.29052734 127.55322266 C103.99354783 131.12506957 109.70669958 134.67953643 115.43334961 138.21337891 C118.85960112 140.32848709 122.28157516 142.45043062 125.70214844 144.57470703 C127.17271632 145.4868591 128.64460058 146.39689445 130.11816406 147.30419922 C146.08056161 157.14807068 157.31463678 167.15778661 162 186 C163.2376491 192.49353227 163.21930811 198.97525298 163.25 205.5625 C163.2809375 207.22829102 163.2809375 207.22829102 163.3125 208.92773438 C163.36132893 219.1268772 163.36132893 219.1268772 160 224 C155.2572221 228.61796796 151.03531932 229.12665535 144.61528015 229.12025452 C143.54822342 229.12162918 142.48116669 229.12300385 141.3817749 229.12442017 C139.64144989 229.11902725 139.64144989 229.11902725 137.8659668 229.11352539 C136.63628677 229.11367142 135.40660675 229.11381744 134.1396637 229.1139679 C130.77640648 229.1133914 127.41321096 229.1083827 124.04996467 229.10139394 C120.53191291 229.09513455 117.0138603 229.09455455 113.49580383 229.09336853 C106.8377606 229.09026284 100.17973382 229.08205972 93.52169782 229.07201904 C85.94010809 229.06083425 78.35851756 229.05534149 70.77692163 229.05032361 C55.1846049 229.03987647 39.59230457 229.02229178 24 229 C23.91122841 230.45821671 23.91122841 230.45821671 23.82066345 231.94589233 C23.36309523 239.17275652 22.83579659 246.35871953 21.87890625 253.5390625 C21.77408432 254.35265228 21.66926239 255.16624207 21.56126404 256.00448608 C21.34239573 257.69663026 21.12137891 259.38849796 20.89819336 261.08007812 C20.56206442 263.62830214 20.23260833 266.17732061 19.90429688 268.7265625 C18.83725736 276.95556011 17.71355552 285.16309767 16.34741211 293.34912109 C15.83533245 297.17016669 15.83533245 297.17016669 16 301 C17.52288754 302.59342152 17.52288754 302.59342152 19.70703125 303.69140625 C20.51092285 304.15450195 21.31481445 304.61759766 22.14306641 305.09472656 C23.02397949 305.5790918 23.90489258 306.06345703 24.8125 306.5625 C26.671797 307.62937998 28.52984315 308.69844243 30.38671875 309.76953125 C31.33208496 310.30916504 32.27745117 310.84879883 33.25146484 311.40478516 C37.28077954 313.74334815 41.2037154 316.23579726 45.125 318.75 C50.61673928 322.26085143 56.14246161 325.7042533 61.7265625 329.06640625 C62.90098839 329.77683728 64.07530461 330.48744963 65.24951172 331.19824219 C67.5290256 332.57810392 69.81481894 333.94491538 72.10595703 335.30566406 C80.71774705 340.52149649 88.86597092 345.85462139 91.5546875 356.1171875 C92.16780847 360.08633907 92.22395533 363.98912077 92.25 368 C92.2809375 369.19109375 92.2809375 369.19109375 92.3125 370.40625 C92.34394175 375.1225121 92.03757124 378.16154893 89 382 C83.61330954 386.72977699 80.2818876 387.15200779 73.26757812 387.16113281 C72.3634166 387.16609772 71.45925507 387.17106262 70.5276947 387.17617798 C67.52887215 387.19081529 64.53010244 387.19760325 61.53125 387.203125 C59.45381671 387.20887395 57.37638344 387.21463171 55.2989502 387.22039795 C50.94099682 387.23091158 46.58306193 387.23675228 42.22509766 387.24023438 C36.62919941 387.24572823 31.03354337 387.26977377 25.43772125 387.29820633 C21.14674149 387.3167867 16.85582069 387.32203578 12.56480408 387.32357025 C10.50103934 387.32660635 8.43727588 387.33466683 6.37355042 387.34775543 C3.49298386 387.36472444 0.61301749 387.36295854 -2.26757812 387.35644531 C-3.12686417 387.3656601 -3.98615021 387.37487488 -4.87147522 387.3843689 C-7.24230957 387.36749268 -7.24230957 387.36749268 -11 387 C-14.31908673 382.02136991 -13.19009419 376.39743762 -13 370.5625 C-12.97867004 369.90463501 -12.95734009 369.24677002 -12.93536377 368.56896973 C-12.60572268 359.56279218 -11.49952352 351.44825842 -8.57617188 342.91943359 C9.11283621 291.02270086 11.62649412 231.35483767 14.87432861 177.09362793 C14.98592795 175.23443386 15.10178764 173.37549661 15.21826172 171.51660156 C22.06139736 89.37696275 22.06139736 89.37696275 -4.3125 14.4375 C-9.74158672 8.71362124 -17.2544522 5.36876231 -25.06640625 4.76171875 C-35.02778455 4.55024815 -43.24380439 5.72694635 -51.25 12 C-73.40487425 33.3846639 -73.36162444 76.01181164 -74.06521606 104.65493774 C-74.18092532 111.45725554 -74.19470751 118.25934371 -74.1875 125.0625 C-74.18659363 126.65911972 -74.18659363 126.65911972 -74.18566895 128.28799438 C-74.07930892 198.06730595 -72.11800708 278.49559877 -48.91040039 345.12841797 C-45.84111504 353.96562025 -45.49166964 362.03407177 -45.6875 371.25 C-45.69902693 372.6757681 -45.70880147 374.10155147 -45.71679688 375.52734375 C-45.81885351 385.81885351 -45.81885351 385.81885351 -47 387 C-49.85939212 387.11655377 -52.6949464 387.16802278 -55.55541992 387.17700195 C-56.45301025 387.18357315 -57.35060059 387.19014435 -58.27539062 387.19691467 C-61.26041742 387.21670339 -64.24539372 387.22832412 -67.23046875 387.23828125 C-68.75690223 387.24439454 -68.75690223 387.24439454 -70.31417274 387.25063133 C-75.7026919 387.27151828 -81.0911854 387.28580722 -86.47973633 387.29516602 C-92.04731863 387.30622126 -97.61450024 387.3406036 -103.18194103 387.38033772 C-107.46021772 387.40648621 -111.73839885 387.41485642 -116.01674843 387.41844749 C-118.06884777 387.42331993 -120.12094266 387.43495255 -122.1729641 387.45348549 C-125.04816714 387.47783356 -127.92233284 387.47691944 -130.79760742 387.4699707 C-132.0673214 387.48918579 -132.0673214 387.48918579 -133.36268616 387.50878906 C-139.65138164 387.453466 -143.01917274 385.56967868 -147.8125 381.4375 C-152.12545706 376.21655198 -150.39160809 365.48178909 -150 359 C-148.84802866 351.13700296 -144.19691421 345.25369019 -137.98706055 340.43945312 C-135.81753136 338.99698883 -133.6151102 337.64263163 -131.375 336.3125 C-130.55088623 335.80759033 -129.72677246 335.30268066 -128.87768555 334.7824707 C-127.13542115 333.71584853 -125.38982939 332.6546442 -123.64111328 331.59863281 C-120.20549891 329.51909843 -116.7941519 327.40160819 -113.38256836 325.28295898 C-110.78882195 323.67280103 -108.19147892 322.06856704 -105.59375 320.46484375 C-98.2568417 315.92817117 -90.94870841 311.34536169 -83.6418457 306.76049805 C-82.67335693 306.15375244 -81.70486816 305.54700684 -80.70703125 304.921875 C-79.8456958 304.38143555 -78.98436035 303.84099609 -78.09692383 303.28417969 C-76 302 -76 302 -74 301 C-74.60625193 293.76645038 -75.3951219 286.58255142 -76.375 279.390625 C-76.64077134 277.39845702 -76.90639159 275.40626887 -77.171875 273.4140625 C-77.58463165 270.33599333 -77.99889601 267.25814515 -78.41601562 264.18066406 C-78.82338258 261.16788618 -79.22452804 258.15432613 -79.625 255.140625 C-79.74794434 254.24635803 -79.87088867 253.35209106 -79.99755859 252.4307251 C-81.02696053 244.63832992 -81.53743555 236.84354901 -82 229 C-82.64291772 229.00184359 -83.28583544 229.00368717 -83.94823551 229.00558662 C-99.60628019 229.04979377 -115.26430311 229.08287024 -130.92239475 229.10362434 C-138.49459133 229.11392815 -146.06674621 229.12797134 -153.63891602 229.15087891 C-160.2403537 229.17084023 -166.84176116 229.18372295 -173.44322819 229.18817699 C-176.93725796 229.19077973 -180.4312013 229.19687858 -183.92520332 229.21146011 C-187.82979045 229.22762232 -191.73429374 229.22797792 -195.63891602 229.22705078 C-196.79194214 229.23424133 -197.94496826 229.24143188 -199.13293457 229.24884033 C-212.24804908 229.21513538 -212.24804908 229.21513538 -216.7421875 225.59765625 C-223.89670896 215.90204613 -222.04194278 200.22559257 -220.5390625 188.65625 C-217.88998457 174.81871352 -211.20206781 162.67586084 -199.5546875 154.49609375 C-195.1205113 151.52783962 -190.55888419 148.77095467 -186 146 C-183.9861261 144.75919599 -181.97315384 143.51692777 -179.9609375 142.2734375 C-175.54630338 139.54836711 -171.12644178 136.83204545 -166.703125 134.12109375 C-160.34344797 130.21839766 -154.01096659 126.27353345 -147.6875 122.3125 C-140.24019938 117.64866901 -132.78550521 112.99754954 -125.3125 108.375 C-124.4683252 107.85276855 -123.62415039 107.33053711 -122.75439453 106.79248047 C-118.24911171 104.00653429 -113.74201515 101.22353626 -109.234375 98.44140625 C-108.28522217 97.85504395 -107.33606934 97.26868164 -106.3581543 96.66455078 C-104.54768981 95.54611346 -102.73668876 94.42854404 -100.92504883 93.31201172 C-97.41428548 91.14267539 -93.92620409 88.97043462 -90.52734375 86.62890625 C-88 85 -88 85 -86 85 C-85.97421875 83.9790625 -85.9484375 82.958125 -85.921875 81.90625 C-85.00899866 55.90144591 -81.16087051 21.9152332 -61 3 C-60.44699219 2.45085938 -59.89398438 1.90171875 -59.32421875 1.3359375 C-43.86029414 -13.09705881 -16.30656997 -12.54138574 0 0 Z " fill="#009CFF" transform="translate(240,11)"/>
<path d="M0 0 C33.969375 -0.061875 33.969375 -0.061875 68.625 -0.125 C75.73369629 -0.14320801 82.84239258 -0.16141602 90.16650391 -0.18017578 C98.95385742 -0.18920898 98.95385742 -0.18920898 103.08822632 -0.19088745 C105.93062567 -0.19272517 108.7729477 -0.20011539 111.61532593 -0.21115112 C155.21063388 -0.37287127 155.21063388 -0.37287127 172.875 4.1875 C173.72884277 4.40035645 174.58268555 4.61321289 175.46240234 4.83251953 C196.00693123 10.22847849 214.50681594 20.74902102 226 39 C235.64519718 56.69119069 236.99219442 76.33188968 232.06640625 95.6640625 C227.14736633 111.01691375 216.94437222 124.1827547 202.8125 132.125 C201.54981139 132.76629544 200.28212715 133.39850825 199 134 C199.61158474 139.1785628 202.01391181 143.42386875 204.33984375 148.0078125 C204.78082901 148.88790985 205.22181427 149.7680072 205.67616272 150.67477417 C206.61407054 152.5438686 207.55485501 154.41152188 208.49829102 156.27783203 C209.90654581 159.06376373 211.30666183 161.85365043 212.70507812 164.64453125 C217.52546467 174.24315689 222.43879181 183.78681396 227.46296692 193.28027344 C231.28544829 200.51195094 234.97668619 207.80421136 238.625 215.125 C239.25377657 216.37897129 239.8826829 217.63287751 240.51171875 218.88671875 C241.09824219 220.06105469 241.68476562 221.23539063 242.2890625 222.4453125 C242.81193848 223.49219238 243.33481445 224.53907227 243.87353516 225.61767578 C245 228 245 228 245 229 C211.34 229 177.68 229 143 229 C138.71 219.1 134.42 209.2 130 199 C126.81832063 191.72653867 123.63328906 184.45474257 120.4375 177.1875 C119.66334765 175.42515824 118.88925931 173.66278835 118.11523438 171.90039062 C117.36724626 170.19789085 116.61920174 168.49541586 115.87109375 166.79296875 C115.53879257 166.036707 115.20649139 165.28044525 114.86412048 164.50126648 C114.54600906 163.77792618 114.22789764 163.05458588 113.90014648 162.30932617 C113.59221161 161.60609222 113.28427673 160.90285828 112.9670105 160.17831421 C112.2808138 158.63256882 111.5803631 157.09311597 110.87014771 155.55825806 C110.50315765 154.75955292 110.1361676 153.96084778 109.75805664 153.13793945 C109.42173721 152.41677444 109.08541779 151.69560944 108.73890686 150.95259094 C108 149 108 149 108 146 C102.06 146 96.12 146 90 146 C90 173.39 90 200.78 90 229 C60.3 229 30.6 229 0 229 C0 153.43 0 77.86 0 0 Z M90 35 C90 62.39 90 89.78 90 118 C104.46831232 118 118.42941321 115.84516376 129.40625 105.72265625 C137.5088018 96.96475099 140.96792002 86.83751245 141 75 C140.2931905 63.41447037 135.97181507 52.69103684 127.3359375 44.75 C115.18668576 35.64821943 105.14863532 35 90 35 Z " fill="#009CFF" transform="translate(718,88)"/>
<path d="M0 0 C64.02 0 128.04 0 194 0 C194 11.88 194 23.76 194 36 C159.68 36 125.36 36 90 36 C90 56.13 90 76.26 90 97 C116.07 97 142.14 97 169 97 C169 108.88 169 120.76 169 133 C142.93 133 116.86 133 90 133 C90 152.8 90 172.6 90 193 C124.32 193 158.64 193 194 193 C194 204.88 194 216.76 194 229 C129.98 229 65.96 229 0 229 C0 153.43 0 77.86 0 0 Z " fill="#009CFF" transform="translate(1524,88)"/>
<path d="M0 0 C31.02 0 62.04 0 94 0 C113.33333333 38.66666667 113.33333333 38.66666667 120.4296875 53.640625 C123.69067749 60.48592545 127.1127251 67.24968486 130.52099609 74.02246094 C134.40131448 81.75298855 138.14632383 89.5416793 141.85546875 97.35546875 C145.15264358 104.28048063 148.55226336 111.14883499 152 118 C155.90080062 125.75153482 159.71758137 133.53505522 163.4375 141.375 C167.35757065 149.63555468 171.39160883 157.83150905 175.5 166 C180.07072174 175.08771768 184.53038932 184.21857928 188.88208008 193.41308594 C191.31171824 198.52858351 193.79611254 203.61008009 196.3515625 208.6640625 C196.9077124 209.76411621 197.4638623 210.86416992 198.03686523 211.99755859 C199.11688448 214.12564858 200.20213211 216.25109521 201.29321289 218.37353516 C201.77781982 219.3279248 202.26242676 220.28231445 202.76171875 221.265625 C203.19444092 222.10899414 203.62716309 222.95236328 204.07299805 223.82128906 C205 226 205 226 205 229 C171.67 229 138.34 229 104 229 C88 195 88 195 88 193 C58.3 193 28.6 193 -2 193 C-2.99 195.97 -3.98 198.94 -5 202 C-5.92226914 204.19374391 -6.88107793 206.37263457 -7.8828125 208.53125 C-8.41003906 209.67078125 -8.93726563 210.8103125 -9.48046875 211.984375 C-10.29451172 213.72460938 -10.29451172 213.72460938 -11.125 215.5 C-11.95064453 217.28664063 -11.95064453 217.28664063 -12.79296875 219.109375 C-16.85740938 227.85740938 -16.85740938 227.85740938 -18 229 C-20.95705321 229.08868299 -23.89065056 229.11520296 -26.84765625 229.09765625 C-28.17729652 229.09553383 -28.17729652 229.09553383 -29.53379822 229.09336853 C-32.37673254 229.08775215 -35.21958931 229.07519691 -38.0625 229.0625 C-39.98502491 229.05748711 -41.90755104 229.05292384 -43.83007812 229.04882812 C-48.55341549 229.03777741 -53.27669458 229.02050183 -58 229 C-51.35046831 213.81362128 -44.09972662 198.98254468 -36.625 184.1875 C-34.489256 179.95329351 -32.35634692 175.71767605 -30.2265625 171.48046875 C-29.44366852 169.92306473 -29.44366852 169.92306473 -28.6449585 168.334198 C-24.59930465 160.25840387 -20.68127687 152.12615102 -16.80374146 143.96855164 C-13.13683993 136.25908665 -9.35032375 128.6194193 -5.5 121 C-0.55658597 111.17787257 4.33197131 101.33390463 8.97265625 91.36401367 C11.31962992 86.355803 13.80831933 81.49009992 16.51953125 76.66796875 C17.38928589 75.0754126 17.38928589 75.0754126 18.27661133 73.45068359 C19.39241061 71.41888249 20.54278679 69.40553607 21.7331543 67.41650391 C23.80121519 63.59460221 25.30993556 60.70581426 24.5144043 56.32739258 C23.20615669 53.09260237 21.63245172 50.08473103 20 47 C18.91068453 44.68098595 17.85386554 42.34854614 16.79714966 40.01451111 C15.63200824 37.44503941 14.44896203 34.88459199 13.25976562 32.32617188 C12.85798096 31.4617749 12.45619629 30.59737793 12.04223633 29.70678711 C11.63642334 28.83417236 11.23061035 27.96155762 10.8125 27.0625 C9.58176974 24.41316198 8.35173068 21.76350949 7.12321472 19.11314392 C6.36442257 17.47640977 5.60432874 15.84027824 4.84272766 14.20484924 C0 3.76597994 0 3.76597994 0 0 Z M42 97 C41.4126709 98.29526611 41.4126709 98.29526611 40.81347656 99.61669922 C38.96005362 103.70328503 37.1051789 107.78921109 35.25 111.875 C34.91418915 112.61476074 34.5783783 113.35452148 34.23239136 114.11669922 C29.04169386 125.54821117 23.80854274 136.95882413 18.50683594 148.33935547 C18.04180664 149.34111816 17.57677734 150.34288086 17.09765625 151.375 C16.48676147 152.68597656 16.48676147 152.68597656 15.86352539 154.0234375 C14.93327604 155.79323421 14.93327604 155.79323421 15 157 C33.48 157 51.96 157 71 157 C68.410708 150.52677001 65.78602341 144.18449141 62.84765625 137.87890625 C62.4656456 137.05349838 62.08363495 136.22809052 61.69004822 135.37767029 C60.48328747 132.77148279 59.27302781 130.16693957 58.0625 127.5625 C56.85889253 124.96682069 55.65601722 122.37080301 54.45321655 119.77474976 C53.68255049 118.11154063 52.91158124 116.44847196 52.14028931 114.78555298 C49.39781781 108.87003658 46.68095491 102.94369814 44 97 C43.34 97 42.68 97 42 97 Z " fill="#009DFF" transform="translate(1041,88)"/>
<path d="M0 0 C12.90745469 -0.55834727 25.81200291 -0.9835773 38.72911167 -1.24349213 C44.72928854 -1.36831723 50.72115988 -1.53719882 56.71655273 -1.81054688 C96.67213739 -3.58520477 96.67213739 -3.58520477 104.56774902 2.23672485 C109.92121868 7.70375768 112.69064388 13.93611143 115.02792358 21.14337158 C116.29714206 24.87320753 118.05212915 27.62401806 120.2890625 30.85546875 C128.23042506 43.54709214 136.13323922 56.26199941 144 69 C147.47005578 65.83474642 149.84472583 62.30167334 152.25 58.3125 C153.13530676 56.87152738 154.0221314 55.43148664 154.91015625 53.9921875 C155.39887207 53.1990918 155.88758789 52.40599609 156.39111328 51.58886719 C159.44424004 46.67606656 162.56752828 41.8080203 165.6875 36.9375 C166.36143799 35.8853833 167.03537598 34.8332666 167.72973633 33.74926758 C172.60595044 26.14900802 177.51039945 18.5673637 182.4375 11 C183.08227295 10.00863037 183.7270459 9.01726074 184.39135742 7.99584961 C185.2785144 6.63665405 185.2785144 6.63665405 186.18359375 5.25 C186.70493896 4.45078125 187.22628418 3.6515625 187.76342773 2.828125 C189 1 189 1 190 0 C192.95705321 -0.08868299 195.89065056 -0.11520296 198.84765625 -0.09765625 C200.17729652 -0.09553383 200.17729652 -0.09553383 201.53379822 -0.09336853 C204.37673254 -0.08775215 207.21958931 -0.07519691 210.0625 -0.0625 C211.98502491 -0.05748711 213.90755104 -0.05292384 215.83007812 -0.04882812 C220.55341549 -0.03777741 225.27669458 -0.02050183 230 0 C229.30102375 3.00605331 228.43217057 5.19737425 226.76953125 7.80859375 C226.07162476 8.91110474 226.07162476 8.91110474 225.35961914 10.03588867 C224.84906982 10.82842041 224.33852051 11.62095215 223.8125 12.4375 C223.00510376 13.70267456 223.00510376 13.70267456 222.18139648 14.9934082 C217.81714611 21.80128718 213.34619752 28.53625428 208.8425293 35.25244141 C205.20215159 40.68436478 201.58941228 46.13332779 198.00390625 51.6015625 C197.56674789 52.26818405 197.12958954 52.9348056 196.67918396 53.62162781 C194.42565418 57.05993574 192.17564979 60.50050705 189.92944336 63.94360352 C185.7094385 70.40396151 181.45586406 76.83176355 177.0625 83.17578125 C176.3022768 84.28194263 175.54234006 85.38830094 174.78271484 86.49487305 C173.38084264 88.5285236 171.96519857 90.55277356 170.53369141 92.56567383 C169.91671387 93.46439209 169.29973633 94.36311035 168.6640625 95.2890625 C168.12217285 96.05943848 167.5802832 96.82981445 167.02197266 97.62353516 C165.63930071 100.83875941 166.07195038 102.66076624 167 106 C168.12239049 108.35767768 168.12239049 108.35767768 169.6328125 110.5546875 C170.18380615 111.40401855 170.7347998 112.25334961 171.30249023 113.12841797 C171.90391846 114.03479004 172.50534668 114.94116211 173.125 115.875 C174.41122319 117.85347345 175.69634224 119.83266506 176.98046875 121.8125 C177.6461084 122.8334375 178.31174805 123.854375 178.99755859 124.90625 C182.20327258 129.85904293 185.3204131 134.86612981 188.4375 139.875 C189.69652196 141.89328695 190.95563706 143.9115158 192.21484375 145.9296875 C192.83987793 146.93225586 193.46491211 147.93482422 194.10888672 148.96777344 C197.23543421 153.98090536 200.36796466 158.99029558 203.5 164 C207.28669989 170.05763112 211.07260999 176.1157505 214.85546875 182.17578125 C221.67906052 193.10460928 228.52306315 204.0197855 235.4140625 214.90625 C236.05263184 215.91945313 236.05263184 215.91945313 236.70410156 216.953125 C237.61044988 218.38470457 238.52451242 219.8114161 239.44433594 221.234375 C239.90356445 221.95109375 240.36279297 222.6678125 240.8359375 223.40625 C241.25149902 224.04884766 241.66706055 224.69144531 242.09521484 225.35351562 C243 227 243 227 243 229 C230.00481099 229.34820104 217.01073824 229.61438949 204.01182747 229.77718258 C197.97495429 229.85533668 191.94128108 229.96123786 185.90625 230.1315918 C180.07690142 230.29510191 174.25062039 230.38436234 168.41915512 230.42315865 C166.19964156 230.4507863 163.98028843 230.50474723 161.76208878 230.58595085 C144.85567979 231.17999975 144.85567979 231.17999975 140.11449051 227.56061935 C136.92770077 224.07715278 134.81766552 220.18938273 132.89291668 215.90557289 C131.50034126 212.93367862 129.72748682 210.26945907 127.9453125 207.515625 C126.66927778 205.42866914 125.39586665 203.34010701 124.125 201.25 C119.36484031 193.46585109 114.58061359 185.70134235 109.6875 178 C104.01421527 169.06703942 98.49043465 160.04624765 93 151 C88.33816113 157.54782 83.90010211 164.19446361 79.625 171 C74.26048477 179.48582088 68.81686665 187.91691059 63.3125 196.3125 C62.59586182 197.40570557 61.87922363 198.49891113 61.14086914 199.62524414 C60.43953857 200.69508545 59.73820801 201.76492676 59.015625 202.8671875 C55.06051037 208.90108039 51.13381957 214.95291463 47.22192383 221.01489258 C45.4970534 223.68776756 43.76460857 226.35308715 42 229 C40.16500854 229.36076355 40.16500854 229.36076355 37.91748047 229.34057617 C37.07675995 229.34034958 36.23603943 229.34012299 35.36984253 229.33988953 C34.46146637 229.32440567 33.55309021 229.30892181 32.6171875 229.29296875 C31.68778351 229.28872391 30.75837952 229.28447906 29.80081177 229.28010559 C26.82524944 229.26328012 23.85035844 229.22562103 20.875 229.1875 C18.86068685 229.17245816 16.84636311 229.15876888 14.83203125 229.14648438 C9.88776121 229.11336394 4.94399451 229.06155529 0 229 C6.55403318 218.56619455 13.3456013 208.28805441 20.125 198 C20.74973206 197.05134064 21.37446411 196.10268127 22.01812744 195.12527466 C33.6478302 177.47377713 45.4352441 159.93159125 57.29891968 142.43667603 C58.92648395 140.03072038 60.54573793 137.61937392 62.16308594 135.20654297 C63.88840257 132.63323933 65.63973516 130.08542074 67.43847656 127.56298828 C68.10073242 126.60505371 68.76298828 125.64711914 69.4453125 124.66015625 C69.99977051 123.88422119 70.55422852 123.10828613 71.12548828 122.30883789 C72.39737013 118.95088516 71.429445 117.21644801 70 114 C68.75263009 111.66008388 68.75263009 111.66008388 67.26953125 109.4453125 C66.72176025 108.59598145 66.17398926 107.74665039 65.60961914 106.87158203 C65.01656982 105.96520996 64.42352051 105.05883789 63.8125 104.125 C62.53550651 102.14644733 61.25949813 100.16725858 59.984375 98.1875 C58.9953418 96.65609375 58.9953418 96.65609375 57.98632812 95.09375 C54.80058612 90.13188635 51.6805951 85.1295529 48.5625 80.125 C47.94093018 79.12871582 47.31936035 78.13243164 46.67895508 77.10595703 C45.41603425 75.08157163 44.15342048 73.05699465 42.89111328 71.03222656 C39.76456569 66.01909449 36.63192533 61.00977334 33.5 56 C32.88423096 55.01451172 32.26846191 54.02902344 31.6340332 53.01367188 C28.46196308 47.93703332 25.28761591 42.86184041 22.109375 37.7890625 C18.39834163 31.86429108 14.6956089 25.93440403 11 20 C10.14656006 18.63101563 10.14656006 18.63101563 9.27587891 17.234375 C7.69952943 14.701105 6.12975143 12.16390598 4.5625 9.625 C4.09553711 8.87557129 3.62857422 8.12614258 3.14746094 7.35400391 C0 2.23059655 0 2.23059655 0 0 Z " fill="#009DFF" transform="translate(1738,88)"/>
<path d="M0 0 C32.34 0 64.68 0 98 0 C119.60509394 59.1157785 119.60509394 59.1157785 126.921875 79.359375 C127.15710184 80.01002552 127.39232868 80.66067604 127.63468361 81.33104324 C130.09147553 88.12686309 132.54529221 94.92374469 134.99487305 101.72216797 C139.85866802 115.20266796 144.84389035 128.62848304 150 142 C151.70823695 139.43764457 152.58450407 137.63639442 153.54956055 134.78369141 C153.84193604 133.9263591 154.13431152 133.06902679 154.43554688 132.18571472 C154.74943359 131.25044449 155.06332031 130.31517426 155.38671875 129.3515625 C155.88715698 127.87717461 155.88715698 127.87717461 156.39770508 126.3730011 C157.4986851 123.12513222 158.59316925 119.87511471 159.6875 116.625 C160.4558569 114.35350256 161.22449641 112.08210069 161.9934082 109.81079102 C167.2434875 94.28506107 172.43469867 78.73978244 177.60147095 63.18615723 C183.67521679 44.90248826 189.88087519 26.66503301 196.13505554 8.44236755 C197.09976618 5.63133656 198.06017633 2.819471 199 0 C212.53 0 226.06 0 240 0 C237.74984896 10.12567969 237.74984896 10.12567969 236.39038086 14.03344727 C235.93133362 15.36453018 235.93133362 15.36453018 235.4630127 16.72250366 C235.13361694 17.66099152 234.80422119 18.59947937 234.46484375 19.56640625 C234.1145813 20.57675934 233.76431885 21.58711243 233.40344238 22.62808228 C232.25316108 25.94132957 231.09548651 29.25193861 229.9375 32.5625 C229.12413861 34.89939393 228.3110735 37.23639099 227.49829102 39.57348633 C221.50662093 56.77981895 215.42953941 73.95571258 209.32788086 91.12329102 C204.31849268 105.22603338 199.39065182 119.35568016 194.5 133.5 C187.76177322 152.98734682 180.92043897 172.43642646 174.00805664 191.8626709 C169.61835181 204.22488998 165.31015434 216.60830628 161 229 C136.58 229 112.16 229 87 229 C84.15375 221.595625 81.3075 214.19125 78.375 206.5625 C70.93091494 187.20281651 63.47193277 167.84895529 56 148.5 C48.58085208 129.28761702 41.17625007 110.06972367 33.78762817 90.84558105 C28.855473 78.01345267 23.9160256 65.18417264 18.96484375 52.359375 C18.71217365 51.70487869 18.45950356 51.05038239 18.19917679 50.37605286 C15.96115504 44.57906317 13.72279232 38.7822053 11.4831543 32.98583984 C10.55646338 30.58747741 9.62990897 28.18906223 8.70350647 25.79058838 C7.86386449 23.61675328 7.02391135 21.44303834 6.18357849 19.26947021 C5.44873102 17.3667119 4.71567477 15.46326035 3.98483276 13.55895996 C3.35044309 11.91058084 2.70974782 10.26460767 2.06130981 8.6217041 C0.8851094 5.601149 0 3.27250815 0 0 Z " fill="#009DFF" transform="translate(1254,88)"/>
<path d="M0 0 C72.27 0 144.54 0 219 0 C219 11.88 219 23.76 219 36 C197.55 36 176.1 36 154 36 C154 99.69 154 163.38 154 229 C124.63 229 95.26 229 65 229 C65 165.31 65 101.62 65 36 C43.55 36 22.1 36 0 36 C0 24.12 0 12.24 0 0 Z " fill="#009CFF" transform="translate(467,88)"/>
<path d="M0 0 C0.99 0.33 1.98 0.66 3 1 C8.79954363 16.65243642 7.31876584 35.58867982 7.26074219 51.96362305 C7.25000386 55.5612061 7.26071227 59.15829116 7.2734375 62.75585938 C7.28088722 73.0835707 7.19352416 83.36803955 6.171875 93.65234375 C6.10276917 94.37772842 6.03366333 95.1031131 5.96246338 95.85047913 C5.34730114 101.16188661 3.8393646 105.98993552 2 111 C1.01 110.67 0.02 110.34 -1 110 C-6.84472789 94.21540628 -5.31808481 75.11608661 -5.26074219 58.60913086 C-5.25000475 54.93912278 -5.26071061 51.26960289 -5.2734375 47.59960938 C-5.29481911 14.1916826 -5.29481911 14.1916826 -1 1 C-0.67 0.67 -0.34 0.34 0 0 Z " fill="#009CFF" transform="translate(210,316)"/>
<path d="M0 0 C3.45010002 1.96653033 6.5466234 4.327656 9.6875 6.75 C10.96850586 7.70132813 10.96850586 7.70132813 12.27539062 8.671875 C19.7442913 14.30435312 19.7442913 14.30435312 22 18 C21.875 21.625 21.875 21.625 21 25 C17.88490382 27.07673079 16.76304114 27.3544686 13.16015625 26.7578125 C9.27789736 25.39586273 6.06233316 22.8882142 2.74609375 20.49609375 C-0.5823236 18.68274546 -2.25806134 18.42725429 -6 19 C-9.40372964 20.90859441 -12.49409963 23.1023445 -15.68359375 25.34765625 C-19.69841463 27.34797337 -21.72123017 27.1445053 -26 26 C-28.11283396 23.6230618 -28.01627216 22.29131133 -27.83984375 19.1328125 C-26.7734593 15.1549505 -25.30675467 14.04233001 -22.0625 11.5625 C-21.06992188 10.80195312 -20.07734375 10.04140625 -19.0546875 9.2578125 C-18.04664063 8.51273438 -17.03859375 7.76765625 -16 7 C-15.09507812 6.29617187 -14.19015625 5.59234375 -13.2578125 4.8671875 C-5.44832617 -0.99586151 -5.44832617 -0.99586151 0 0 Z " fill="#009CFF" transform="translate(214,33)"/>
</svg>
